G75*
%MOIN*%
%OFA0B0*%
%FSLAX25Y25*%
%IPPOS*%
%LPD*%
%AMOC8*
5,1,8,0,0,1.08239X$1,22.5*
%
%ADD10C,0.01200*%
%ADD11C,0.00000*%
D10*
X0016600Y0006600D02*
X0006600Y0016600D01*
X0006600Y0284100D01*
X0016600Y0294100D01*
X0156600Y0294100D01*
X0166600Y0284100D01*
X0166600Y0016600D01*
X0156600Y0006600D01*
X0016600Y0006600D01*
X0051600Y0046600D02*
X0041600Y0056600D01*
X0041600Y0126600D01*
X0051600Y0136600D01*
X0121600Y0136600D01*
X0131600Y0126600D01*
X0131600Y0056600D01*
X0121600Y0046600D01*
X0051600Y0046600D01*
X0051600Y0166600D02*
X0041600Y0176600D01*
X0041600Y0246600D01*
X0051600Y0256600D01*
X0121600Y0256600D01*
X0131600Y0246600D01*
X0131600Y0176600D01*
X0121600Y0166600D01*
X0051600Y0166600D01*
D11*
X0071600Y0151600D02*
X0071602Y0151741D01*
X0071608Y0151882D01*
X0071618Y0152022D01*
X0071632Y0152162D01*
X0071650Y0152302D01*
X0071671Y0152441D01*
X0071697Y0152580D01*
X0071726Y0152718D01*
X0071760Y0152854D01*
X0071797Y0152990D01*
X0071838Y0153125D01*
X0071883Y0153259D01*
X0071932Y0153391D01*
X0071984Y0153522D01*
X0072040Y0153651D01*
X0072100Y0153778D01*
X0072163Y0153904D01*
X0072229Y0154028D01*
X0072300Y0154151D01*
X0072373Y0154271D01*
X0072450Y0154389D01*
X0072530Y0154505D01*
X0072614Y0154618D01*
X0072700Y0154729D01*
X0072790Y0154838D01*
X0072883Y0154944D01*
X0072978Y0155047D01*
X0073077Y0155148D01*
X0073178Y0155246D01*
X0073282Y0155341D01*
X0073389Y0155433D01*
X0073498Y0155522D01*
X0073610Y0155607D01*
X0073724Y0155690D01*
X0073840Y0155770D01*
X0073959Y0155846D01*
X0074080Y0155918D01*
X0074202Y0155988D01*
X0074327Y0156053D01*
X0074453Y0156116D01*
X0074581Y0156174D01*
X0074711Y0156229D01*
X0074842Y0156281D01*
X0074975Y0156328D01*
X0075109Y0156372D01*
X0075244Y0156413D01*
X0075380Y0156449D01*
X0075517Y0156481D01*
X0075655Y0156510D01*
X0075793Y0156535D01*
X0075933Y0156555D01*
X0076073Y0156572D01*
X0076213Y0156585D01*
X0076354Y0156594D01*
X0076494Y0156599D01*
X0076635Y0156600D01*
X0076776Y0156597D01*
X0076917Y0156590D01*
X0077057Y0156579D01*
X0077197Y0156564D01*
X0077337Y0156545D01*
X0077476Y0156523D01*
X0077614Y0156496D01*
X0077752Y0156466D01*
X0077888Y0156431D01*
X0078024Y0156393D01*
X0078158Y0156351D01*
X0078292Y0156305D01*
X0078424Y0156256D01*
X0078554Y0156202D01*
X0078683Y0156145D01*
X0078810Y0156085D01*
X0078936Y0156021D01*
X0079059Y0155953D01*
X0079181Y0155882D01*
X0079301Y0155808D01*
X0079418Y0155730D01*
X0079533Y0155649D01*
X0079646Y0155565D01*
X0079757Y0155478D01*
X0079865Y0155387D01*
X0079970Y0155294D01*
X0080073Y0155197D01*
X0080173Y0155098D01*
X0080270Y0154996D01*
X0080364Y0154891D01*
X0080455Y0154784D01*
X0080543Y0154674D01*
X0080628Y0154562D01*
X0080710Y0154447D01*
X0080789Y0154330D01*
X0080864Y0154211D01*
X0080936Y0154090D01*
X0081004Y0153967D01*
X0081069Y0153842D01*
X0081131Y0153715D01*
X0081188Y0153586D01*
X0081243Y0153456D01*
X0081293Y0153325D01*
X0081340Y0153192D01*
X0081383Y0153058D01*
X0081422Y0152922D01*
X0081457Y0152786D01*
X0081489Y0152649D01*
X0081516Y0152511D01*
X0081540Y0152372D01*
X0081560Y0152232D01*
X0081576Y0152092D01*
X0081588Y0151952D01*
X0081596Y0151811D01*
X0081600Y0151670D01*
X0081600Y0151530D01*
X0081596Y0151389D01*
X0081588Y0151248D01*
X0081576Y0151108D01*
X0081560Y0150968D01*
X0081540Y0150828D01*
X0081516Y0150689D01*
X0081489Y0150551D01*
X0081457Y0150414D01*
X0081422Y0150278D01*
X0081383Y0150142D01*
X0081340Y0150008D01*
X0081293Y0149875D01*
X0081243Y0149744D01*
X0081188Y0149614D01*
X0081131Y0149485D01*
X0081069Y0149358D01*
X0081004Y0149233D01*
X0080936Y0149110D01*
X0080864Y0148989D01*
X0080789Y0148870D01*
X0080710Y0148753D01*
X0080628Y0148638D01*
X0080543Y0148526D01*
X0080455Y0148416D01*
X0080364Y0148309D01*
X0080270Y0148204D01*
X0080173Y0148102D01*
X0080073Y0148003D01*
X0079970Y0147906D01*
X0079865Y0147813D01*
X0079757Y0147722D01*
X0079646Y0147635D01*
X0079533Y0147551D01*
X0079418Y0147470D01*
X0079301Y0147392D01*
X0079181Y0147318D01*
X0079059Y0147247D01*
X0078936Y0147179D01*
X0078810Y0147115D01*
X0078683Y0147055D01*
X0078554Y0146998D01*
X0078424Y0146944D01*
X0078292Y0146895D01*
X0078158Y0146849D01*
X0078024Y0146807D01*
X0077888Y0146769D01*
X0077752Y0146734D01*
X0077614Y0146704D01*
X0077476Y0146677D01*
X0077337Y0146655D01*
X0077197Y0146636D01*
X0077057Y0146621D01*
X0076917Y0146610D01*
X0076776Y0146603D01*
X0076635Y0146600D01*
X0076494Y0146601D01*
X0076354Y0146606D01*
X0076213Y0146615D01*
X0076073Y0146628D01*
X0075933Y0146645D01*
X0075793Y0146665D01*
X0075655Y0146690D01*
X0075517Y0146719D01*
X0075380Y0146751D01*
X0075244Y0146787D01*
X0075109Y0146828D01*
X0074975Y0146872D01*
X0074842Y0146919D01*
X0074711Y0146971D01*
X0074581Y0147026D01*
X0074453Y0147084D01*
X0074327Y0147147D01*
X0074202Y0147212D01*
X0074080Y0147282D01*
X0073959Y0147354D01*
X0073840Y0147430D01*
X0073724Y0147510D01*
X0073610Y0147593D01*
X0073498Y0147678D01*
X0073389Y0147767D01*
X0073282Y0147859D01*
X0073178Y0147954D01*
X0073077Y0148052D01*
X0072978Y0148153D01*
X0072883Y0148256D01*
X0072790Y0148362D01*
X0072700Y0148471D01*
X0072614Y0148582D01*
X0072530Y0148695D01*
X0072450Y0148811D01*
X0072373Y0148929D01*
X0072300Y0149049D01*
X0072229Y0149172D01*
X0072163Y0149296D01*
X0072100Y0149422D01*
X0072040Y0149549D01*
X0071984Y0149678D01*
X0071932Y0149809D01*
X0071883Y0149941D01*
X0071838Y0150075D01*
X0071797Y0150210D01*
X0071760Y0150346D01*
X0071726Y0150482D01*
X0071697Y0150620D01*
X0071671Y0150759D01*
X0071650Y0150898D01*
X0071632Y0151038D01*
X0071618Y0151178D01*
X0071608Y0151318D01*
X0071602Y0151459D01*
X0071600Y0151600D01*
X0091600Y0151600D02*
X0091602Y0151741D01*
X0091608Y0151882D01*
X0091618Y0152022D01*
X0091632Y0152162D01*
X0091650Y0152302D01*
X0091671Y0152441D01*
X0091697Y0152580D01*
X0091726Y0152718D01*
X0091760Y0152854D01*
X0091797Y0152990D01*
X0091838Y0153125D01*
X0091883Y0153259D01*
X0091932Y0153391D01*
X0091984Y0153522D01*
X0092040Y0153651D01*
X0092100Y0153778D01*
X0092163Y0153904D01*
X0092229Y0154028D01*
X0092300Y0154151D01*
X0092373Y0154271D01*
X0092450Y0154389D01*
X0092530Y0154505D01*
X0092614Y0154618D01*
X0092700Y0154729D01*
X0092790Y0154838D01*
X0092883Y0154944D01*
X0092978Y0155047D01*
X0093077Y0155148D01*
X0093178Y0155246D01*
X0093282Y0155341D01*
X0093389Y0155433D01*
X0093498Y0155522D01*
X0093610Y0155607D01*
X0093724Y0155690D01*
X0093840Y0155770D01*
X0093959Y0155846D01*
X0094080Y0155918D01*
X0094202Y0155988D01*
X0094327Y0156053D01*
X0094453Y0156116D01*
X0094581Y0156174D01*
X0094711Y0156229D01*
X0094842Y0156281D01*
X0094975Y0156328D01*
X0095109Y0156372D01*
X0095244Y0156413D01*
X0095380Y0156449D01*
X0095517Y0156481D01*
X0095655Y0156510D01*
X0095793Y0156535D01*
X0095933Y0156555D01*
X0096073Y0156572D01*
X0096213Y0156585D01*
X0096354Y0156594D01*
X0096494Y0156599D01*
X0096635Y0156600D01*
X0096776Y0156597D01*
X0096917Y0156590D01*
X0097057Y0156579D01*
X0097197Y0156564D01*
X0097337Y0156545D01*
X0097476Y0156523D01*
X0097614Y0156496D01*
X0097752Y0156466D01*
X0097888Y0156431D01*
X0098024Y0156393D01*
X0098158Y0156351D01*
X0098292Y0156305D01*
X0098424Y0156256D01*
X0098554Y0156202D01*
X0098683Y0156145D01*
X0098810Y0156085D01*
X0098936Y0156021D01*
X0099059Y0155953D01*
X0099181Y0155882D01*
X0099301Y0155808D01*
X0099418Y0155730D01*
X0099533Y0155649D01*
X0099646Y0155565D01*
X0099757Y0155478D01*
X0099865Y0155387D01*
X0099970Y0155294D01*
X0100073Y0155197D01*
X0100173Y0155098D01*
X0100270Y0154996D01*
X0100364Y0154891D01*
X0100455Y0154784D01*
X0100543Y0154674D01*
X0100628Y0154562D01*
X0100710Y0154447D01*
X0100789Y0154330D01*
X0100864Y0154211D01*
X0100936Y0154090D01*
X0101004Y0153967D01*
X0101069Y0153842D01*
X0101131Y0153715D01*
X0101188Y0153586D01*
X0101243Y0153456D01*
X0101293Y0153325D01*
X0101340Y0153192D01*
X0101383Y0153058D01*
X0101422Y0152922D01*
X0101457Y0152786D01*
X0101489Y0152649D01*
X0101516Y0152511D01*
X0101540Y0152372D01*
X0101560Y0152232D01*
X0101576Y0152092D01*
X0101588Y0151952D01*
X0101596Y0151811D01*
X0101600Y0151670D01*
X0101600Y0151530D01*
X0101596Y0151389D01*
X0101588Y0151248D01*
X0101576Y0151108D01*
X0101560Y0150968D01*
X0101540Y0150828D01*
X0101516Y0150689D01*
X0101489Y0150551D01*
X0101457Y0150414D01*
X0101422Y0150278D01*
X0101383Y0150142D01*
X0101340Y0150008D01*
X0101293Y0149875D01*
X0101243Y0149744D01*
X0101188Y0149614D01*
X0101131Y0149485D01*
X0101069Y0149358D01*
X0101004Y0149233D01*
X0100936Y0149110D01*
X0100864Y0148989D01*
X0100789Y0148870D01*
X0100710Y0148753D01*
X0100628Y0148638D01*
X0100543Y0148526D01*
X0100455Y0148416D01*
X0100364Y0148309D01*
X0100270Y0148204D01*
X0100173Y0148102D01*
X0100073Y0148003D01*
X0099970Y0147906D01*
X0099865Y0147813D01*
X0099757Y0147722D01*
X0099646Y0147635D01*
X0099533Y0147551D01*
X0099418Y0147470D01*
X0099301Y0147392D01*
X0099181Y0147318D01*
X0099059Y0147247D01*
X0098936Y0147179D01*
X0098810Y0147115D01*
X0098683Y0147055D01*
X0098554Y0146998D01*
X0098424Y0146944D01*
X0098292Y0146895D01*
X0098158Y0146849D01*
X0098024Y0146807D01*
X0097888Y0146769D01*
X0097752Y0146734D01*
X0097614Y0146704D01*
X0097476Y0146677D01*
X0097337Y0146655D01*
X0097197Y0146636D01*
X0097057Y0146621D01*
X0096917Y0146610D01*
X0096776Y0146603D01*
X0096635Y0146600D01*
X0096494Y0146601D01*
X0096354Y0146606D01*
X0096213Y0146615D01*
X0096073Y0146628D01*
X0095933Y0146645D01*
X0095793Y0146665D01*
X0095655Y0146690D01*
X0095517Y0146719D01*
X0095380Y0146751D01*
X0095244Y0146787D01*
X0095109Y0146828D01*
X0094975Y0146872D01*
X0094842Y0146919D01*
X0094711Y0146971D01*
X0094581Y0147026D01*
X0094453Y0147084D01*
X0094327Y0147147D01*
X0094202Y0147212D01*
X0094080Y0147282D01*
X0093959Y0147354D01*
X0093840Y0147430D01*
X0093724Y0147510D01*
X0093610Y0147593D01*
X0093498Y0147678D01*
X0093389Y0147767D01*
X0093282Y0147859D01*
X0093178Y0147954D01*
X0093077Y0148052D01*
X0092978Y0148153D01*
X0092883Y0148256D01*
X0092790Y0148362D01*
X0092700Y0148471D01*
X0092614Y0148582D01*
X0092530Y0148695D01*
X0092450Y0148811D01*
X0092373Y0148929D01*
X0092300Y0149049D01*
X0092229Y0149172D01*
X0092163Y0149296D01*
X0092100Y0149422D01*
X0092040Y0149549D01*
X0091984Y0149678D01*
X0091932Y0149809D01*
X0091883Y0149941D01*
X0091838Y0150075D01*
X0091797Y0150210D01*
X0091760Y0150346D01*
X0091726Y0150482D01*
X0091697Y0150620D01*
X0091671Y0150759D01*
X0091650Y0150898D01*
X0091632Y0151038D01*
X0091618Y0151178D01*
X0091608Y0151318D01*
X0091602Y0151459D01*
X0091600Y0151600D01*
X0141600Y0101600D02*
X0141602Y0101741D01*
X0141608Y0101882D01*
X0141618Y0102022D01*
X0141632Y0102162D01*
X0141650Y0102302D01*
X0141671Y0102441D01*
X0141697Y0102580D01*
X0141726Y0102718D01*
X0141760Y0102854D01*
X0141797Y0102990D01*
X0141838Y0103125D01*
X0141883Y0103259D01*
X0141932Y0103391D01*
X0141984Y0103522D01*
X0142040Y0103651D01*
X0142100Y0103778D01*
X0142163Y0103904D01*
X0142229Y0104028D01*
X0142300Y0104151D01*
X0142373Y0104271D01*
X0142450Y0104389D01*
X0142530Y0104505D01*
X0142614Y0104618D01*
X0142700Y0104729D01*
X0142790Y0104838D01*
X0142883Y0104944D01*
X0142978Y0105047D01*
X0143077Y0105148D01*
X0143178Y0105246D01*
X0143282Y0105341D01*
X0143389Y0105433D01*
X0143498Y0105522D01*
X0143610Y0105607D01*
X0143724Y0105690D01*
X0143840Y0105770D01*
X0143959Y0105846D01*
X0144080Y0105918D01*
X0144202Y0105988D01*
X0144327Y0106053D01*
X0144453Y0106116D01*
X0144581Y0106174D01*
X0144711Y0106229D01*
X0144842Y0106281D01*
X0144975Y0106328D01*
X0145109Y0106372D01*
X0145244Y0106413D01*
X0145380Y0106449D01*
X0145517Y0106481D01*
X0145655Y0106510D01*
X0145793Y0106535D01*
X0145933Y0106555D01*
X0146073Y0106572D01*
X0146213Y0106585D01*
X0146354Y0106594D01*
X0146494Y0106599D01*
X0146635Y0106600D01*
X0146776Y0106597D01*
X0146917Y0106590D01*
X0147057Y0106579D01*
X0147197Y0106564D01*
X0147337Y0106545D01*
X0147476Y0106523D01*
X0147614Y0106496D01*
X0147752Y0106466D01*
X0147888Y0106431D01*
X0148024Y0106393D01*
X0148158Y0106351D01*
X0148292Y0106305D01*
X0148424Y0106256D01*
X0148554Y0106202D01*
X0148683Y0106145D01*
X0148810Y0106085D01*
X0148936Y0106021D01*
X0149059Y0105953D01*
X0149181Y0105882D01*
X0149301Y0105808D01*
X0149418Y0105730D01*
X0149533Y0105649D01*
X0149646Y0105565D01*
X0149757Y0105478D01*
X0149865Y0105387D01*
X0149970Y0105294D01*
X0150073Y0105197D01*
X0150173Y0105098D01*
X0150270Y0104996D01*
X0150364Y0104891D01*
X0150455Y0104784D01*
X0150543Y0104674D01*
X0150628Y0104562D01*
X0150710Y0104447D01*
X0150789Y0104330D01*
X0150864Y0104211D01*
X0150936Y0104090D01*
X0151004Y0103967D01*
X0151069Y0103842D01*
X0151131Y0103715D01*
X0151188Y0103586D01*
X0151243Y0103456D01*
X0151293Y0103325D01*
X0151340Y0103192D01*
X0151383Y0103058D01*
X0151422Y0102922D01*
X0151457Y0102786D01*
X0151489Y0102649D01*
X0151516Y0102511D01*
X0151540Y0102372D01*
X0151560Y0102232D01*
X0151576Y0102092D01*
X0151588Y0101952D01*
X0151596Y0101811D01*
X0151600Y0101670D01*
X0151600Y0101530D01*
X0151596Y0101389D01*
X0151588Y0101248D01*
X0151576Y0101108D01*
X0151560Y0100968D01*
X0151540Y0100828D01*
X0151516Y0100689D01*
X0151489Y0100551D01*
X0151457Y0100414D01*
X0151422Y0100278D01*
X0151383Y0100142D01*
X0151340Y0100008D01*
X0151293Y0099875D01*
X0151243Y0099744D01*
X0151188Y0099614D01*
X0151131Y0099485D01*
X0151069Y0099358D01*
X0151004Y0099233D01*
X0150936Y0099110D01*
X0150864Y0098989D01*
X0150789Y0098870D01*
X0150710Y0098753D01*
X0150628Y0098638D01*
X0150543Y0098526D01*
X0150455Y0098416D01*
X0150364Y0098309D01*
X0150270Y0098204D01*
X0150173Y0098102D01*
X0150073Y0098003D01*
X0149970Y0097906D01*
X0149865Y0097813D01*
X0149757Y0097722D01*
X0149646Y0097635D01*
X0149533Y0097551D01*
X0149418Y0097470D01*
X0149301Y0097392D01*
X0149181Y0097318D01*
X0149059Y0097247D01*
X0148936Y0097179D01*
X0148810Y0097115D01*
X0148683Y0097055D01*
X0148554Y0096998D01*
X0148424Y0096944D01*
X0148292Y0096895D01*
X0148158Y0096849D01*
X0148024Y0096807D01*
X0147888Y0096769D01*
X0147752Y0096734D01*
X0147614Y0096704D01*
X0147476Y0096677D01*
X0147337Y0096655D01*
X0147197Y0096636D01*
X0147057Y0096621D01*
X0146917Y0096610D01*
X0146776Y0096603D01*
X0146635Y0096600D01*
X0146494Y0096601D01*
X0146354Y0096606D01*
X0146213Y0096615D01*
X0146073Y0096628D01*
X0145933Y0096645D01*
X0145793Y0096665D01*
X0145655Y0096690D01*
X0145517Y0096719D01*
X0145380Y0096751D01*
X0145244Y0096787D01*
X0145109Y0096828D01*
X0144975Y0096872D01*
X0144842Y0096919D01*
X0144711Y0096971D01*
X0144581Y0097026D01*
X0144453Y0097084D01*
X0144327Y0097147D01*
X0144202Y0097212D01*
X0144080Y0097282D01*
X0143959Y0097354D01*
X0143840Y0097430D01*
X0143724Y0097510D01*
X0143610Y0097593D01*
X0143498Y0097678D01*
X0143389Y0097767D01*
X0143282Y0097859D01*
X0143178Y0097954D01*
X0143077Y0098052D01*
X0142978Y0098153D01*
X0142883Y0098256D01*
X0142790Y0098362D01*
X0142700Y0098471D01*
X0142614Y0098582D01*
X0142530Y0098695D01*
X0142450Y0098811D01*
X0142373Y0098929D01*
X0142300Y0099049D01*
X0142229Y0099172D01*
X0142163Y0099296D01*
X0142100Y0099422D01*
X0142040Y0099549D01*
X0141984Y0099678D01*
X0141932Y0099809D01*
X0141883Y0099941D01*
X0141838Y0100075D01*
X0141797Y0100210D01*
X0141760Y0100346D01*
X0141726Y0100482D01*
X0141697Y0100620D01*
X0141671Y0100759D01*
X0141650Y0100898D01*
X0141632Y0101038D01*
X0141618Y0101178D01*
X0141608Y0101318D01*
X0141602Y0101459D01*
X0141600Y0101600D01*
X0141600Y0081600D02*
X0141602Y0081741D01*
X0141608Y0081882D01*
X0141618Y0082022D01*
X0141632Y0082162D01*
X0141650Y0082302D01*
X0141671Y0082441D01*
X0141697Y0082580D01*
X0141726Y0082718D01*
X0141760Y0082854D01*
X0141797Y0082990D01*
X0141838Y0083125D01*
X0141883Y0083259D01*
X0141932Y0083391D01*
X0141984Y0083522D01*
X0142040Y0083651D01*
X0142100Y0083778D01*
X0142163Y0083904D01*
X0142229Y0084028D01*
X0142300Y0084151D01*
X0142373Y0084271D01*
X0142450Y0084389D01*
X0142530Y0084505D01*
X0142614Y0084618D01*
X0142700Y0084729D01*
X0142790Y0084838D01*
X0142883Y0084944D01*
X0142978Y0085047D01*
X0143077Y0085148D01*
X0143178Y0085246D01*
X0143282Y0085341D01*
X0143389Y0085433D01*
X0143498Y0085522D01*
X0143610Y0085607D01*
X0143724Y0085690D01*
X0143840Y0085770D01*
X0143959Y0085846D01*
X0144080Y0085918D01*
X0144202Y0085988D01*
X0144327Y0086053D01*
X0144453Y0086116D01*
X0144581Y0086174D01*
X0144711Y0086229D01*
X0144842Y0086281D01*
X0144975Y0086328D01*
X0145109Y0086372D01*
X0145244Y0086413D01*
X0145380Y0086449D01*
X0145517Y0086481D01*
X0145655Y0086510D01*
X0145793Y0086535D01*
X0145933Y0086555D01*
X0146073Y0086572D01*
X0146213Y0086585D01*
X0146354Y0086594D01*
X0146494Y0086599D01*
X0146635Y0086600D01*
X0146776Y0086597D01*
X0146917Y0086590D01*
X0147057Y0086579D01*
X0147197Y0086564D01*
X0147337Y0086545D01*
X0147476Y0086523D01*
X0147614Y0086496D01*
X0147752Y0086466D01*
X0147888Y0086431D01*
X0148024Y0086393D01*
X0148158Y0086351D01*
X0148292Y0086305D01*
X0148424Y0086256D01*
X0148554Y0086202D01*
X0148683Y0086145D01*
X0148810Y0086085D01*
X0148936Y0086021D01*
X0149059Y0085953D01*
X0149181Y0085882D01*
X0149301Y0085808D01*
X0149418Y0085730D01*
X0149533Y0085649D01*
X0149646Y0085565D01*
X0149757Y0085478D01*
X0149865Y0085387D01*
X0149970Y0085294D01*
X0150073Y0085197D01*
X0150173Y0085098D01*
X0150270Y0084996D01*
X0150364Y0084891D01*
X0150455Y0084784D01*
X0150543Y0084674D01*
X0150628Y0084562D01*
X0150710Y0084447D01*
X0150789Y0084330D01*
X0150864Y0084211D01*
X0150936Y0084090D01*
X0151004Y0083967D01*
X0151069Y0083842D01*
X0151131Y0083715D01*
X0151188Y0083586D01*
X0151243Y0083456D01*
X0151293Y0083325D01*
X0151340Y0083192D01*
X0151383Y0083058D01*
X0151422Y0082922D01*
X0151457Y0082786D01*
X0151489Y0082649D01*
X0151516Y0082511D01*
X0151540Y0082372D01*
X0151560Y0082232D01*
X0151576Y0082092D01*
X0151588Y0081952D01*
X0151596Y0081811D01*
X0151600Y0081670D01*
X0151600Y0081530D01*
X0151596Y0081389D01*
X0151588Y0081248D01*
X0151576Y0081108D01*
X0151560Y0080968D01*
X0151540Y0080828D01*
X0151516Y0080689D01*
X0151489Y0080551D01*
X0151457Y0080414D01*
X0151422Y0080278D01*
X0151383Y0080142D01*
X0151340Y0080008D01*
X0151293Y0079875D01*
X0151243Y0079744D01*
X0151188Y0079614D01*
X0151131Y0079485D01*
X0151069Y0079358D01*
X0151004Y0079233D01*
X0150936Y0079110D01*
X0150864Y0078989D01*
X0150789Y0078870D01*
X0150710Y0078753D01*
X0150628Y0078638D01*
X0150543Y0078526D01*
X0150455Y0078416D01*
X0150364Y0078309D01*
X0150270Y0078204D01*
X0150173Y0078102D01*
X0150073Y0078003D01*
X0149970Y0077906D01*
X0149865Y0077813D01*
X0149757Y0077722D01*
X0149646Y0077635D01*
X0149533Y0077551D01*
X0149418Y0077470D01*
X0149301Y0077392D01*
X0149181Y0077318D01*
X0149059Y0077247D01*
X0148936Y0077179D01*
X0148810Y0077115D01*
X0148683Y0077055D01*
X0148554Y0076998D01*
X0148424Y0076944D01*
X0148292Y0076895D01*
X0148158Y0076849D01*
X0148024Y0076807D01*
X0147888Y0076769D01*
X0147752Y0076734D01*
X0147614Y0076704D01*
X0147476Y0076677D01*
X0147337Y0076655D01*
X0147197Y0076636D01*
X0147057Y0076621D01*
X0146917Y0076610D01*
X0146776Y0076603D01*
X0146635Y0076600D01*
X0146494Y0076601D01*
X0146354Y0076606D01*
X0146213Y0076615D01*
X0146073Y0076628D01*
X0145933Y0076645D01*
X0145793Y0076665D01*
X0145655Y0076690D01*
X0145517Y0076719D01*
X0145380Y0076751D01*
X0145244Y0076787D01*
X0145109Y0076828D01*
X0144975Y0076872D01*
X0144842Y0076919D01*
X0144711Y0076971D01*
X0144581Y0077026D01*
X0144453Y0077084D01*
X0144327Y0077147D01*
X0144202Y0077212D01*
X0144080Y0077282D01*
X0143959Y0077354D01*
X0143840Y0077430D01*
X0143724Y0077510D01*
X0143610Y0077593D01*
X0143498Y0077678D01*
X0143389Y0077767D01*
X0143282Y0077859D01*
X0143178Y0077954D01*
X0143077Y0078052D01*
X0142978Y0078153D01*
X0142883Y0078256D01*
X0142790Y0078362D01*
X0142700Y0078471D01*
X0142614Y0078582D01*
X0142530Y0078695D01*
X0142450Y0078811D01*
X0142373Y0078929D01*
X0142300Y0079049D01*
X0142229Y0079172D01*
X0142163Y0079296D01*
X0142100Y0079422D01*
X0142040Y0079549D01*
X0141984Y0079678D01*
X0141932Y0079809D01*
X0141883Y0079941D01*
X0141838Y0080075D01*
X0141797Y0080210D01*
X0141760Y0080346D01*
X0141726Y0080482D01*
X0141697Y0080620D01*
X0141671Y0080759D01*
X0141650Y0080898D01*
X0141632Y0081038D01*
X0141618Y0081178D01*
X0141608Y0081318D01*
X0141602Y0081459D01*
X0141600Y0081600D01*
X0091600Y0031600D02*
X0091602Y0031741D01*
X0091608Y0031882D01*
X0091618Y0032022D01*
X0091632Y0032162D01*
X0091650Y0032302D01*
X0091671Y0032441D01*
X0091697Y0032580D01*
X0091726Y0032718D01*
X0091760Y0032854D01*
X0091797Y0032990D01*
X0091838Y0033125D01*
X0091883Y0033259D01*
X0091932Y0033391D01*
X0091984Y0033522D01*
X0092040Y0033651D01*
X0092100Y0033778D01*
X0092163Y0033904D01*
X0092229Y0034028D01*
X0092300Y0034151D01*
X0092373Y0034271D01*
X0092450Y0034389D01*
X0092530Y0034505D01*
X0092614Y0034618D01*
X0092700Y0034729D01*
X0092790Y0034838D01*
X0092883Y0034944D01*
X0092978Y0035047D01*
X0093077Y0035148D01*
X0093178Y0035246D01*
X0093282Y0035341D01*
X0093389Y0035433D01*
X0093498Y0035522D01*
X0093610Y0035607D01*
X0093724Y0035690D01*
X0093840Y0035770D01*
X0093959Y0035846D01*
X0094080Y0035918D01*
X0094202Y0035988D01*
X0094327Y0036053D01*
X0094453Y0036116D01*
X0094581Y0036174D01*
X0094711Y0036229D01*
X0094842Y0036281D01*
X0094975Y0036328D01*
X0095109Y0036372D01*
X0095244Y0036413D01*
X0095380Y0036449D01*
X0095517Y0036481D01*
X0095655Y0036510D01*
X0095793Y0036535D01*
X0095933Y0036555D01*
X0096073Y0036572D01*
X0096213Y0036585D01*
X0096354Y0036594D01*
X0096494Y0036599D01*
X0096635Y0036600D01*
X0096776Y0036597D01*
X0096917Y0036590D01*
X0097057Y0036579D01*
X0097197Y0036564D01*
X0097337Y0036545D01*
X0097476Y0036523D01*
X0097614Y0036496D01*
X0097752Y0036466D01*
X0097888Y0036431D01*
X0098024Y0036393D01*
X0098158Y0036351D01*
X0098292Y0036305D01*
X0098424Y0036256D01*
X0098554Y0036202D01*
X0098683Y0036145D01*
X0098810Y0036085D01*
X0098936Y0036021D01*
X0099059Y0035953D01*
X0099181Y0035882D01*
X0099301Y0035808D01*
X0099418Y0035730D01*
X0099533Y0035649D01*
X0099646Y0035565D01*
X0099757Y0035478D01*
X0099865Y0035387D01*
X0099970Y0035294D01*
X0100073Y0035197D01*
X0100173Y0035098D01*
X0100270Y0034996D01*
X0100364Y0034891D01*
X0100455Y0034784D01*
X0100543Y0034674D01*
X0100628Y0034562D01*
X0100710Y0034447D01*
X0100789Y0034330D01*
X0100864Y0034211D01*
X0100936Y0034090D01*
X0101004Y0033967D01*
X0101069Y0033842D01*
X0101131Y0033715D01*
X0101188Y0033586D01*
X0101243Y0033456D01*
X0101293Y0033325D01*
X0101340Y0033192D01*
X0101383Y0033058D01*
X0101422Y0032922D01*
X0101457Y0032786D01*
X0101489Y0032649D01*
X0101516Y0032511D01*
X0101540Y0032372D01*
X0101560Y0032232D01*
X0101576Y0032092D01*
X0101588Y0031952D01*
X0101596Y0031811D01*
X0101600Y0031670D01*
X0101600Y0031530D01*
X0101596Y0031389D01*
X0101588Y0031248D01*
X0101576Y0031108D01*
X0101560Y0030968D01*
X0101540Y0030828D01*
X0101516Y0030689D01*
X0101489Y0030551D01*
X0101457Y0030414D01*
X0101422Y0030278D01*
X0101383Y0030142D01*
X0101340Y0030008D01*
X0101293Y0029875D01*
X0101243Y0029744D01*
X0101188Y0029614D01*
X0101131Y0029485D01*
X0101069Y0029358D01*
X0101004Y0029233D01*
X0100936Y0029110D01*
X0100864Y0028989D01*
X0100789Y0028870D01*
X0100710Y0028753D01*
X0100628Y0028638D01*
X0100543Y0028526D01*
X0100455Y0028416D01*
X0100364Y0028309D01*
X0100270Y0028204D01*
X0100173Y0028102D01*
X0100073Y0028003D01*
X0099970Y0027906D01*
X0099865Y0027813D01*
X0099757Y0027722D01*
X0099646Y0027635D01*
X0099533Y0027551D01*
X0099418Y0027470D01*
X0099301Y0027392D01*
X0099181Y0027318D01*
X0099059Y0027247D01*
X0098936Y0027179D01*
X0098810Y0027115D01*
X0098683Y0027055D01*
X0098554Y0026998D01*
X0098424Y0026944D01*
X0098292Y0026895D01*
X0098158Y0026849D01*
X0098024Y0026807D01*
X0097888Y0026769D01*
X0097752Y0026734D01*
X0097614Y0026704D01*
X0097476Y0026677D01*
X0097337Y0026655D01*
X0097197Y0026636D01*
X0097057Y0026621D01*
X0096917Y0026610D01*
X0096776Y0026603D01*
X0096635Y0026600D01*
X0096494Y0026601D01*
X0096354Y0026606D01*
X0096213Y0026615D01*
X0096073Y0026628D01*
X0095933Y0026645D01*
X0095793Y0026665D01*
X0095655Y0026690D01*
X0095517Y0026719D01*
X0095380Y0026751D01*
X0095244Y0026787D01*
X0095109Y0026828D01*
X0094975Y0026872D01*
X0094842Y0026919D01*
X0094711Y0026971D01*
X0094581Y0027026D01*
X0094453Y0027084D01*
X0094327Y0027147D01*
X0094202Y0027212D01*
X0094080Y0027282D01*
X0093959Y0027354D01*
X0093840Y0027430D01*
X0093724Y0027510D01*
X0093610Y0027593D01*
X0093498Y0027678D01*
X0093389Y0027767D01*
X0093282Y0027859D01*
X0093178Y0027954D01*
X0093077Y0028052D01*
X0092978Y0028153D01*
X0092883Y0028256D01*
X0092790Y0028362D01*
X0092700Y0028471D01*
X0092614Y0028582D01*
X0092530Y0028695D01*
X0092450Y0028811D01*
X0092373Y0028929D01*
X0092300Y0029049D01*
X0092229Y0029172D01*
X0092163Y0029296D01*
X0092100Y0029422D01*
X0092040Y0029549D01*
X0091984Y0029678D01*
X0091932Y0029809D01*
X0091883Y0029941D01*
X0091838Y0030075D01*
X0091797Y0030210D01*
X0091760Y0030346D01*
X0091726Y0030482D01*
X0091697Y0030620D01*
X0091671Y0030759D01*
X0091650Y0030898D01*
X0091632Y0031038D01*
X0091618Y0031178D01*
X0091608Y0031318D01*
X0091602Y0031459D01*
X0091600Y0031600D01*
X0071600Y0031600D02*
X0071602Y0031741D01*
X0071608Y0031882D01*
X0071618Y0032022D01*
X0071632Y0032162D01*
X0071650Y0032302D01*
X0071671Y0032441D01*
X0071697Y0032580D01*
X0071726Y0032718D01*
X0071760Y0032854D01*
X0071797Y0032990D01*
X0071838Y0033125D01*
X0071883Y0033259D01*
X0071932Y0033391D01*
X0071984Y0033522D01*
X0072040Y0033651D01*
X0072100Y0033778D01*
X0072163Y0033904D01*
X0072229Y0034028D01*
X0072300Y0034151D01*
X0072373Y0034271D01*
X0072450Y0034389D01*
X0072530Y0034505D01*
X0072614Y0034618D01*
X0072700Y0034729D01*
X0072790Y0034838D01*
X0072883Y0034944D01*
X0072978Y0035047D01*
X0073077Y0035148D01*
X0073178Y0035246D01*
X0073282Y0035341D01*
X0073389Y0035433D01*
X0073498Y0035522D01*
X0073610Y0035607D01*
X0073724Y0035690D01*
X0073840Y0035770D01*
X0073959Y0035846D01*
X0074080Y0035918D01*
X0074202Y0035988D01*
X0074327Y0036053D01*
X0074453Y0036116D01*
X0074581Y0036174D01*
X0074711Y0036229D01*
X0074842Y0036281D01*
X0074975Y0036328D01*
X0075109Y0036372D01*
X0075244Y0036413D01*
X0075380Y0036449D01*
X0075517Y0036481D01*
X0075655Y0036510D01*
X0075793Y0036535D01*
X0075933Y0036555D01*
X0076073Y0036572D01*
X0076213Y0036585D01*
X0076354Y0036594D01*
X0076494Y0036599D01*
X0076635Y0036600D01*
X0076776Y0036597D01*
X0076917Y0036590D01*
X0077057Y0036579D01*
X0077197Y0036564D01*
X0077337Y0036545D01*
X0077476Y0036523D01*
X0077614Y0036496D01*
X0077752Y0036466D01*
X0077888Y0036431D01*
X0078024Y0036393D01*
X0078158Y0036351D01*
X0078292Y0036305D01*
X0078424Y0036256D01*
X0078554Y0036202D01*
X0078683Y0036145D01*
X0078810Y0036085D01*
X0078936Y0036021D01*
X0079059Y0035953D01*
X0079181Y0035882D01*
X0079301Y0035808D01*
X0079418Y0035730D01*
X0079533Y0035649D01*
X0079646Y0035565D01*
X0079757Y0035478D01*
X0079865Y0035387D01*
X0079970Y0035294D01*
X0080073Y0035197D01*
X0080173Y0035098D01*
X0080270Y0034996D01*
X0080364Y0034891D01*
X0080455Y0034784D01*
X0080543Y0034674D01*
X0080628Y0034562D01*
X0080710Y0034447D01*
X0080789Y0034330D01*
X0080864Y0034211D01*
X0080936Y0034090D01*
X0081004Y0033967D01*
X0081069Y0033842D01*
X0081131Y0033715D01*
X0081188Y0033586D01*
X0081243Y0033456D01*
X0081293Y0033325D01*
X0081340Y0033192D01*
X0081383Y0033058D01*
X0081422Y0032922D01*
X0081457Y0032786D01*
X0081489Y0032649D01*
X0081516Y0032511D01*
X0081540Y0032372D01*
X0081560Y0032232D01*
X0081576Y0032092D01*
X0081588Y0031952D01*
X0081596Y0031811D01*
X0081600Y0031670D01*
X0081600Y0031530D01*
X0081596Y0031389D01*
X0081588Y0031248D01*
X0081576Y0031108D01*
X0081560Y0030968D01*
X0081540Y0030828D01*
X0081516Y0030689D01*
X0081489Y0030551D01*
X0081457Y0030414D01*
X0081422Y0030278D01*
X0081383Y0030142D01*
X0081340Y0030008D01*
X0081293Y0029875D01*
X0081243Y0029744D01*
X0081188Y0029614D01*
X0081131Y0029485D01*
X0081069Y0029358D01*
X0081004Y0029233D01*
X0080936Y0029110D01*
X0080864Y0028989D01*
X0080789Y0028870D01*
X0080710Y0028753D01*
X0080628Y0028638D01*
X0080543Y0028526D01*
X0080455Y0028416D01*
X0080364Y0028309D01*
X0080270Y0028204D01*
X0080173Y0028102D01*
X0080073Y0028003D01*
X0079970Y0027906D01*
X0079865Y0027813D01*
X0079757Y0027722D01*
X0079646Y0027635D01*
X0079533Y0027551D01*
X0079418Y0027470D01*
X0079301Y0027392D01*
X0079181Y0027318D01*
X0079059Y0027247D01*
X0078936Y0027179D01*
X0078810Y0027115D01*
X0078683Y0027055D01*
X0078554Y0026998D01*
X0078424Y0026944D01*
X0078292Y0026895D01*
X0078158Y0026849D01*
X0078024Y0026807D01*
X0077888Y0026769D01*
X0077752Y0026734D01*
X0077614Y0026704D01*
X0077476Y0026677D01*
X0077337Y0026655D01*
X0077197Y0026636D01*
X0077057Y0026621D01*
X0076917Y0026610D01*
X0076776Y0026603D01*
X0076635Y0026600D01*
X0076494Y0026601D01*
X0076354Y0026606D01*
X0076213Y0026615D01*
X0076073Y0026628D01*
X0075933Y0026645D01*
X0075793Y0026665D01*
X0075655Y0026690D01*
X0075517Y0026719D01*
X0075380Y0026751D01*
X0075244Y0026787D01*
X0075109Y0026828D01*
X0074975Y0026872D01*
X0074842Y0026919D01*
X0074711Y0026971D01*
X0074581Y0027026D01*
X0074453Y0027084D01*
X0074327Y0027147D01*
X0074202Y0027212D01*
X0074080Y0027282D01*
X0073959Y0027354D01*
X0073840Y0027430D01*
X0073724Y0027510D01*
X0073610Y0027593D01*
X0073498Y0027678D01*
X0073389Y0027767D01*
X0073282Y0027859D01*
X0073178Y0027954D01*
X0073077Y0028052D01*
X0072978Y0028153D01*
X0072883Y0028256D01*
X0072790Y0028362D01*
X0072700Y0028471D01*
X0072614Y0028582D01*
X0072530Y0028695D01*
X0072450Y0028811D01*
X0072373Y0028929D01*
X0072300Y0029049D01*
X0072229Y0029172D01*
X0072163Y0029296D01*
X0072100Y0029422D01*
X0072040Y0029549D01*
X0071984Y0029678D01*
X0071932Y0029809D01*
X0071883Y0029941D01*
X0071838Y0030075D01*
X0071797Y0030210D01*
X0071760Y0030346D01*
X0071726Y0030482D01*
X0071697Y0030620D01*
X0071671Y0030759D01*
X0071650Y0030898D01*
X0071632Y0031038D01*
X0071618Y0031178D01*
X0071608Y0031318D01*
X0071602Y0031459D01*
X0071600Y0031600D01*
X0021600Y0081600D02*
X0021602Y0081741D01*
X0021608Y0081882D01*
X0021618Y0082022D01*
X0021632Y0082162D01*
X0021650Y0082302D01*
X0021671Y0082441D01*
X0021697Y0082580D01*
X0021726Y0082718D01*
X0021760Y0082854D01*
X0021797Y0082990D01*
X0021838Y0083125D01*
X0021883Y0083259D01*
X0021932Y0083391D01*
X0021984Y0083522D01*
X0022040Y0083651D01*
X0022100Y0083778D01*
X0022163Y0083904D01*
X0022229Y0084028D01*
X0022300Y0084151D01*
X0022373Y0084271D01*
X0022450Y0084389D01*
X0022530Y0084505D01*
X0022614Y0084618D01*
X0022700Y0084729D01*
X0022790Y0084838D01*
X0022883Y0084944D01*
X0022978Y0085047D01*
X0023077Y0085148D01*
X0023178Y0085246D01*
X0023282Y0085341D01*
X0023389Y0085433D01*
X0023498Y0085522D01*
X0023610Y0085607D01*
X0023724Y0085690D01*
X0023840Y0085770D01*
X0023959Y0085846D01*
X0024080Y0085918D01*
X0024202Y0085988D01*
X0024327Y0086053D01*
X0024453Y0086116D01*
X0024581Y0086174D01*
X0024711Y0086229D01*
X0024842Y0086281D01*
X0024975Y0086328D01*
X0025109Y0086372D01*
X0025244Y0086413D01*
X0025380Y0086449D01*
X0025517Y0086481D01*
X0025655Y0086510D01*
X0025793Y0086535D01*
X0025933Y0086555D01*
X0026073Y0086572D01*
X0026213Y0086585D01*
X0026354Y0086594D01*
X0026494Y0086599D01*
X0026635Y0086600D01*
X0026776Y0086597D01*
X0026917Y0086590D01*
X0027057Y0086579D01*
X0027197Y0086564D01*
X0027337Y0086545D01*
X0027476Y0086523D01*
X0027614Y0086496D01*
X0027752Y0086466D01*
X0027888Y0086431D01*
X0028024Y0086393D01*
X0028158Y0086351D01*
X0028292Y0086305D01*
X0028424Y0086256D01*
X0028554Y0086202D01*
X0028683Y0086145D01*
X0028810Y0086085D01*
X0028936Y0086021D01*
X0029059Y0085953D01*
X0029181Y0085882D01*
X0029301Y0085808D01*
X0029418Y0085730D01*
X0029533Y0085649D01*
X0029646Y0085565D01*
X0029757Y0085478D01*
X0029865Y0085387D01*
X0029970Y0085294D01*
X0030073Y0085197D01*
X0030173Y0085098D01*
X0030270Y0084996D01*
X0030364Y0084891D01*
X0030455Y0084784D01*
X0030543Y0084674D01*
X0030628Y0084562D01*
X0030710Y0084447D01*
X0030789Y0084330D01*
X0030864Y0084211D01*
X0030936Y0084090D01*
X0031004Y0083967D01*
X0031069Y0083842D01*
X0031131Y0083715D01*
X0031188Y0083586D01*
X0031243Y0083456D01*
X0031293Y0083325D01*
X0031340Y0083192D01*
X0031383Y0083058D01*
X0031422Y0082922D01*
X0031457Y0082786D01*
X0031489Y0082649D01*
X0031516Y0082511D01*
X0031540Y0082372D01*
X0031560Y0082232D01*
X0031576Y0082092D01*
X0031588Y0081952D01*
X0031596Y0081811D01*
X0031600Y0081670D01*
X0031600Y0081530D01*
X0031596Y0081389D01*
X0031588Y0081248D01*
X0031576Y0081108D01*
X0031560Y0080968D01*
X0031540Y0080828D01*
X0031516Y0080689D01*
X0031489Y0080551D01*
X0031457Y0080414D01*
X0031422Y0080278D01*
X0031383Y0080142D01*
X0031340Y0080008D01*
X0031293Y0079875D01*
X0031243Y0079744D01*
X0031188Y0079614D01*
X0031131Y0079485D01*
X0031069Y0079358D01*
X0031004Y0079233D01*
X0030936Y0079110D01*
X0030864Y0078989D01*
X0030789Y0078870D01*
X0030710Y0078753D01*
X0030628Y0078638D01*
X0030543Y0078526D01*
X0030455Y0078416D01*
X0030364Y0078309D01*
X0030270Y0078204D01*
X0030173Y0078102D01*
X0030073Y0078003D01*
X0029970Y0077906D01*
X0029865Y0077813D01*
X0029757Y0077722D01*
X0029646Y0077635D01*
X0029533Y0077551D01*
X0029418Y0077470D01*
X0029301Y0077392D01*
X0029181Y0077318D01*
X0029059Y0077247D01*
X0028936Y0077179D01*
X0028810Y0077115D01*
X0028683Y0077055D01*
X0028554Y0076998D01*
X0028424Y0076944D01*
X0028292Y0076895D01*
X0028158Y0076849D01*
X0028024Y0076807D01*
X0027888Y0076769D01*
X0027752Y0076734D01*
X0027614Y0076704D01*
X0027476Y0076677D01*
X0027337Y0076655D01*
X0027197Y0076636D01*
X0027057Y0076621D01*
X0026917Y0076610D01*
X0026776Y0076603D01*
X0026635Y0076600D01*
X0026494Y0076601D01*
X0026354Y0076606D01*
X0026213Y0076615D01*
X0026073Y0076628D01*
X0025933Y0076645D01*
X0025793Y0076665D01*
X0025655Y0076690D01*
X0025517Y0076719D01*
X0025380Y0076751D01*
X0025244Y0076787D01*
X0025109Y0076828D01*
X0024975Y0076872D01*
X0024842Y0076919D01*
X0024711Y0076971D01*
X0024581Y0077026D01*
X0024453Y0077084D01*
X0024327Y0077147D01*
X0024202Y0077212D01*
X0024080Y0077282D01*
X0023959Y0077354D01*
X0023840Y0077430D01*
X0023724Y0077510D01*
X0023610Y0077593D01*
X0023498Y0077678D01*
X0023389Y0077767D01*
X0023282Y0077859D01*
X0023178Y0077954D01*
X0023077Y0078052D01*
X0022978Y0078153D01*
X0022883Y0078256D01*
X0022790Y0078362D01*
X0022700Y0078471D01*
X0022614Y0078582D01*
X0022530Y0078695D01*
X0022450Y0078811D01*
X0022373Y0078929D01*
X0022300Y0079049D01*
X0022229Y0079172D01*
X0022163Y0079296D01*
X0022100Y0079422D01*
X0022040Y0079549D01*
X0021984Y0079678D01*
X0021932Y0079809D01*
X0021883Y0079941D01*
X0021838Y0080075D01*
X0021797Y0080210D01*
X0021760Y0080346D01*
X0021726Y0080482D01*
X0021697Y0080620D01*
X0021671Y0080759D01*
X0021650Y0080898D01*
X0021632Y0081038D01*
X0021618Y0081178D01*
X0021608Y0081318D01*
X0021602Y0081459D01*
X0021600Y0081600D01*
X0021600Y0101600D02*
X0021602Y0101741D01*
X0021608Y0101882D01*
X0021618Y0102022D01*
X0021632Y0102162D01*
X0021650Y0102302D01*
X0021671Y0102441D01*
X0021697Y0102580D01*
X0021726Y0102718D01*
X0021760Y0102854D01*
X0021797Y0102990D01*
X0021838Y0103125D01*
X0021883Y0103259D01*
X0021932Y0103391D01*
X0021984Y0103522D01*
X0022040Y0103651D01*
X0022100Y0103778D01*
X0022163Y0103904D01*
X0022229Y0104028D01*
X0022300Y0104151D01*
X0022373Y0104271D01*
X0022450Y0104389D01*
X0022530Y0104505D01*
X0022614Y0104618D01*
X0022700Y0104729D01*
X0022790Y0104838D01*
X0022883Y0104944D01*
X0022978Y0105047D01*
X0023077Y0105148D01*
X0023178Y0105246D01*
X0023282Y0105341D01*
X0023389Y0105433D01*
X0023498Y0105522D01*
X0023610Y0105607D01*
X0023724Y0105690D01*
X0023840Y0105770D01*
X0023959Y0105846D01*
X0024080Y0105918D01*
X0024202Y0105988D01*
X0024327Y0106053D01*
X0024453Y0106116D01*
X0024581Y0106174D01*
X0024711Y0106229D01*
X0024842Y0106281D01*
X0024975Y0106328D01*
X0025109Y0106372D01*
X0025244Y0106413D01*
X0025380Y0106449D01*
X0025517Y0106481D01*
X0025655Y0106510D01*
X0025793Y0106535D01*
X0025933Y0106555D01*
X0026073Y0106572D01*
X0026213Y0106585D01*
X0026354Y0106594D01*
X0026494Y0106599D01*
X0026635Y0106600D01*
X0026776Y0106597D01*
X0026917Y0106590D01*
X0027057Y0106579D01*
X0027197Y0106564D01*
X0027337Y0106545D01*
X0027476Y0106523D01*
X0027614Y0106496D01*
X0027752Y0106466D01*
X0027888Y0106431D01*
X0028024Y0106393D01*
X0028158Y0106351D01*
X0028292Y0106305D01*
X0028424Y0106256D01*
X0028554Y0106202D01*
X0028683Y0106145D01*
X0028810Y0106085D01*
X0028936Y0106021D01*
X0029059Y0105953D01*
X0029181Y0105882D01*
X0029301Y0105808D01*
X0029418Y0105730D01*
X0029533Y0105649D01*
X0029646Y0105565D01*
X0029757Y0105478D01*
X0029865Y0105387D01*
X0029970Y0105294D01*
X0030073Y0105197D01*
X0030173Y0105098D01*
X0030270Y0104996D01*
X0030364Y0104891D01*
X0030455Y0104784D01*
X0030543Y0104674D01*
X0030628Y0104562D01*
X0030710Y0104447D01*
X0030789Y0104330D01*
X0030864Y0104211D01*
X0030936Y0104090D01*
X0031004Y0103967D01*
X0031069Y0103842D01*
X0031131Y0103715D01*
X0031188Y0103586D01*
X0031243Y0103456D01*
X0031293Y0103325D01*
X0031340Y0103192D01*
X0031383Y0103058D01*
X0031422Y0102922D01*
X0031457Y0102786D01*
X0031489Y0102649D01*
X0031516Y0102511D01*
X0031540Y0102372D01*
X0031560Y0102232D01*
X0031576Y0102092D01*
X0031588Y0101952D01*
X0031596Y0101811D01*
X0031600Y0101670D01*
X0031600Y0101530D01*
X0031596Y0101389D01*
X0031588Y0101248D01*
X0031576Y0101108D01*
X0031560Y0100968D01*
X0031540Y0100828D01*
X0031516Y0100689D01*
X0031489Y0100551D01*
X0031457Y0100414D01*
X0031422Y0100278D01*
X0031383Y0100142D01*
X0031340Y0100008D01*
X0031293Y0099875D01*
X0031243Y0099744D01*
X0031188Y0099614D01*
X0031131Y0099485D01*
X0031069Y0099358D01*
X0031004Y0099233D01*
X0030936Y0099110D01*
X0030864Y0098989D01*
X0030789Y0098870D01*
X0030710Y0098753D01*
X0030628Y0098638D01*
X0030543Y0098526D01*
X0030455Y0098416D01*
X0030364Y0098309D01*
X0030270Y0098204D01*
X0030173Y0098102D01*
X0030073Y0098003D01*
X0029970Y0097906D01*
X0029865Y0097813D01*
X0029757Y0097722D01*
X0029646Y0097635D01*
X0029533Y0097551D01*
X0029418Y0097470D01*
X0029301Y0097392D01*
X0029181Y0097318D01*
X0029059Y0097247D01*
X0028936Y0097179D01*
X0028810Y0097115D01*
X0028683Y0097055D01*
X0028554Y0096998D01*
X0028424Y0096944D01*
X0028292Y0096895D01*
X0028158Y0096849D01*
X0028024Y0096807D01*
X0027888Y0096769D01*
X0027752Y0096734D01*
X0027614Y0096704D01*
X0027476Y0096677D01*
X0027337Y0096655D01*
X0027197Y0096636D01*
X0027057Y0096621D01*
X0026917Y0096610D01*
X0026776Y0096603D01*
X0026635Y0096600D01*
X0026494Y0096601D01*
X0026354Y0096606D01*
X0026213Y0096615D01*
X0026073Y0096628D01*
X0025933Y0096645D01*
X0025793Y0096665D01*
X0025655Y0096690D01*
X0025517Y0096719D01*
X0025380Y0096751D01*
X0025244Y0096787D01*
X0025109Y0096828D01*
X0024975Y0096872D01*
X0024842Y0096919D01*
X0024711Y0096971D01*
X0024581Y0097026D01*
X0024453Y0097084D01*
X0024327Y0097147D01*
X0024202Y0097212D01*
X0024080Y0097282D01*
X0023959Y0097354D01*
X0023840Y0097430D01*
X0023724Y0097510D01*
X0023610Y0097593D01*
X0023498Y0097678D01*
X0023389Y0097767D01*
X0023282Y0097859D01*
X0023178Y0097954D01*
X0023077Y0098052D01*
X0022978Y0098153D01*
X0022883Y0098256D01*
X0022790Y0098362D01*
X0022700Y0098471D01*
X0022614Y0098582D01*
X0022530Y0098695D01*
X0022450Y0098811D01*
X0022373Y0098929D01*
X0022300Y0099049D01*
X0022229Y0099172D01*
X0022163Y0099296D01*
X0022100Y0099422D01*
X0022040Y0099549D01*
X0021984Y0099678D01*
X0021932Y0099809D01*
X0021883Y0099941D01*
X0021838Y0100075D01*
X0021797Y0100210D01*
X0021760Y0100346D01*
X0021726Y0100482D01*
X0021697Y0100620D01*
X0021671Y0100759D01*
X0021650Y0100898D01*
X0021632Y0101038D01*
X0021618Y0101178D01*
X0021608Y0101318D01*
X0021602Y0101459D01*
X0021600Y0101600D01*
X0014100Y0151600D02*
X0014102Y0151741D01*
X0014108Y0151882D01*
X0014118Y0152022D01*
X0014132Y0152162D01*
X0014150Y0152302D01*
X0014171Y0152441D01*
X0014197Y0152580D01*
X0014226Y0152718D01*
X0014260Y0152854D01*
X0014297Y0152990D01*
X0014338Y0153125D01*
X0014383Y0153259D01*
X0014432Y0153391D01*
X0014484Y0153522D01*
X0014540Y0153651D01*
X0014600Y0153778D01*
X0014663Y0153904D01*
X0014729Y0154028D01*
X0014800Y0154151D01*
X0014873Y0154271D01*
X0014950Y0154389D01*
X0015030Y0154505D01*
X0015114Y0154618D01*
X0015200Y0154729D01*
X0015290Y0154838D01*
X0015383Y0154944D01*
X0015478Y0155047D01*
X0015577Y0155148D01*
X0015678Y0155246D01*
X0015782Y0155341D01*
X0015889Y0155433D01*
X0015998Y0155522D01*
X0016110Y0155607D01*
X0016224Y0155690D01*
X0016340Y0155770D01*
X0016459Y0155846D01*
X0016580Y0155918D01*
X0016702Y0155988D01*
X0016827Y0156053D01*
X0016953Y0156116D01*
X0017081Y0156174D01*
X0017211Y0156229D01*
X0017342Y0156281D01*
X0017475Y0156328D01*
X0017609Y0156372D01*
X0017744Y0156413D01*
X0017880Y0156449D01*
X0018017Y0156481D01*
X0018155Y0156510D01*
X0018293Y0156535D01*
X0018433Y0156555D01*
X0018573Y0156572D01*
X0018713Y0156585D01*
X0018854Y0156594D01*
X0018994Y0156599D01*
X0019135Y0156600D01*
X0019276Y0156597D01*
X0019417Y0156590D01*
X0019557Y0156579D01*
X0019697Y0156564D01*
X0019837Y0156545D01*
X0019976Y0156523D01*
X0020114Y0156496D01*
X0020252Y0156466D01*
X0020388Y0156431D01*
X0020524Y0156393D01*
X0020658Y0156351D01*
X0020792Y0156305D01*
X0020924Y0156256D01*
X0021054Y0156202D01*
X0021183Y0156145D01*
X0021310Y0156085D01*
X0021436Y0156021D01*
X0021559Y0155953D01*
X0021681Y0155882D01*
X0021801Y0155808D01*
X0021918Y0155730D01*
X0022033Y0155649D01*
X0022146Y0155565D01*
X0022257Y0155478D01*
X0022365Y0155387D01*
X0022470Y0155294D01*
X0022573Y0155197D01*
X0022673Y0155098D01*
X0022770Y0154996D01*
X0022864Y0154891D01*
X0022955Y0154784D01*
X0023043Y0154674D01*
X0023128Y0154562D01*
X0023210Y0154447D01*
X0023289Y0154330D01*
X0023364Y0154211D01*
X0023436Y0154090D01*
X0023504Y0153967D01*
X0023569Y0153842D01*
X0023631Y0153715D01*
X0023688Y0153586D01*
X0023743Y0153456D01*
X0023793Y0153325D01*
X0023840Y0153192D01*
X0023883Y0153058D01*
X0023922Y0152922D01*
X0023957Y0152786D01*
X0023989Y0152649D01*
X0024016Y0152511D01*
X0024040Y0152372D01*
X0024060Y0152232D01*
X0024076Y0152092D01*
X0024088Y0151952D01*
X0024096Y0151811D01*
X0024100Y0151670D01*
X0024100Y0151530D01*
X0024096Y0151389D01*
X0024088Y0151248D01*
X0024076Y0151108D01*
X0024060Y0150968D01*
X0024040Y0150828D01*
X0024016Y0150689D01*
X0023989Y0150551D01*
X0023957Y0150414D01*
X0023922Y0150278D01*
X0023883Y0150142D01*
X0023840Y0150008D01*
X0023793Y0149875D01*
X0023743Y0149744D01*
X0023688Y0149614D01*
X0023631Y0149485D01*
X0023569Y0149358D01*
X0023504Y0149233D01*
X0023436Y0149110D01*
X0023364Y0148989D01*
X0023289Y0148870D01*
X0023210Y0148753D01*
X0023128Y0148638D01*
X0023043Y0148526D01*
X0022955Y0148416D01*
X0022864Y0148309D01*
X0022770Y0148204D01*
X0022673Y0148102D01*
X0022573Y0148003D01*
X0022470Y0147906D01*
X0022365Y0147813D01*
X0022257Y0147722D01*
X0022146Y0147635D01*
X0022033Y0147551D01*
X0021918Y0147470D01*
X0021801Y0147392D01*
X0021681Y0147318D01*
X0021559Y0147247D01*
X0021436Y0147179D01*
X0021310Y0147115D01*
X0021183Y0147055D01*
X0021054Y0146998D01*
X0020924Y0146944D01*
X0020792Y0146895D01*
X0020658Y0146849D01*
X0020524Y0146807D01*
X0020388Y0146769D01*
X0020252Y0146734D01*
X0020114Y0146704D01*
X0019976Y0146677D01*
X0019837Y0146655D01*
X0019697Y0146636D01*
X0019557Y0146621D01*
X0019417Y0146610D01*
X0019276Y0146603D01*
X0019135Y0146600D01*
X0018994Y0146601D01*
X0018854Y0146606D01*
X0018713Y0146615D01*
X0018573Y0146628D01*
X0018433Y0146645D01*
X0018293Y0146665D01*
X0018155Y0146690D01*
X0018017Y0146719D01*
X0017880Y0146751D01*
X0017744Y0146787D01*
X0017609Y0146828D01*
X0017475Y0146872D01*
X0017342Y0146919D01*
X0017211Y0146971D01*
X0017081Y0147026D01*
X0016953Y0147084D01*
X0016827Y0147147D01*
X0016702Y0147212D01*
X0016580Y0147282D01*
X0016459Y0147354D01*
X0016340Y0147430D01*
X0016224Y0147510D01*
X0016110Y0147593D01*
X0015998Y0147678D01*
X0015889Y0147767D01*
X0015782Y0147859D01*
X0015678Y0147954D01*
X0015577Y0148052D01*
X0015478Y0148153D01*
X0015383Y0148256D01*
X0015290Y0148362D01*
X0015200Y0148471D01*
X0015114Y0148582D01*
X0015030Y0148695D01*
X0014950Y0148811D01*
X0014873Y0148929D01*
X0014800Y0149049D01*
X0014729Y0149172D01*
X0014663Y0149296D01*
X0014600Y0149422D01*
X0014540Y0149549D01*
X0014484Y0149678D01*
X0014432Y0149809D01*
X0014383Y0149941D01*
X0014338Y0150075D01*
X0014297Y0150210D01*
X0014260Y0150346D01*
X0014226Y0150482D01*
X0014197Y0150620D01*
X0014171Y0150759D01*
X0014150Y0150898D01*
X0014132Y0151038D01*
X0014118Y0151178D01*
X0014108Y0151318D01*
X0014102Y0151459D01*
X0014100Y0151600D01*
X0021600Y0201600D02*
X0021602Y0201741D01*
X0021608Y0201882D01*
X0021618Y0202022D01*
X0021632Y0202162D01*
X0021650Y0202302D01*
X0021671Y0202441D01*
X0021697Y0202580D01*
X0021726Y0202718D01*
X0021760Y0202854D01*
X0021797Y0202990D01*
X0021838Y0203125D01*
X0021883Y0203259D01*
X0021932Y0203391D01*
X0021984Y0203522D01*
X0022040Y0203651D01*
X0022100Y0203778D01*
X0022163Y0203904D01*
X0022229Y0204028D01*
X0022300Y0204151D01*
X0022373Y0204271D01*
X0022450Y0204389D01*
X0022530Y0204505D01*
X0022614Y0204618D01*
X0022700Y0204729D01*
X0022790Y0204838D01*
X0022883Y0204944D01*
X0022978Y0205047D01*
X0023077Y0205148D01*
X0023178Y0205246D01*
X0023282Y0205341D01*
X0023389Y0205433D01*
X0023498Y0205522D01*
X0023610Y0205607D01*
X0023724Y0205690D01*
X0023840Y0205770D01*
X0023959Y0205846D01*
X0024080Y0205918D01*
X0024202Y0205988D01*
X0024327Y0206053D01*
X0024453Y0206116D01*
X0024581Y0206174D01*
X0024711Y0206229D01*
X0024842Y0206281D01*
X0024975Y0206328D01*
X0025109Y0206372D01*
X0025244Y0206413D01*
X0025380Y0206449D01*
X0025517Y0206481D01*
X0025655Y0206510D01*
X0025793Y0206535D01*
X0025933Y0206555D01*
X0026073Y0206572D01*
X0026213Y0206585D01*
X0026354Y0206594D01*
X0026494Y0206599D01*
X0026635Y0206600D01*
X0026776Y0206597D01*
X0026917Y0206590D01*
X0027057Y0206579D01*
X0027197Y0206564D01*
X0027337Y0206545D01*
X0027476Y0206523D01*
X0027614Y0206496D01*
X0027752Y0206466D01*
X0027888Y0206431D01*
X0028024Y0206393D01*
X0028158Y0206351D01*
X0028292Y0206305D01*
X0028424Y0206256D01*
X0028554Y0206202D01*
X0028683Y0206145D01*
X0028810Y0206085D01*
X0028936Y0206021D01*
X0029059Y0205953D01*
X0029181Y0205882D01*
X0029301Y0205808D01*
X0029418Y0205730D01*
X0029533Y0205649D01*
X0029646Y0205565D01*
X0029757Y0205478D01*
X0029865Y0205387D01*
X0029970Y0205294D01*
X0030073Y0205197D01*
X0030173Y0205098D01*
X0030270Y0204996D01*
X0030364Y0204891D01*
X0030455Y0204784D01*
X0030543Y0204674D01*
X0030628Y0204562D01*
X0030710Y0204447D01*
X0030789Y0204330D01*
X0030864Y0204211D01*
X0030936Y0204090D01*
X0031004Y0203967D01*
X0031069Y0203842D01*
X0031131Y0203715D01*
X0031188Y0203586D01*
X0031243Y0203456D01*
X0031293Y0203325D01*
X0031340Y0203192D01*
X0031383Y0203058D01*
X0031422Y0202922D01*
X0031457Y0202786D01*
X0031489Y0202649D01*
X0031516Y0202511D01*
X0031540Y0202372D01*
X0031560Y0202232D01*
X0031576Y0202092D01*
X0031588Y0201952D01*
X0031596Y0201811D01*
X0031600Y0201670D01*
X0031600Y0201530D01*
X0031596Y0201389D01*
X0031588Y0201248D01*
X0031576Y0201108D01*
X0031560Y0200968D01*
X0031540Y0200828D01*
X0031516Y0200689D01*
X0031489Y0200551D01*
X0031457Y0200414D01*
X0031422Y0200278D01*
X0031383Y0200142D01*
X0031340Y0200008D01*
X0031293Y0199875D01*
X0031243Y0199744D01*
X0031188Y0199614D01*
X0031131Y0199485D01*
X0031069Y0199358D01*
X0031004Y0199233D01*
X0030936Y0199110D01*
X0030864Y0198989D01*
X0030789Y0198870D01*
X0030710Y0198753D01*
X0030628Y0198638D01*
X0030543Y0198526D01*
X0030455Y0198416D01*
X0030364Y0198309D01*
X0030270Y0198204D01*
X0030173Y0198102D01*
X0030073Y0198003D01*
X0029970Y0197906D01*
X0029865Y0197813D01*
X0029757Y0197722D01*
X0029646Y0197635D01*
X0029533Y0197551D01*
X0029418Y0197470D01*
X0029301Y0197392D01*
X0029181Y0197318D01*
X0029059Y0197247D01*
X0028936Y0197179D01*
X0028810Y0197115D01*
X0028683Y0197055D01*
X0028554Y0196998D01*
X0028424Y0196944D01*
X0028292Y0196895D01*
X0028158Y0196849D01*
X0028024Y0196807D01*
X0027888Y0196769D01*
X0027752Y0196734D01*
X0027614Y0196704D01*
X0027476Y0196677D01*
X0027337Y0196655D01*
X0027197Y0196636D01*
X0027057Y0196621D01*
X0026917Y0196610D01*
X0026776Y0196603D01*
X0026635Y0196600D01*
X0026494Y0196601D01*
X0026354Y0196606D01*
X0026213Y0196615D01*
X0026073Y0196628D01*
X0025933Y0196645D01*
X0025793Y0196665D01*
X0025655Y0196690D01*
X0025517Y0196719D01*
X0025380Y0196751D01*
X0025244Y0196787D01*
X0025109Y0196828D01*
X0024975Y0196872D01*
X0024842Y0196919D01*
X0024711Y0196971D01*
X0024581Y0197026D01*
X0024453Y0197084D01*
X0024327Y0197147D01*
X0024202Y0197212D01*
X0024080Y0197282D01*
X0023959Y0197354D01*
X0023840Y0197430D01*
X0023724Y0197510D01*
X0023610Y0197593D01*
X0023498Y0197678D01*
X0023389Y0197767D01*
X0023282Y0197859D01*
X0023178Y0197954D01*
X0023077Y0198052D01*
X0022978Y0198153D01*
X0022883Y0198256D01*
X0022790Y0198362D01*
X0022700Y0198471D01*
X0022614Y0198582D01*
X0022530Y0198695D01*
X0022450Y0198811D01*
X0022373Y0198929D01*
X0022300Y0199049D01*
X0022229Y0199172D01*
X0022163Y0199296D01*
X0022100Y0199422D01*
X0022040Y0199549D01*
X0021984Y0199678D01*
X0021932Y0199809D01*
X0021883Y0199941D01*
X0021838Y0200075D01*
X0021797Y0200210D01*
X0021760Y0200346D01*
X0021726Y0200482D01*
X0021697Y0200620D01*
X0021671Y0200759D01*
X0021650Y0200898D01*
X0021632Y0201038D01*
X0021618Y0201178D01*
X0021608Y0201318D01*
X0021602Y0201459D01*
X0021600Y0201600D01*
X0021600Y0221600D02*
X0021602Y0221741D01*
X0021608Y0221882D01*
X0021618Y0222022D01*
X0021632Y0222162D01*
X0021650Y0222302D01*
X0021671Y0222441D01*
X0021697Y0222580D01*
X0021726Y0222718D01*
X0021760Y0222854D01*
X0021797Y0222990D01*
X0021838Y0223125D01*
X0021883Y0223259D01*
X0021932Y0223391D01*
X0021984Y0223522D01*
X0022040Y0223651D01*
X0022100Y0223778D01*
X0022163Y0223904D01*
X0022229Y0224028D01*
X0022300Y0224151D01*
X0022373Y0224271D01*
X0022450Y0224389D01*
X0022530Y0224505D01*
X0022614Y0224618D01*
X0022700Y0224729D01*
X0022790Y0224838D01*
X0022883Y0224944D01*
X0022978Y0225047D01*
X0023077Y0225148D01*
X0023178Y0225246D01*
X0023282Y0225341D01*
X0023389Y0225433D01*
X0023498Y0225522D01*
X0023610Y0225607D01*
X0023724Y0225690D01*
X0023840Y0225770D01*
X0023959Y0225846D01*
X0024080Y0225918D01*
X0024202Y0225988D01*
X0024327Y0226053D01*
X0024453Y0226116D01*
X0024581Y0226174D01*
X0024711Y0226229D01*
X0024842Y0226281D01*
X0024975Y0226328D01*
X0025109Y0226372D01*
X0025244Y0226413D01*
X0025380Y0226449D01*
X0025517Y0226481D01*
X0025655Y0226510D01*
X0025793Y0226535D01*
X0025933Y0226555D01*
X0026073Y0226572D01*
X0026213Y0226585D01*
X0026354Y0226594D01*
X0026494Y0226599D01*
X0026635Y0226600D01*
X0026776Y0226597D01*
X0026917Y0226590D01*
X0027057Y0226579D01*
X0027197Y0226564D01*
X0027337Y0226545D01*
X0027476Y0226523D01*
X0027614Y0226496D01*
X0027752Y0226466D01*
X0027888Y0226431D01*
X0028024Y0226393D01*
X0028158Y0226351D01*
X0028292Y0226305D01*
X0028424Y0226256D01*
X0028554Y0226202D01*
X0028683Y0226145D01*
X0028810Y0226085D01*
X0028936Y0226021D01*
X0029059Y0225953D01*
X0029181Y0225882D01*
X0029301Y0225808D01*
X0029418Y0225730D01*
X0029533Y0225649D01*
X0029646Y0225565D01*
X0029757Y0225478D01*
X0029865Y0225387D01*
X0029970Y0225294D01*
X0030073Y0225197D01*
X0030173Y0225098D01*
X0030270Y0224996D01*
X0030364Y0224891D01*
X0030455Y0224784D01*
X0030543Y0224674D01*
X0030628Y0224562D01*
X0030710Y0224447D01*
X0030789Y0224330D01*
X0030864Y0224211D01*
X0030936Y0224090D01*
X0031004Y0223967D01*
X0031069Y0223842D01*
X0031131Y0223715D01*
X0031188Y0223586D01*
X0031243Y0223456D01*
X0031293Y0223325D01*
X0031340Y0223192D01*
X0031383Y0223058D01*
X0031422Y0222922D01*
X0031457Y0222786D01*
X0031489Y0222649D01*
X0031516Y0222511D01*
X0031540Y0222372D01*
X0031560Y0222232D01*
X0031576Y0222092D01*
X0031588Y0221952D01*
X0031596Y0221811D01*
X0031600Y0221670D01*
X0031600Y0221530D01*
X0031596Y0221389D01*
X0031588Y0221248D01*
X0031576Y0221108D01*
X0031560Y0220968D01*
X0031540Y0220828D01*
X0031516Y0220689D01*
X0031489Y0220551D01*
X0031457Y0220414D01*
X0031422Y0220278D01*
X0031383Y0220142D01*
X0031340Y0220008D01*
X0031293Y0219875D01*
X0031243Y0219744D01*
X0031188Y0219614D01*
X0031131Y0219485D01*
X0031069Y0219358D01*
X0031004Y0219233D01*
X0030936Y0219110D01*
X0030864Y0218989D01*
X0030789Y0218870D01*
X0030710Y0218753D01*
X0030628Y0218638D01*
X0030543Y0218526D01*
X0030455Y0218416D01*
X0030364Y0218309D01*
X0030270Y0218204D01*
X0030173Y0218102D01*
X0030073Y0218003D01*
X0029970Y0217906D01*
X0029865Y0217813D01*
X0029757Y0217722D01*
X0029646Y0217635D01*
X0029533Y0217551D01*
X0029418Y0217470D01*
X0029301Y0217392D01*
X0029181Y0217318D01*
X0029059Y0217247D01*
X0028936Y0217179D01*
X0028810Y0217115D01*
X0028683Y0217055D01*
X0028554Y0216998D01*
X0028424Y0216944D01*
X0028292Y0216895D01*
X0028158Y0216849D01*
X0028024Y0216807D01*
X0027888Y0216769D01*
X0027752Y0216734D01*
X0027614Y0216704D01*
X0027476Y0216677D01*
X0027337Y0216655D01*
X0027197Y0216636D01*
X0027057Y0216621D01*
X0026917Y0216610D01*
X0026776Y0216603D01*
X0026635Y0216600D01*
X0026494Y0216601D01*
X0026354Y0216606D01*
X0026213Y0216615D01*
X0026073Y0216628D01*
X0025933Y0216645D01*
X0025793Y0216665D01*
X0025655Y0216690D01*
X0025517Y0216719D01*
X0025380Y0216751D01*
X0025244Y0216787D01*
X0025109Y0216828D01*
X0024975Y0216872D01*
X0024842Y0216919D01*
X0024711Y0216971D01*
X0024581Y0217026D01*
X0024453Y0217084D01*
X0024327Y0217147D01*
X0024202Y0217212D01*
X0024080Y0217282D01*
X0023959Y0217354D01*
X0023840Y0217430D01*
X0023724Y0217510D01*
X0023610Y0217593D01*
X0023498Y0217678D01*
X0023389Y0217767D01*
X0023282Y0217859D01*
X0023178Y0217954D01*
X0023077Y0218052D01*
X0022978Y0218153D01*
X0022883Y0218256D01*
X0022790Y0218362D01*
X0022700Y0218471D01*
X0022614Y0218582D01*
X0022530Y0218695D01*
X0022450Y0218811D01*
X0022373Y0218929D01*
X0022300Y0219049D01*
X0022229Y0219172D01*
X0022163Y0219296D01*
X0022100Y0219422D01*
X0022040Y0219549D01*
X0021984Y0219678D01*
X0021932Y0219809D01*
X0021883Y0219941D01*
X0021838Y0220075D01*
X0021797Y0220210D01*
X0021760Y0220346D01*
X0021726Y0220482D01*
X0021697Y0220620D01*
X0021671Y0220759D01*
X0021650Y0220898D01*
X0021632Y0221038D01*
X0021618Y0221178D01*
X0021608Y0221318D01*
X0021602Y0221459D01*
X0021600Y0221600D01*
X0071600Y0271600D02*
X0071602Y0271741D01*
X0071608Y0271882D01*
X0071618Y0272022D01*
X0071632Y0272162D01*
X0071650Y0272302D01*
X0071671Y0272441D01*
X0071697Y0272580D01*
X0071726Y0272718D01*
X0071760Y0272854D01*
X0071797Y0272990D01*
X0071838Y0273125D01*
X0071883Y0273259D01*
X0071932Y0273391D01*
X0071984Y0273522D01*
X0072040Y0273651D01*
X0072100Y0273778D01*
X0072163Y0273904D01*
X0072229Y0274028D01*
X0072300Y0274151D01*
X0072373Y0274271D01*
X0072450Y0274389D01*
X0072530Y0274505D01*
X0072614Y0274618D01*
X0072700Y0274729D01*
X0072790Y0274838D01*
X0072883Y0274944D01*
X0072978Y0275047D01*
X0073077Y0275148D01*
X0073178Y0275246D01*
X0073282Y0275341D01*
X0073389Y0275433D01*
X0073498Y0275522D01*
X0073610Y0275607D01*
X0073724Y0275690D01*
X0073840Y0275770D01*
X0073959Y0275846D01*
X0074080Y0275918D01*
X0074202Y0275988D01*
X0074327Y0276053D01*
X0074453Y0276116D01*
X0074581Y0276174D01*
X0074711Y0276229D01*
X0074842Y0276281D01*
X0074975Y0276328D01*
X0075109Y0276372D01*
X0075244Y0276413D01*
X0075380Y0276449D01*
X0075517Y0276481D01*
X0075655Y0276510D01*
X0075793Y0276535D01*
X0075933Y0276555D01*
X0076073Y0276572D01*
X0076213Y0276585D01*
X0076354Y0276594D01*
X0076494Y0276599D01*
X0076635Y0276600D01*
X0076776Y0276597D01*
X0076917Y0276590D01*
X0077057Y0276579D01*
X0077197Y0276564D01*
X0077337Y0276545D01*
X0077476Y0276523D01*
X0077614Y0276496D01*
X0077752Y0276466D01*
X0077888Y0276431D01*
X0078024Y0276393D01*
X0078158Y0276351D01*
X0078292Y0276305D01*
X0078424Y0276256D01*
X0078554Y0276202D01*
X0078683Y0276145D01*
X0078810Y0276085D01*
X0078936Y0276021D01*
X0079059Y0275953D01*
X0079181Y0275882D01*
X0079301Y0275808D01*
X0079418Y0275730D01*
X0079533Y0275649D01*
X0079646Y0275565D01*
X0079757Y0275478D01*
X0079865Y0275387D01*
X0079970Y0275294D01*
X0080073Y0275197D01*
X0080173Y0275098D01*
X0080270Y0274996D01*
X0080364Y0274891D01*
X0080455Y0274784D01*
X0080543Y0274674D01*
X0080628Y0274562D01*
X0080710Y0274447D01*
X0080789Y0274330D01*
X0080864Y0274211D01*
X0080936Y0274090D01*
X0081004Y0273967D01*
X0081069Y0273842D01*
X0081131Y0273715D01*
X0081188Y0273586D01*
X0081243Y0273456D01*
X0081293Y0273325D01*
X0081340Y0273192D01*
X0081383Y0273058D01*
X0081422Y0272922D01*
X0081457Y0272786D01*
X0081489Y0272649D01*
X0081516Y0272511D01*
X0081540Y0272372D01*
X0081560Y0272232D01*
X0081576Y0272092D01*
X0081588Y0271952D01*
X0081596Y0271811D01*
X0081600Y0271670D01*
X0081600Y0271530D01*
X0081596Y0271389D01*
X0081588Y0271248D01*
X0081576Y0271108D01*
X0081560Y0270968D01*
X0081540Y0270828D01*
X0081516Y0270689D01*
X0081489Y0270551D01*
X0081457Y0270414D01*
X0081422Y0270278D01*
X0081383Y0270142D01*
X0081340Y0270008D01*
X0081293Y0269875D01*
X0081243Y0269744D01*
X0081188Y0269614D01*
X0081131Y0269485D01*
X0081069Y0269358D01*
X0081004Y0269233D01*
X0080936Y0269110D01*
X0080864Y0268989D01*
X0080789Y0268870D01*
X0080710Y0268753D01*
X0080628Y0268638D01*
X0080543Y0268526D01*
X0080455Y0268416D01*
X0080364Y0268309D01*
X0080270Y0268204D01*
X0080173Y0268102D01*
X0080073Y0268003D01*
X0079970Y0267906D01*
X0079865Y0267813D01*
X0079757Y0267722D01*
X0079646Y0267635D01*
X0079533Y0267551D01*
X0079418Y0267470D01*
X0079301Y0267392D01*
X0079181Y0267318D01*
X0079059Y0267247D01*
X0078936Y0267179D01*
X0078810Y0267115D01*
X0078683Y0267055D01*
X0078554Y0266998D01*
X0078424Y0266944D01*
X0078292Y0266895D01*
X0078158Y0266849D01*
X0078024Y0266807D01*
X0077888Y0266769D01*
X0077752Y0266734D01*
X0077614Y0266704D01*
X0077476Y0266677D01*
X0077337Y0266655D01*
X0077197Y0266636D01*
X0077057Y0266621D01*
X0076917Y0266610D01*
X0076776Y0266603D01*
X0076635Y0266600D01*
X0076494Y0266601D01*
X0076354Y0266606D01*
X0076213Y0266615D01*
X0076073Y0266628D01*
X0075933Y0266645D01*
X0075793Y0266665D01*
X0075655Y0266690D01*
X0075517Y0266719D01*
X0075380Y0266751D01*
X0075244Y0266787D01*
X0075109Y0266828D01*
X0074975Y0266872D01*
X0074842Y0266919D01*
X0074711Y0266971D01*
X0074581Y0267026D01*
X0074453Y0267084D01*
X0074327Y0267147D01*
X0074202Y0267212D01*
X0074080Y0267282D01*
X0073959Y0267354D01*
X0073840Y0267430D01*
X0073724Y0267510D01*
X0073610Y0267593D01*
X0073498Y0267678D01*
X0073389Y0267767D01*
X0073282Y0267859D01*
X0073178Y0267954D01*
X0073077Y0268052D01*
X0072978Y0268153D01*
X0072883Y0268256D01*
X0072790Y0268362D01*
X0072700Y0268471D01*
X0072614Y0268582D01*
X0072530Y0268695D01*
X0072450Y0268811D01*
X0072373Y0268929D01*
X0072300Y0269049D01*
X0072229Y0269172D01*
X0072163Y0269296D01*
X0072100Y0269422D01*
X0072040Y0269549D01*
X0071984Y0269678D01*
X0071932Y0269809D01*
X0071883Y0269941D01*
X0071838Y0270075D01*
X0071797Y0270210D01*
X0071760Y0270346D01*
X0071726Y0270482D01*
X0071697Y0270620D01*
X0071671Y0270759D01*
X0071650Y0270898D01*
X0071632Y0271038D01*
X0071618Y0271178D01*
X0071608Y0271318D01*
X0071602Y0271459D01*
X0071600Y0271600D01*
X0091600Y0271600D02*
X0091602Y0271741D01*
X0091608Y0271882D01*
X0091618Y0272022D01*
X0091632Y0272162D01*
X0091650Y0272302D01*
X0091671Y0272441D01*
X0091697Y0272580D01*
X0091726Y0272718D01*
X0091760Y0272854D01*
X0091797Y0272990D01*
X0091838Y0273125D01*
X0091883Y0273259D01*
X0091932Y0273391D01*
X0091984Y0273522D01*
X0092040Y0273651D01*
X0092100Y0273778D01*
X0092163Y0273904D01*
X0092229Y0274028D01*
X0092300Y0274151D01*
X0092373Y0274271D01*
X0092450Y0274389D01*
X0092530Y0274505D01*
X0092614Y0274618D01*
X0092700Y0274729D01*
X0092790Y0274838D01*
X0092883Y0274944D01*
X0092978Y0275047D01*
X0093077Y0275148D01*
X0093178Y0275246D01*
X0093282Y0275341D01*
X0093389Y0275433D01*
X0093498Y0275522D01*
X0093610Y0275607D01*
X0093724Y0275690D01*
X0093840Y0275770D01*
X0093959Y0275846D01*
X0094080Y0275918D01*
X0094202Y0275988D01*
X0094327Y0276053D01*
X0094453Y0276116D01*
X0094581Y0276174D01*
X0094711Y0276229D01*
X0094842Y0276281D01*
X0094975Y0276328D01*
X0095109Y0276372D01*
X0095244Y0276413D01*
X0095380Y0276449D01*
X0095517Y0276481D01*
X0095655Y0276510D01*
X0095793Y0276535D01*
X0095933Y0276555D01*
X0096073Y0276572D01*
X0096213Y0276585D01*
X0096354Y0276594D01*
X0096494Y0276599D01*
X0096635Y0276600D01*
X0096776Y0276597D01*
X0096917Y0276590D01*
X0097057Y0276579D01*
X0097197Y0276564D01*
X0097337Y0276545D01*
X0097476Y0276523D01*
X0097614Y0276496D01*
X0097752Y0276466D01*
X0097888Y0276431D01*
X0098024Y0276393D01*
X0098158Y0276351D01*
X0098292Y0276305D01*
X0098424Y0276256D01*
X0098554Y0276202D01*
X0098683Y0276145D01*
X0098810Y0276085D01*
X0098936Y0276021D01*
X0099059Y0275953D01*
X0099181Y0275882D01*
X0099301Y0275808D01*
X0099418Y0275730D01*
X0099533Y0275649D01*
X0099646Y0275565D01*
X0099757Y0275478D01*
X0099865Y0275387D01*
X0099970Y0275294D01*
X0100073Y0275197D01*
X0100173Y0275098D01*
X0100270Y0274996D01*
X0100364Y0274891D01*
X0100455Y0274784D01*
X0100543Y0274674D01*
X0100628Y0274562D01*
X0100710Y0274447D01*
X0100789Y0274330D01*
X0100864Y0274211D01*
X0100936Y0274090D01*
X0101004Y0273967D01*
X0101069Y0273842D01*
X0101131Y0273715D01*
X0101188Y0273586D01*
X0101243Y0273456D01*
X0101293Y0273325D01*
X0101340Y0273192D01*
X0101383Y0273058D01*
X0101422Y0272922D01*
X0101457Y0272786D01*
X0101489Y0272649D01*
X0101516Y0272511D01*
X0101540Y0272372D01*
X0101560Y0272232D01*
X0101576Y0272092D01*
X0101588Y0271952D01*
X0101596Y0271811D01*
X0101600Y0271670D01*
X0101600Y0271530D01*
X0101596Y0271389D01*
X0101588Y0271248D01*
X0101576Y0271108D01*
X0101560Y0270968D01*
X0101540Y0270828D01*
X0101516Y0270689D01*
X0101489Y0270551D01*
X0101457Y0270414D01*
X0101422Y0270278D01*
X0101383Y0270142D01*
X0101340Y0270008D01*
X0101293Y0269875D01*
X0101243Y0269744D01*
X0101188Y0269614D01*
X0101131Y0269485D01*
X0101069Y0269358D01*
X0101004Y0269233D01*
X0100936Y0269110D01*
X0100864Y0268989D01*
X0100789Y0268870D01*
X0100710Y0268753D01*
X0100628Y0268638D01*
X0100543Y0268526D01*
X0100455Y0268416D01*
X0100364Y0268309D01*
X0100270Y0268204D01*
X0100173Y0268102D01*
X0100073Y0268003D01*
X0099970Y0267906D01*
X0099865Y0267813D01*
X0099757Y0267722D01*
X0099646Y0267635D01*
X0099533Y0267551D01*
X0099418Y0267470D01*
X0099301Y0267392D01*
X0099181Y0267318D01*
X0099059Y0267247D01*
X0098936Y0267179D01*
X0098810Y0267115D01*
X0098683Y0267055D01*
X0098554Y0266998D01*
X0098424Y0266944D01*
X0098292Y0266895D01*
X0098158Y0266849D01*
X0098024Y0266807D01*
X0097888Y0266769D01*
X0097752Y0266734D01*
X0097614Y0266704D01*
X0097476Y0266677D01*
X0097337Y0266655D01*
X0097197Y0266636D01*
X0097057Y0266621D01*
X0096917Y0266610D01*
X0096776Y0266603D01*
X0096635Y0266600D01*
X0096494Y0266601D01*
X0096354Y0266606D01*
X0096213Y0266615D01*
X0096073Y0266628D01*
X0095933Y0266645D01*
X0095793Y0266665D01*
X0095655Y0266690D01*
X0095517Y0266719D01*
X0095380Y0266751D01*
X0095244Y0266787D01*
X0095109Y0266828D01*
X0094975Y0266872D01*
X0094842Y0266919D01*
X0094711Y0266971D01*
X0094581Y0267026D01*
X0094453Y0267084D01*
X0094327Y0267147D01*
X0094202Y0267212D01*
X0094080Y0267282D01*
X0093959Y0267354D01*
X0093840Y0267430D01*
X0093724Y0267510D01*
X0093610Y0267593D01*
X0093498Y0267678D01*
X0093389Y0267767D01*
X0093282Y0267859D01*
X0093178Y0267954D01*
X0093077Y0268052D01*
X0092978Y0268153D01*
X0092883Y0268256D01*
X0092790Y0268362D01*
X0092700Y0268471D01*
X0092614Y0268582D01*
X0092530Y0268695D01*
X0092450Y0268811D01*
X0092373Y0268929D01*
X0092300Y0269049D01*
X0092229Y0269172D01*
X0092163Y0269296D01*
X0092100Y0269422D01*
X0092040Y0269549D01*
X0091984Y0269678D01*
X0091932Y0269809D01*
X0091883Y0269941D01*
X0091838Y0270075D01*
X0091797Y0270210D01*
X0091760Y0270346D01*
X0091726Y0270482D01*
X0091697Y0270620D01*
X0091671Y0270759D01*
X0091650Y0270898D01*
X0091632Y0271038D01*
X0091618Y0271178D01*
X0091608Y0271318D01*
X0091602Y0271459D01*
X0091600Y0271600D01*
X0141600Y0221600D02*
X0141602Y0221741D01*
X0141608Y0221882D01*
X0141618Y0222022D01*
X0141632Y0222162D01*
X0141650Y0222302D01*
X0141671Y0222441D01*
X0141697Y0222580D01*
X0141726Y0222718D01*
X0141760Y0222854D01*
X0141797Y0222990D01*
X0141838Y0223125D01*
X0141883Y0223259D01*
X0141932Y0223391D01*
X0141984Y0223522D01*
X0142040Y0223651D01*
X0142100Y0223778D01*
X0142163Y0223904D01*
X0142229Y0224028D01*
X0142300Y0224151D01*
X0142373Y0224271D01*
X0142450Y0224389D01*
X0142530Y0224505D01*
X0142614Y0224618D01*
X0142700Y0224729D01*
X0142790Y0224838D01*
X0142883Y0224944D01*
X0142978Y0225047D01*
X0143077Y0225148D01*
X0143178Y0225246D01*
X0143282Y0225341D01*
X0143389Y0225433D01*
X0143498Y0225522D01*
X0143610Y0225607D01*
X0143724Y0225690D01*
X0143840Y0225770D01*
X0143959Y0225846D01*
X0144080Y0225918D01*
X0144202Y0225988D01*
X0144327Y0226053D01*
X0144453Y0226116D01*
X0144581Y0226174D01*
X0144711Y0226229D01*
X0144842Y0226281D01*
X0144975Y0226328D01*
X0145109Y0226372D01*
X0145244Y0226413D01*
X0145380Y0226449D01*
X0145517Y0226481D01*
X0145655Y0226510D01*
X0145793Y0226535D01*
X0145933Y0226555D01*
X0146073Y0226572D01*
X0146213Y0226585D01*
X0146354Y0226594D01*
X0146494Y0226599D01*
X0146635Y0226600D01*
X0146776Y0226597D01*
X0146917Y0226590D01*
X0147057Y0226579D01*
X0147197Y0226564D01*
X0147337Y0226545D01*
X0147476Y0226523D01*
X0147614Y0226496D01*
X0147752Y0226466D01*
X0147888Y0226431D01*
X0148024Y0226393D01*
X0148158Y0226351D01*
X0148292Y0226305D01*
X0148424Y0226256D01*
X0148554Y0226202D01*
X0148683Y0226145D01*
X0148810Y0226085D01*
X0148936Y0226021D01*
X0149059Y0225953D01*
X0149181Y0225882D01*
X0149301Y0225808D01*
X0149418Y0225730D01*
X0149533Y0225649D01*
X0149646Y0225565D01*
X0149757Y0225478D01*
X0149865Y0225387D01*
X0149970Y0225294D01*
X0150073Y0225197D01*
X0150173Y0225098D01*
X0150270Y0224996D01*
X0150364Y0224891D01*
X0150455Y0224784D01*
X0150543Y0224674D01*
X0150628Y0224562D01*
X0150710Y0224447D01*
X0150789Y0224330D01*
X0150864Y0224211D01*
X0150936Y0224090D01*
X0151004Y0223967D01*
X0151069Y0223842D01*
X0151131Y0223715D01*
X0151188Y0223586D01*
X0151243Y0223456D01*
X0151293Y0223325D01*
X0151340Y0223192D01*
X0151383Y0223058D01*
X0151422Y0222922D01*
X0151457Y0222786D01*
X0151489Y0222649D01*
X0151516Y0222511D01*
X0151540Y0222372D01*
X0151560Y0222232D01*
X0151576Y0222092D01*
X0151588Y0221952D01*
X0151596Y0221811D01*
X0151600Y0221670D01*
X0151600Y0221530D01*
X0151596Y0221389D01*
X0151588Y0221248D01*
X0151576Y0221108D01*
X0151560Y0220968D01*
X0151540Y0220828D01*
X0151516Y0220689D01*
X0151489Y0220551D01*
X0151457Y0220414D01*
X0151422Y0220278D01*
X0151383Y0220142D01*
X0151340Y0220008D01*
X0151293Y0219875D01*
X0151243Y0219744D01*
X0151188Y0219614D01*
X0151131Y0219485D01*
X0151069Y0219358D01*
X0151004Y0219233D01*
X0150936Y0219110D01*
X0150864Y0218989D01*
X0150789Y0218870D01*
X0150710Y0218753D01*
X0150628Y0218638D01*
X0150543Y0218526D01*
X0150455Y0218416D01*
X0150364Y0218309D01*
X0150270Y0218204D01*
X0150173Y0218102D01*
X0150073Y0218003D01*
X0149970Y0217906D01*
X0149865Y0217813D01*
X0149757Y0217722D01*
X0149646Y0217635D01*
X0149533Y0217551D01*
X0149418Y0217470D01*
X0149301Y0217392D01*
X0149181Y0217318D01*
X0149059Y0217247D01*
X0148936Y0217179D01*
X0148810Y0217115D01*
X0148683Y0217055D01*
X0148554Y0216998D01*
X0148424Y0216944D01*
X0148292Y0216895D01*
X0148158Y0216849D01*
X0148024Y0216807D01*
X0147888Y0216769D01*
X0147752Y0216734D01*
X0147614Y0216704D01*
X0147476Y0216677D01*
X0147337Y0216655D01*
X0147197Y0216636D01*
X0147057Y0216621D01*
X0146917Y0216610D01*
X0146776Y0216603D01*
X0146635Y0216600D01*
X0146494Y0216601D01*
X0146354Y0216606D01*
X0146213Y0216615D01*
X0146073Y0216628D01*
X0145933Y0216645D01*
X0145793Y0216665D01*
X0145655Y0216690D01*
X0145517Y0216719D01*
X0145380Y0216751D01*
X0145244Y0216787D01*
X0145109Y0216828D01*
X0144975Y0216872D01*
X0144842Y0216919D01*
X0144711Y0216971D01*
X0144581Y0217026D01*
X0144453Y0217084D01*
X0144327Y0217147D01*
X0144202Y0217212D01*
X0144080Y0217282D01*
X0143959Y0217354D01*
X0143840Y0217430D01*
X0143724Y0217510D01*
X0143610Y0217593D01*
X0143498Y0217678D01*
X0143389Y0217767D01*
X0143282Y0217859D01*
X0143178Y0217954D01*
X0143077Y0218052D01*
X0142978Y0218153D01*
X0142883Y0218256D01*
X0142790Y0218362D01*
X0142700Y0218471D01*
X0142614Y0218582D01*
X0142530Y0218695D01*
X0142450Y0218811D01*
X0142373Y0218929D01*
X0142300Y0219049D01*
X0142229Y0219172D01*
X0142163Y0219296D01*
X0142100Y0219422D01*
X0142040Y0219549D01*
X0141984Y0219678D01*
X0141932Y0219809D01*
X0141883Y0219941D01*
X0141838Y0220075D01*
X0141797Y0220210D01*
X0141760Y0220346D01*
X0141726Y0220482D01*
X0141697Y0220620D01*
X0141671Y0220759D01*
X0141650Y0220898D01*
X0141632Y0221038D01*
X0141618Y0221178D01*
X0141608Y0221318D01*
X0141602Y0221459D01*
X0141600Y0221600D01*
X0141600Y0201600D02*
X0141602Y0201741D01*
X0141608Y0201882D01*
X0141618Y0202022D01*
X0141632Y0202162D01*
X0141650Y0202302D01*
X0141671Y0202441D01*
X0141697Y0202580D01*
X0141726Y0202718D01*
X0141760Y0202854D01*
X0141797Y0202990D01*
X0141838Y0203125D01*
X0141883Y0203259D01*
X0141932Y0203391D01*
X0141984Y0203522D01*
X0142040Y0203651D01*
X0142100Y0203778D01*
X0142163Y0203904D01*
X0142229Y0204028D01*
X0142300Y0204151D01*
X0142373Y0204271D01*
X0142450Y0204389D01*
X0142530Y0204505D01*
X0142614Y0204618D01*
X0142700Y0204729D01*
X0142790Y0204838D01*
X0142883Y0204944D01*
X0142978Y0205047D01*
X0143077Y0205148D01*
X0143178Y0205246D01*
X0143282Y0205341D01*
X0143389Y0205433D01*
X0143498Y0205522D01*
X0143610Y0205607D01*
X0143724Y0205690D01*
X0143840Y0205770D01*
X0143959Y0205846D01*
X0144080Y0205918D01*
X0144202Y0205988D01*
X0144327Y0206053D01*
X0144453Y0206116D01*
X0144581Y0206174D01*
X0144711Y0206229D01*
X0144842Y0206281D01*
X0144975Y0206328D01*
X0145109Y0206372D01*
X0145244Y0206413D01*
X0145380Y0206449D01*
X0145517Y0206481D01*
X0145655Y0206510D01*
X0145793Y0206535D01*
X0145933Y0206555D01*
X0146073Y0206572D01*
X0146213Y0206585D01*
X0146354Y0206594D01*
X0146494Y0206599D01*
X0146635Y0206600D01*
X0146776Y0206597D01*
X0146917Y0206590D01*
X0147057Y0206579D01*
X0147197Y0206564D01*
X0147337Y0206545D01*
X0147476Y0206523D01*
X0147614Y0206496D01*
X0147752Y0206466D01*
X0147888Y0206431D01*
X0148024Y0206393D01*
X0148158Y0206351D01*
X0148292Y0206305D01*
X0148424Y0206256D01*
X0148554Y0206202D01*
X0148683Y0206145D01*
X0148810Y0206085D01*
X0148936Y0206021D01*
X0149059Y0205953D01*
X0149181Y0205882D01*
X0149301Y0205808D01*
X0149418Y0205730D01*
X0149533Y0205649D01*
X0149646Y0205565D01*
X0149757Y0205478D01*
X0149865Y0205387D01*
X0149970Y0205294D01*
X0150073Y0205197D01*
X0150173Y0205098D01*
X0150270Y0204996D01*
X0150364Y0204891D01*
X0150455Y0204784D01*
X0150543Y0204674D01*
X0150628Y0204562D01*
X0150710Y0204447D01*
X0150789Y0204330D01*
X0150864Y0204211D01*
X0150936Y0204090D01*
X0151004Y0203967D01*
X0151069Y0203842D01*
X0151131Y0203715D01*
X0151188Y0203586D01*
X0151243Y0203456D01*
X0151293Y0203325D01*
X0151340Y0203192D01*
X0151383Y0203058D01*
X0151422Y0202922D01*
X0151457Y0202786D01*
X0151489Y0202649D01*
X0151516Y0202511D01*
X0151540Y0202372D01*
X0151560Y0202232D01*
X0151576Y0202092D01*
X0151588Y0201952D01*
X0151596Y0201811D01*
X0151600Y0201670D01*
X0151600Y0201530D01*
X0151596Y0201389D01*
X0151588Y0201248D01*
X0151576Y0201108D01*
X0151560Y0200968D01*
X0151540Y0200828D01*
X0151516Y0200689D01*
X0151489Y0200551D01*
X0151457Y0200414D01*
X0151422Y0200278D01*
X0151383Y0200142D01*
X0151340Y0200008D01*
X0151293Y0199875D01*
X0151243Y0199744D01*
X0151188Y0199614D01*
X0151131Y0199485D01*
X0151069Y0199358D01*
X0151004Y0199233D01*
X0150936Y0199110D01*
X0150864Y0198989D01*
X0150789Y0198870D01*
X0150710Y0198753D01*
X0150628Y0198638D01*
X0150543Y0198526D01*
X0150455Y0198416D01*
X0150364Y0198309D01*
X0150270Y0198204D01*
X0150173Y0198102D01*
X0150073Y0198003D01*
X0149970Y0197906D01*
X0149865Y0197813D01*
X0149757Y0197722D01*
X0149646Y0197635D01*
X0149533Y0197551D01*
X0149418Y0197470D01*
X0149301Y0197392D01*
X0149181Y0197318D01*
X0149059Y0197247D01*
X0148936Y0197179D01*
X0148810Y0197115D01*
X0148683Y0197055D01*
X0148554Y0196998D01*
X0148424Y0196944D01*
X0148292Y0196895D01*
X0148158Y0196849D01*
X0148024Y0196807D01*
X0147888Y0196769D01*
X0147752Y0196734D01*
X0147614Y0196704D01*
X0147476Y0196677D01*
X0147337Y0196655D01*
X0147197Y0196636D01*
X0147057Y0196621D01*
X0146917Y0196610D01*
X0146776Y0196603D01*
X0146635Y0196600D01*
X0146494Y0196601D01*
X0146354Y0196606D01*
X0146213Y0196615D01*
X0146073Y0196628D01*
X0145933Y0196645D01*
X0145793Y0196665D01*
X0145655Y0196690D01*
X0145517Y0196719D01*
X0145380Y0196751D01*
X0145244Y0196787D01*
X0145109Y0196828D01*
X0144975Y0196872D01*
X0144842Y0196919D01*
X0144711Y0196971D01*
X0144581Y0197026D01*
X0144453Y0197084D01*
X0144327Y0197147D01*
X0144202Y0197212D01*
X0144080Y0197282D01*
X0143959Y0197354D01*
X0143840Y0197430D01*
X0143724Y0197510D01*
X0143610Y0197593D01*
X0143498Y0197678D01*
X0143389Y0197767D01*
X0143282Y0197859D01*
X0143178Y0197954D01*
X0143077Y0198052D01*
X0142978Y0198153D01*
X0142883Y0198256D01*
X0142790Y0198362D01*
X0142700Y0198471D01*
X0142614Y0198582D01*
X0142530Y0198695D01*
X0142450Y0198811D01*
X0142373Y0198929D01*
X0142300Y0199049D01*
X0142229Y0199172D01*
X0142163Y0199296D01*
X0142100Y0199422D01*
X0142040Y0199549D01*
X0141984Y0199678D01*
X0141932Y0199809D01*
X0141883Y0199941D01*
X0141838Y0200075D01*
X0141797Y0200210D01*
X0141760Y0200346D01*
X0141726Y0200482D01*
X0141697Y0200620D01*
X0141671Y0200759D01*
X0141650Y0200898D01*
X0141632Y0201038D01*
X0141618Y0201178D01*
X0141608Y0201318D01*
X0141602Y0201459D01*
X0141600Y0201600D01*
X0149100Y0151600D02*
X0149102Y0151741D01*
X0149108Y0151882D01*
X0149118Y0152022D01*
X0149132Y0152162D01*
X0149150Y0152302D01*
X0149171Y0152441D01*
X0149197Y0152580D01*
X0149226Y0152718D01*
X0149260Y0152854D01*
X0149297Y0152990D01*
X0149338Y0153125D01*
X0149383Y0153259D01*
X0149432Y0153391D01*
X0149484Y0153522D01*
X0149540Y0153651D01*
X0149600Y0153778D01*
X0149663Y0153904D01*
X0149729Y0154028D01*
X0149800Y0154151D01*
X0149873Y0154271D01*
X0149950Y0154389D01*
X0150030Y0154505D01*
X0150114Y0154618D01*
X0150200Y0154729D01*
X0150290Y0154838D01*
X0150383Y0154944D01*
X0150478Y0155047D01*
X0150577Y0155148D01*
X0150678Y0155246D01*
X0150782Y0155341D01*
X0150889Y0155433D01*
X0150998Y0155522D01*
X0151110Y0155607D01*
X0151224Y0155690D01*
X0151340Y0155770D01*
X0151459Y0155846D01*
X0151580Y0155918D01*
X0151702Y0155988D01*
X0151827Y0156053D01*
X0151953Y0156116D01*
X0152081Y0156174D01*
X0152211Y0156229D01*
X0152342Y0156281D01*
X0152475Y0156328D01*
X0152609Y0156372D01*
X0152744Y0156413D01*
X0152880Y0156449D01*
X0153017Y0156481D01*
X0153155Y0156510D01*
X0153293Y0156535D01*
X0153433Y0156555D01*
X0153573Y0156572D01*
X0153713Y0156585D01*
X0153854Y0156594D01*
X0153994Y0156599D01*
X0154135Y0156600D01*
X0154276Y0156597D01*
X0154417Y0156590D01*
X0154557Y0156579D01*
X0154697Y0156564D01*
X0154837Y0156545D01*
X0154976Y0156523D01*
X0155114Y0156496D01*
X0155252Y0156466D01*
X0155388Y0156431D01*
X0155524Y0156393D01*
X0155658Y0156351D01*
X0155792Y0156305D01*
X0155924Y0156256D01*
X0156054Y0156202D01*
X0156183Y0156145D01*
X0156310Y0156085D01*
X0156436Y0156021D01*
X0156559Y0155953D01*
X0156681Y0155882D01*
X0156801Y0155808D01*
X0156918Y0155730D01*
X0157033Y0155649D01*
X0157146Y0155565D01*
X0157257Y0155478D01*
X0157365Y0155387D01*
X0157470Y0155294D01*
X0157573Y0155197D01*
X0157673Y0155098D01*
X0157770Y0154996D01*
X0157864Y0154891D01*
X0157955Y0154784D01*
X0158043Y0154674D01*
X0158128Y0154562D01*
X0158210Y0154447D01*
X0158289Y0154330D01*
X0158364Y0154211D01*
X0158436Y0154090D01*
X0158504Y0153967D01*
X0158569Y0153842D01*
X0158631Y0153715D01*
X0158688Y0153586D01*
X0158743Y0153456D01*
X0158793Y0153325D01*
X0158840Y0153192D01*
X0158883Y0153058D01*
X0158922Y0152922D01*
X0158957Y0152786D01*
X0158989Y0152649D01*
X0159016Y0152511D01*
X0159040Y0152372D01*
X0159060Y0152232D01*
X0159076Y0152092D01*
X0159088Y0151952D01*
X0159096Y0151811D01*
X0159100Y0151670D01*
X0159100Y0151530D01*
X0159096Y0151389D01*
X0159088Y0151248D01*
X0159076Y0151108D01*
X0159060Y0150968D01*
X0159040Y0150828D01*
X0159016Y0150689D01*
X0158989Y0150551D01*
X0158957Y0150414D01*
X0158922Y0150278D01*
X0158883Y0150142D01*
X0158840Y0150008D01*
X0158793Y0149875D01*
X0158743Y0149744D01*
X0158688Y0149614D01*
X0158631Y0149485D01*
X0158569Y0149358D01*
X0158504Y0149233D01*
X0158436Y0149110D01*
X0158364Y0148989D01*
X0158289Y0148870D01*
X0158210Y0148753D01*
X0158128Y0148638D01*
X0158043Y0148526D01*
X0157955Y0148416D01*
X0157864Y0148309D01*
X0157770Y0148204D01*
X0157673Y0148102D01*
X0157573Y0148003D01*
X0157470Y0147906D01*
X0157365Y0147813D01*
X0157257Y0147722D01*
X0157146Y0147635D01*
X0157033Y0147551D01*
X0156918Y0147470D01*
X0156801Y0147392D01*
X0156681Y0147318D01*
X0156559Y0147247D01*
X0156436Y0147179D01*
X0156310Y0147115D01*
X0156183Y0147055D01*
X0156054Y0146998D01*
X0155924Y0146944D01*
X0155792Y0146895D01*
X0155658Y0146849D01*
X0155524Y0146807D01*
X0155388Y0146769D01*
X0155252Y0146734D01*
X0155114Y0146704D01*
X0154976Y0146677D01*
X0154837Y0146655D01*
X0154697Y0146636D01*
X0154557Y0146621D01*
X0154417Y0146610D01*
X0154276Y0146603D01*
X0154135Y0146600D01*
X0153994Y0146601D01*
X0153854Y0146606D01*
X0153713Y0146615D01*
X0153573Y0146628D01*
X0153433Y0146645D01*
X0153293Y0146665D01*
X0153155Y0146690D01*
X0153017Y0146719D01*
X0152880Y0146751D01*
X0152744Y0146787D01*
X0152609Y0146828D01*
X0152475Y0146872D01*
X0152342Y0146919D01*
X0152211Y0146971D01*
X0152081Y0147026D01*
X0151953Y0147084D01*
X0151827Y0147147D01*
X0151702Y0147212D01*
X0151580Y0147282D01*
X0151459Y0147354D01*
X0151340Y0147430D01*
X0151224Y0147510D01*
X0151110Y0147593D01*
X0150998Y0147678D01*
X0150889Y0147767D01*
X0150782Y0147859D01*
X0150678Y0147954D01*
X0150577Y0148052D01*
X0150478Y0148153D01*
X0150383Y0148256D01*
X0150290Y0148362D01*
X0150200Y0148471D01*
X0150114Y0148582D01*
X0150030Y0148695D01*
X0149950Y0148811D01*
X0149873Y0148929D01*
X0149800Y0149049D01*
X0149729Y0149172D01*
X0149663Y0149296D01*
X0149600Y0149422D01*
X0149540Y0149549D01*
X0149484Y0149678D01*
X0149432Y0149809D01*
X0149383Y0149941D01*
X0149338Y0150075D01*
X0149297Y0150210D01*
X0149260Y0150346D01*
X0149226Y0150482D01*
X0149197Y0150620D01*
X0149171Y0150759D01*
X0149150Y0150898D01*
X0149132Y0151038D01*
X0149118Y0151178D01*
X0149108Y0151318D01*
X0149102Y0151459D01*
X0149100Y0151600D01*
M02*
