G75*
%MOIN*%
%OFA0B0*%
%FSLAX25Y25*%
%IPPOS*%
%LPD*%
%AMOC8*
5,1,8,0,0,1.08239X$1,22.5*
%
%ADD10C,0.07400*%
%ADD11R,0.10000X0.05000*%
%ADD12R,0.05000X0.10000*%
%ADD13C,0.02178*%
%ADD14C,0.01200*%
%ADD15C,0.01000*%
%ADD16C,0.01800*%
%ADD17C,0.00800*%
D10*
X0021600Y0266600D03*
X0021600Y0276600D03*
X0021600Y0286600D03*
X0151600Y0286600D03*
X0151600Y0276600D03*
X0151600Y0266600D03*
D11*
X0156600Y0030600D03*
X0156600Y0024100D03*
X0156600Y0017600D03*
X0016600Y0017600D03*
X0016600Y0024100D03*
X0016600Y0030600D03*
D12*
X0064100Y0014100D03*
X0079100Y0014100D03*
X0094100Y0014100D03*
X0109100Y0014100D03*
D13*
X0129100Y0049100D03*
X0143800Y0026800D03*
X0140670Y0023170D03*
X0151600Y0011600D03*
X0159100Y0046600D03*
X0131600Y0136600D03*
X0131600Y0166600D03*
X0129100Y0254100D03*
X0044100Y0254100D03*
X0041600Y0166600D03*
X0036550Y0156650D03*
X0041600Y0136600D03*
X0014100Y0161600D03*
X0044100Y0049100D03*
X0049100Y0019100D03*
X0021600Y0011600D03*
D14*
X0010000Y0016170D02*
X0008700Y0017470D01*
X0008700Y0283230D01*
X0017470Y0292000D01*
X0155730Y0292000D01*
X0164500Y0283230D01*
X0164500Y0017470D01*
X0163200Y0016170D01*
X0163200Y0017000D01*
X0157200Y0017000D01*
X0157200Y0018200D01*
X0163200Y0018200D01*
X0163200Y0020311D01*
X0163091Y0020718D01*
X0162880Y0021082D01*
X0162800Y0021163D01*
X0162800Y0025623D01*
X0164300Y0027123D01*
X0164300Y0043663D01*
X0163363Y0044600D01*
X0161389Y0046574D01*
X0161389Y0046626D01*
X0163200Y0048437D01*
X0163200Y0267263D01*
X0162263Y0268200D01*
X0162263Y0268200D01*
X0156013Y0274450D01*
X0156500Y0275625D01*
X0156500Y0277575D01*
X0155754Y0279376D01*
X0154376Y0280754D01*
X0152770Y0281419D01*
X0152841Y0281430D01*
X0153634Y0281688D01*
X0154378Y0282067D01*
X0155053Y0282557D01*
X0155643Y0283147D01*
X0156133Y0283822D01*
X0156512Y0284566D01*
X0156769Y0285359D01*
X0156900Y0286183D01*
X0156900Y0286200D01*
X0152000Y0286200D01*
X0152000Y0287000D01*
X0151200Y0287000D01*
X0151200Y0291900D01*
X0151183Y0291900D01*
X0150359Y0291769D01*
X0149566Y0291512D01*
X0148822Y0291133D01*
X0148147Y0290643D01*
X0147557Y0290053D01*
X0147067Y0289378D01*
X0146688Y0288634D01*
X0146430Y0287841D01*
X0146300Y0287017D01*
X0146300Y0287000D01*
X0151200Y0287000D01*
X0151200Y0286200D01*
X0146300Y0286200D01*
X0146300Y0286183D01*
X0146430Y0285359D01*
X0146688Y0284566D01*
X0147067Y0283822D01*
X0147557Y0283147D01*
X0148147Y0282557D01*
X0148822Y0282067D01*
X0149566Y0281688D01*
X0150359Y0281430D01*
X0150430Y0281419D01*
X0148824Y0280754D01*
X0147446Y0279376D01*
X0146700Y0277575D01*
X0146700Y0275625D01*
X0147446Y0273824D01*
X0148824Y0272446D01*
X0150625Y0271700D01*
X0152575Y0271700D01*
X0153750Y0272187D01*
X0160000Y0265937D01*
X0160000Y0154341D01*
X0159610Y0155282D01*
X0157782Y0157110D01*
X0155393Y0158100D01*
X0152807Y0158100D01*
X0150418Y0157110D01*
X0148590Y0155282D01*
X0147600Y0152893D01*
X0147600Y0150307D01*
X0148590Y0147918D01*
X0150418Y0146090D01*
X0152807Y0145100D01*
X0155393Y0145100D01*
X0157782Y0146090D01*
X0159610Y0147918D01*
X0160000Y0148859D01*
X0160000Y0049763D01*
X0159126Y0048889D01*
X0158152Y0048889D01*
X0156811Y0047548D01*
X0156811Y0045652D01*
X0158152Y0044311D01*
X0159126Y0044311D01*
X0161100Y0042337D01*
X0161100Y0034300D01*
X0151304Y0034300D01*
X0149800Y0035804D01*
X0149800Y0040830D01*
X0150200Y0041230D01*
X0150200Y0042970D01*
X0148970Y0044200D01*
X0147230Y0044200D01*
X0146000Y0042970D01*
X0146000Y0041230D01*
X0146400Y0040830D01*
X0146400Y0034396D01*
X0150400Y0030396D01*
X0150400Y0027603D01*
X0150653Y0027350D01*
X0150400Y0027097D01*
X0150400Y0024129D01*
X0144533Y0018262D01*
X0112800Y0018262D01*
X0112800Y0019597D01*
X0112097Y0020300D01*
X0106103Y0020300D01*
X0105400Y0019597D01*
X0105400Y0008700D01*
X0098149Y0008700D01*
X0098200Y0008889D01*
X0098200Y0013500D01*
X0094700Y0013500D01*
X0094700Y0014700D01*
X0098200Y0014700D01*
X0098200Y0019311D01*
X0098091Y0019718D01*
X0097880Y0020082D01*
X0097582Y0020380D01*
X0097218Y0020591D01*
X0096811Y0020700D01*
X0094700Y0020700D01*
X0094700Y0014700D01*
X0093500Y0014700D01*
X0093500Y0020700D01*
X0091389Y0020700D01*
X0090982Y0020591D01*
X0090618Y0020380D01*
X0090320Y0020082D01*
X0090109Y0019718D01*
X0090000Y0019311D01*
X0090000Y0014700D01*
X0093500Y0014700D01*
X0093500Y0013500D01*
X0090000Y0013500D01*
X0090000Y0008889D01*
X0090051Y0008700D01*
X0082800Y0008700D01*
X0082800Y0019597D01*
X0082097Y0020300D01*
X0076103Y0020300D01*
X0075704Y0019901D01*
X0065100Y0030504D01*
X0064104Y0031500D01*
X0056570Y0031500D01*
X0056170Y0031900D01*
X0054430Y0031900D01*
X0053200Y0030670D01*
X0053200Y0028930D01*
X0054430Y0027700D01*
X0056170Y0027700D01*
X0056570Y0028100D01*
X0062696Y0028100D01*
X0075400Y0015396D01*
X0075400Y0008700D01*
X0067800Y0008700D01*
X0067800Y0019597D01*
X0067097Y0020300D01*
X0061103Y0020300D01*
X0060400Y0019597D01*
X0060400Y0015700D01*
X0042263Y0015700D01*
X0032263Y0025700D01*
X0022800Y0025700D01*
X0022800Y0027097D01*
X0022547Y0027350D01*
X0022800Y0027603D01*
X0022800Y0033597D01*
X0022401Y0033996D01*
X0027006Y0038602D01*
X0027228Y0038381D01*
X0028968Y0038381D01*
X0030198Y0039611D01*
X0030198Y0041350D01*
X0028968Y0042581D01*
X0027228Y0042581D01*
X0026828Y0042181D01*
X0025776Y0042181D01*
X0024781Y0041185D01*
X0017896Y0034300D01*
X0012100Y0034300D01*
X0012100Y0264837D01*
X0019450Y0272187D01*
X0020625Y0271700D01*
X0022575Y0271700D01*
X0024376Y0272446D01*
X0025754Y0273824D01*
X0026500Y0275625D01*
X0026500Y0277575D01*
X0025754Y0279376D01*
X0024376Y0280754D01*
X0022770Y0281419D01*
X0022841Y0281430D01*
X0023634Y0281688D01*
X0024378Y0282067D01*
X0025053Y0282557D01*
X0025643Y0283147D01*
X0026133Y0283822D01*
X0026512Y0284566D01*
X0026769Y0285359D01*
X0026900Y0286183D01*
X0026900Y0286200D01*
X0022000Y0286200D01*
X0022000Y0287000D01*
X0021200Y0287000D01*
X0021200Y0291900D01*
X0021183Y0291900D01*
X0020359Y0291769D01*
X0019566Y0291512D01*
X0018822Y0291133D01*
X0018147Y0290643D01*
X0017557Y0290053D01*
X0017067Y0289378D01*
X0016688Y0288634D01*
X0016430Y0287841D01*
X0016300Y0287017D01*
X0016300Y0287000D01*
X0021200Y0287000D01*
X0021200Y0286200D01*
X0016300Y0286200D01*
X0016300Y0286183D01*
X0016430Y0285359D01*
X0016688Y0284566D01*
X0017067Y0283822D01*
X0017557Y0283147D01*
X0018147Y0282557D01*
X0018822Y0282067D01*
X0019566Y0281688D01*
X0020359Y0281430D01*
X0020430Y0281419D01*
X0018824Y0280754D01*
X0017446Y0279376D01*
X0016700Y0277575D01*
X0016700Y0275625D01*
X0017187Y0274450D01*
X0009837Y0267100D01*
X0008900Y0266163D01*
X0008900Y0025557D01*
X0009837Y0024620D01*
X0010400Y0024057D01*
X0010400Y0021163D01*
X0010320Y0021082D01*
X0010109Y0020718D01*
X0010000Y0020311D01*
X0010000Y0018200D01*
X0016000Y0018200D01*
X0016000Y0017000D01*
X0010000Y0017000D01*
X0010000Y0016170D01*
X0008969Y0017201D02*
X0016000Y0017201D01*
X0016000Y0017000D02*
X0017200Y0017000D01*
X0017200Y0018200D01*
X0023200Y0018200D01*
X0023200Y0020311D01*
X0023091Y0020718D01*
X0022880Y0021082D01*
X0022800Y0021163D01*
X0022800Y0022500D01*
X0030937Y0022500D01*
X0040000Y0013437D01*
X0040937Y0012500D01*
X0060400Y0012500D01*
X0060400Y0008700D01*
X0017470Y0008700D01*
X0012670Y0013500D01*
X0016000Y0013500D01*
X0016000Y0017000D01*
X0016000Y0016002D02*
X0017200Y0016002D01*
X0017200Y0017000D02*
X0017200Y0013500D01*
X0021811Y0013500D01*
X0022218Y0013609D01*
X0022582Y0013820D01*
X0022880Y0014118D01*
X0023091Y0014482D01*
X0023200Y0014889D01*
X0023200Y0017000D01*
X0017200Y0017000D01*
X0017200Y0017201D02*
X0036237Y0017201D01*
X0035038Y0018399D02*
X0023200Y0018399D01*
X0023200Y0019598D02*
X0033840Y0019598D01*
X0032641Y0020796D02*
X0023046Y0020796D01*
X0022800Y0021995D02*
X0031443Y0021995D01*
X0033571Y0024392D02*
X0066404Y0024392D01*
X0065206Y0025590D02*
X0032373Y0025590D01*
X0034770Y0023193D02*
X0067603Y0023193D01*
X0068801Y0021995D02*
X0035968Y0021995D01*
X0037167Y0020796D02*
X0070000Y0020796D01*
X0071198Y0019598D02*
X0067799Y0019598D01*
X0067800Y0018399D02*
X0072397Y0018399D01*
X0073595Y0017201D02*
X0067800Y0017201D01*
X0067800Y0016002D02*
X0074794Y0016002D01*
X0075400Y0014803D02*
X0067800Y0014803D01*
X0067800Y0013605D02*
X0075400Y0013605D01*
X0075400Y0012406D02*
X0067800Y0012406D01*
X0067800Y0011208D02*
X0075400Y0011208D01*
X0075400Y0010009D02*
X0067800Y0010009D01*
X0067800Y0008811D02*
X0075400Y0008811D01*
X0082800Y0008811D02*
X0090021Y0008811D01*
X0090000Y0010009D02*
X0082800Y0010009D01*
X0082800Y0011208D02*
X0090000Y0011208D01*
X0090000Y0012406D02*
X0082800Y0012406D01*
X0082800Y0013605D02*
X0093500Y0013605D01*
X0093500Y0014803D02*
X0094700Y0014803D01*
X0094700Y0013605D02*
X0105400Y0013605D01*
X0105400Y0014803D02*
X0098200Y0014803D01*
X0098200Y0016002D02*
X0105400Y0016002D01*
X0105400Y0017201D02*
X0098200Y0017201D01*
X0098200Y0018399D02*
X0105400Y0018399D01*
X0105400Y0019598D02*
X0098123Y0019598D01*
X0094700Y0019598D02*
X0093500Y0019598D01*
X0093500Y0018399D02*
X0094700Y0018399D01*
X0094700Y0017201D02*
X0093500Y0017201D01*
X0093500Y0016002D02*
X0094700Y0016002D01*
X0090000Y0016002D02*
X0082800Y0016002D01*
X0082800Y0014803D02*
X0090000Y0014803D01*
X0090000Y0017201D02*
X0082800Y0017201D01*
X0082800Y0018399D02*
X0090000Y0018399D01*
X0090077Y0019598D02*
X0082799Y0019598D01*
X0080282Y0026090D02*
X0077893Y0025100D01*
X0075307Y0025100D01*
X0072918Y0026090D01*
X0071090Y0027918D01*
X0070100Y0030307D01*
X0070100Y0032893D01*
X0071090Y0035282D01*
X0072918Y0037110D01*
X0075307Y0038100D01*
X0077893Y0038100D01*
X0080282Y0037110D01*
X0082110Y0035282D01*
X0083100Y0032893D01*
X0083100Y0030307D01*
X0082110Y0027918D01*
X0080282Y0026090D01*
X0080981Y0026789D02*
X0092219Y0026789D01*
X0092918Y0026090D02*
X0095307Y0025100D01*
X0097893Y0025100D01*
X0100282Y0026090D01*
X0102110Y0027918D01*
X0103100Y0030307D01*
X0103100Y0032893D01*
X0102110Y0035282D01*
X0100282Y0037110D01*
X0097893Y0038100D01*
X0095307Y0038100D01*
X0092918Y0037110D01*
X0091090Y0035282D01*
X0090100Y0032893D01*
X0090100Y0030307D01*
X0091090Y0027918D01*
X0092918Y0026090D01*
X0094124Y0025590D02*
X0079076Y0025590D01*
X0082139Y0027987D02*
X0091061Y0027987D01*
X0090565Y0029186D02*
X0082635Y0029186D01*
X0083100Y0030384D02*
X0090100Y0030384D01*
X0090100Y0031583D02*
X0083100Y0031583D01*
X0083100Y0032781D02*
X0090100Y0032781D01*
X0090550Y0033980D02*
X0082650Y0033980D01*
X0082153Y0035178D02*
X0091047Y0035178D01*
X0092184Y0036377D02*
X0081016Y0036377D01*
X0079160Y0037575D02*
X0094040Y0037575D01*
X0099160Y0037575D02*
X0137100Y0037575D01*
X0137100Y0036377D02*
X0101016Y0036377D01*
X0102153Y0035178D02*
X0137100Y0035178D01*
X0137100Y0033980D02*
X0102650Y0033980D01*
X0103100Y0032781D02*
X0137100Y0032781D01*
X0137100Y0031583D02*
X0103100Y0031583D01*
X0103100Y0030384D02*
X0137100Y0030384D01*
X0137100Y0029186D02*
X0102635Y0029186D01*
X0102139Y0027987D02*
X0137100Y0027987D01*
X0137100Y0026789D02*
X0100981Y0026789D01*
X0099076Y0025590D02*
X0137100Y0025590D01*
X0137100Y0024477D02*
X0138381Y0023196D01*
X0138381Y0022222D01*
X0139722Y0020881D01*
X0141618Y0020881D01*
X0142959Y0022222D01*
X0142959Y0024118D01*
X0141618Y0025459D01*
X0140644Y0025459D01*
X0140300Y0025802D01*
X0140300Y0079824D01*
X0141090Y0077918D01*
X0142918Y0076090D01*
X0145307Y0075100D01*
X0147893Y0075100D01*
X0150282Y0076090D01*
X0152110Y0077918D01*
X0153100Y0080307D01*
X0153100Y0082893D01*
X0152110Y0085282D01*
X0150282Y0087110D01*
X0147893Y0088100D01*
X0145307Y0088100D01*
X0142918Y0087110D01*
X0141090Y0085282D01*
X0140300Y0083376D01*
X0140300Y0099824D01*
X0141090Y0097918D01*
X0142918Y0096090D01*
X0145307Y0095100D01*
X0147893Y0095100D01*
X0150282Y0096090D01*
X0152110Y0097918D01*
X0153100Y0100307D01*
X0153100Y0102893D01*
X0152110Y0105282D01*
X0150282Y0107110D01*
X0147893Y0108100D01*
X0145307Y0108100D01*
X0142918Y0107110D01*
X0141090Y0105282D01*
X0140300Y0103376D01*
X0140300Y0145230D01*
X0140800Y0145730D01*
X0140800Y0147470D01*
X0139570Y0148700D01*
X0137830Y0148700D01*
X0136600Y0147470D01*
X0136600Y0145730D01*
X0137100Y0145230D01*
X0137100Y0024477D01*
X0137185Y0024392D02*
X0071213Y0024392D01*
X0072411Y0023193D02*
X0138381Y0023193D01*
X0138608Y0021995D02*
X0073610Y0021995D01*
X0074808Y0020796D02*
X0147067Y0020796D01*
X0145869Y0019598D02*
X0112799Y0019598D01*
X0112800Y0018399D02*
X0144670Y0018399D01*
X0146799Y0016002D02*
X0150000Y0016002D01*
X0150000Y0017000D02*
X0150000Y0014889D01*
X0150109Y0014482D01*
X0150320Y0014118D01*
X0150618Y0013820D01*
X0150982Y0013609D01*
X0151389Y0013500D01*
X0156000Y0013500D01*
X0156000Y0017000D01*
X0157200Y0017000D01*
X0157200Y0013500D01*
X0160530Y0013500D01*
X0155730Y0008700D01*
X0112800Y0008700D01*
X0112800Y0015062D01*
X0144533Y0015062D01*
X0145859Y0015062D01*
X0150000Y0019203D01*
X0150000Y0018200D01*
X0156000Y0018200D01*
X0156000Y0017000D01*
X0150000Y0017000D01*
X0150000Y0018399D02*
X0149196Y0018399D01*
X0147997Y0017201D02*
X0156000Y0017201D01*
X0156000Y0016002D02*
X0157200Y0016002D01*
X0157200Y0014803D02*
X0156000Y0014803D01*
X0156000Y0013605D02*
X0157200Y0013605D01*
X0159437Y0012406D02*
X0112800Y0012406D01*
X0112800Y0011208D02*
X0158238Y0011208D01*
X0157040Y0010009D02*
X0112800Y0010009D01*
X0112800Y0008811D02*
X0155841Y0008811D01*
X0150998Y0013605D02*
X0112800Y0013605D01*
X0112800Y0014803D02*
X0150023Y0014803D01*
X0148266Y0021995D02*
X0142732Y0021995D01*
X0142959Y0023193D02*
X0149464Y0023193D01*
X0150400Y0024392D02*
X0142685Y0024392D01*
X0140512Y0025590D02*
X0150400Y0025590D01*
X0150400Y0026789D02*
X0140300Y0026789D01*
X0140300Y0027987D02*
X0150400Y0027987D01*
X0150400Y0029186D02*
X0140300Y0029186D01*
X0140300Y0030384D02*
X0150400Y0030384D01*
X0149213Y0031583D02*
X0140300Y0031583D01*
X0140300Y0032781D02*
X0148015Y0032781D01*
X0146816Y0033980D02*
X0140300Y0033980D01*
X0140300Y0035178D02*
X0146400Y0035178D01*
X0146400Y0036377D02*
X0140300Y0036377D01*
X0140300Y0037575D02*
X0146400Y0037575D01*
X0146400Y0038774D02*
X0140300Y0038774D01*
X0140300Y0039972D02*
X0146400Y0039972D01*
X0146059Y0041171D02*
X0140300Y0041171D01*
X0140300Y0042369D02*
X0146000Y0042369D01*
X0146598Y0043568D02*
X0140300Y0043568D01*
X0140300Y0044766D02*
X0157697Y0044766D01*
X0156811Y0045965D02*
X0140300Y0045965D01*
X0140300Y0047163D02*
X0156811Y0047163D01*
X0157625Y0048362D02*
X0140300Y0048362D01*
X0140300Y0049560D02*
X0159798Y0049560D01*
X0160000Y0050759D02*
X0140300Y0050759D01*
X0140300Y0051957D02*
X0160000Y0051957D01*
X0160000Y0053156D02*
X0140300Y0053156D01*
X0140300Y0054354D02*
X0160000Y0054354D01*
X0160000Y0055553D02*
X0140300Y0055553D01*
X0140300Y0056751D02*
X0160000Y0056751D01*
X0160000Y0057950D02*
X0140300Y0057950D01*
X0140300Y0059148D02*
X0160000Y0059148D01*
X0160000Y0060347D02*
X0140300Y0060347D01*
X0140300Y0061545D02*
X0160000Y0061545D01*
X0160000Y0062744D02*
X0140300Y0062744D01*
X0140300Y0063942D02*
X0160000Y0063942D01*
X0160000Y0065141D02*
X0140300Y0065141D01*
X0140300Y0066339D02*
X0160000Y0066339D01*
X0160000Y0067538D02*
X0140300Y0067538D01*
X0140300Y0068737D02*
X0160000Y0068737D01*
X0160000Y0069935D02*
X0140300Y0069935D01*
X0140300Y0071134D02*
X0160000Y0071134D01*
X0160000Y0072332D02*
X0140300Y0072332D01*
X0140300Y0073531D02*
X0160000Y0073531D01*
X0160000Y0074729D02*
X0140300Y0074729D01*
X0140300Y0075928D02*
X0143309Y0075928D01*
X0141882Y0077126D02*
X0140300Y0077126D01*
X0140300Y0078325D02*
X0140921Y0078325D01*
X0140425Y0079523D02*
X0140300Y0079523D01*
X0140300Y0084317D02*
X0140690Y0084317D01*
X0140300Y0085516D02*
X0141323Y0085516D01*
X0140300Y0086714D02*
X0142522Y0086714D01*
X0140300Y0087913D02*
X0144855Y0087913D01*
X0148345Y0087913D02*
X0160000Y0087913D01*
X0160000Y0089111D02*
X0140300Y0089111D01*
X0140300Y0090310D02*
X0160000Y0090310D01*
X0160000Y0091508D02*
X0140300Y0091508D01*
X0140300Y0092707D02*
X0160000Y0092707D01*
X0160000Y0093905D02*
X0140300Y0093905D01*
X0140300Y0095104D02*
X0145298Y0095104D01*
X0147902Y0095104D02*
X0160000Y0095104D01*
X0160000Y0096302D02*
X0150495Y0096302D01*
X0151693Y0097501D02*
X0160000Y0097501D01*
X0160000Y0098699D02*
X0152434Y0098699D01*
X0152930Y0099898D02*
X0160000Y0099898D01*
X0160000Y0101096D02*
X0153100Y0101096D01*
X0153100Y0102295D02*
X0160000Y0102295D01*
X0160000Y0103493D02*
X0152851Y0103493D01*
X0152355Y0104692D02*
X0160000Y0104692D01*
X0160000Y0105890D02*
X0151502Y0105890D01*
X0150304Y0107089D02*
X0160000Y0107089D01*
X0160000Y0108287D02*
X0140300Y0108287D01*
X0140300Y0107089D02*
X0142896Y0107089D01*
X0141698Y0105890D02*
X0140300Y0105890D01*
X0140300Y0104692D02*
X0140845Y0104692D01*
X0140349Y0103493D02*
X0140300Y0103493D01*
X0137100Y0103493D02*
X0133700Y0103493D01*
X0133700Y0102295D02*
X0137100Y0102295D01*
X0137100Y0101096D02*
X0133700Y0101096D01*
X0133700Y0099898D02*
X0137100Y0099898D01*
X0137100Y0098699D02*
X0133700Y0098699D01*
X0133700Y0097501D02*
X0137100Y0097501D01*
X0137100Y0096302D02*
X0133700Y0096302D01*
X0133700Y0095104D02*
X0137100Y0095104D01*
X0137100Y0093905D02*
X0133700Y0093905D01*
X0133700Y0092707D02*
X0137100Y0092707D01*
X0137100Y0091508D02*
X0133700Y0091508D01*
X0133700Y0090310D02*
X0137100Y0090310D01*
X0137100Y0089111D02*
X0133700Y0089111D01*
X0133700Y0087913D02*
X0137100Y0087913D01*
X0137100Y0086714D02*
X0133700Y0086714D01*
X0133700Y0085516D02*
X0137100Y0085516D01*
X0137100Y0084317D02*
X0133700Y0084317D01*
X0133700Y0083119D02*
X0137100Y0083119D01*
X0137100Y0081920D02*
X0133700Y0081920D01*
X0133700Y0080722D02*
X0137100Y0080722D01*
X0137100Y0079523D02*
X0133700Y0079523D01*
X0133700Y0078325D02*
X0137100Y0078325D01*
X0137100Y0077126D02*
X0133700Y0077126D01*
X0133700Y0075928D02*
X0137100Y0075928D01*
X0137100Y0074729D02*
X0133700Y0074729D01*
X0133700Y0073531D02*
X0137100Y0073531D01*
X0137100Y0072332D02*
X0133700Y0072332D01*
X0133700Y0071134D02*
X0137100Y0071134D01*
X0137100Y0069935D02*
X0133700Y0069935D01*
X0133700Y0068737D02*
X0137100Y0068737D01*
X0137100Y0067538D02*
X0133700Y0067538D01*
X0133700Y0066339D02*
X0137100Y0066339D01*
X0137100Y0065141D02*
X0133700Y0065141D01*
X0133700Y0063942D02*
X0137100Y0063942D01*
X0137100Y0062744D02*
X0133700Y0062744D01*
X0133700Y0061545D02*
X0137100Y0061545D01*
X0137100Y0060347D02*
X0133700Y0060347D01*
X0133700Y0059148D02*
X0137100Y0059148D01*
X0137100Y0057950D02*
X0133700Y0057950D01*
X0133700Y0056751D02*
X0137100Y0056751D01*
X0137100Y0055553D02*
X0133523Y0055553D01*
X0133700Y0055730D02*
X0133700Y0127470D01*
X0123700Y0137470D01*
X0122470Y0138700D01*
X0050730Y0138700D01*
X0049500Y0137470D01*
X0049500Y0137470D01*
X0040730Y0128700D01*
X0039500Y0127470D01*
X0039500Y0055730D01*
X0049500Y0045730D01*
X0050730Y0044500D01*
X0122470Y0044500D01*
X0132470Y0054500D01*
X0133700Y0055730D01*
X0132324Y0054354D02*
X0137100Y0054354D01*
X0137100Y0053156D02*
X0131126Y0053156D01*
X0129927Y0051957D02*
X0137100Y0051957D01*
X0137100Y0050759D02*
X0128729Y0050759D01*
X0127530Y0049560D02*
X0137100Y0049560D01*
X0137100Y0048362D02*
X0126332Y0048362D01*
X0125133Y0047163D02*
X0137100Y0047163D01*
X0137100Y0045965D02*
X0123935Y0045965D01*
X0122736Y0044766D02*
X0137100Y0044766D01*
X0137100Y0043568D02*
X0012100Y0043568D01*
X0012100Y0044766D02*
X0050464Y0044766D01*
X0049265Y0045965D02*
X0012100Y0045965D01*
X0012100Y0047163D02*
X0048067Y0047163D01*
X0046868Y0048362D02*
X0012100Y0048362D01*
X0012100Y0049560D02*
X0045670Y0049560D01*
X0044471Y0050759D02*
X0012100Y0050759D01*
X0012100Y0051957D02*
X0043273Y0051957D01*
X0042074Y0053156D02*
X0012100Y0053156D01*
X0012100Y0054354D02*
X0040876Y0054354D01*
X0039677Y0055553D02*
X0012100Y0055553D01*
X0012100Y0056751D02*
X0039500Y0056751D01*
X0039500Y0057950D02*
X0012100Y0057950D01*
X0012100Y0059148D02*
X0039500Y0059148D01*
X0039500Y0060347D02*
X0012100Y0060347D01*
X0012100Y0061545D02*
X0039500Y0061545D01*
X0039500Y0062744D02*
X0012100Y0062744D01*
X0012100Y0063942D02*
X0039500Y0063942D01*
X0039500Y0065141D02*
X0012100Y0065141D01*
X0012100Y0066339D02*
X0039500Y0066339D01*
X0039500Y0067538D02*
X0012100Y0067538D01*
X0012100Y0068737D02*
X0039500Y0068737D01*
X0039500Y0069935D02*
X0012100Y0069935D01*
X0012100Y0071134D02*
X0039500Y0071134D01*
X0039500Y0072332D02*
X0012100Y0072332D01*
X0012100Y0073531D02*
X0039500Y0073531D01*
X0039500Y0074729D02*
X0012100Y0074729D01*
X0012100Y0075928D02*
X0023309Y0075928D01*
X0022918Y0076090D02*
X0025307Y0075100D01*
X0027893Y0075100D01*
X0030282Y0076090D01*
X0032110Y0077918D01*
X0033100Y0080307D01*
X0033100Y0082893D01*
X0032110Y0085282D01*
X0030282Y0087110D01*
X0027893Y0088100D01*
X0025307Y0088100D01*
X0022918Y0087110D01*
X0021090Y0085282D01*
X0020100Y0082893D01*
X0020100Y0080307D01*
X0021090Y0077918D01*
X0022918Y0076090D01*
X0021882Y0077126D02*
X0012100Y0077126D01*
X0012100Y0078325D02*
X0020921Y0078325D01*
X0020425Y0079523D02*
X0012100Y0079523D01*
X0012100Y0080722D02*
X0020100Y0080722D01*
X0020100Y0081920D02*
X0012100Y0081920D01*
X0012100Y0083119D02*
X0020194Y0083119D01*
X0020690Y0084317D02*
X0012100Y0084317D01*
X0012100Y0085516D02*
X0021323Y0085516D01*
X0022522Y0086714D02*
X0012100Y0086714D01*
X0012100Y0087913D02*
X0024855Y0087913D01*
X0028345Y0087913D02*
X0039500Y0087913D01*
X0039500Y0089111D02*
X0012100Y0089111D01*
X0012100Y0090310D02*
X0039500Y0090310D01*
X0039500Y0091508D02*
X0012100Y0091508D01*
X0012100Y0092707D02*
X0039500Y0092707D01*
X0039500Y0093905D02*
X0012100Y0093905D01*
X0012100Y0095104D02*
X0025298Y0095104D01*
X0025307Y0095100D02*
X0027893Y0095100D01*
X0030282Y0096090D01*
X0032110Y0097918D01*
X0033100Y0100307D01*
X0033100Y0102893D01*
X0032110Y0105282D01*
X0030282Y0107110D01*
X0027893Y0108100D01*
X0025307Y0108100D01*
X0022918Y0107110D01*
X0021090Y0105282D01*
X0020100Y0102893D01*
X0020100Y0100307D01*
X0021090Y0097918D01*
X0022918Y0096090D01*
X0025307Y0095100D01*
X0027902Y0095104D02*
X0039500Y0095104D01*
X0039500Y0096302D02*
X0030495Y0096302D01*
X0031693Y0097501D02*
X0039500Y0097501D01*
X0039500Y0098699D02*
X0032434Y0098699D01*
X0032930Y0099898D02*
X0039500Y0099898D01*
X0039500Y0101096D02*
X0033100Y0101096D01*
X0033100Y0102295D02*
X0039500Y0102295D01*
X0039500Y0103493D02*
X0032851Y0103493D01*
X0032355Y0104692D02*
X0039500Y0104692D01*
X0039500Y0105890D02*
X0031502Y0105890D01*
X0030304Y0107089D02*
X0039500Y0107089D01*
X0039500Y0108287D02*
X0012100Y0108287D01*
X0012100Y0107089D02*
X0022896Y0107089D01*
X0021698Y0105890D02*
X0012100Y0105890D01*
X0012100Y0104692D02*
X0020845Y0104692D01*
X0020349Y0103493D02*
X0012100Y0103493D01*
X0012100Y0102295D02*
X0020100Y0102295D01*
X0020100Y0101096D02*
X0012100Y0101096D01*
X0012100Y0099898D02*
X0020270Y0099898D01*
X0020766Y0098699D02*
X0012100Y0098699D01*
X0012100Y0097501D02*
X0021507Y0097501D01*
X0022705Y0096302D02*
X0012100Y0096302D01*
X0008900Y0096302D02*
X0008700Y0096302D01*
X0008700Y0095104D02*
X0008900Y0095104D01*
X0008900Y0093905D02*
X0008700Y0093905D01*
X0008700Y0092707D02*
X0008900Y0092707D01*
X0008900Y0091508D02*
X0008700Y0091508D01*
X0008700Y0090310D02*
X0008900Y0090310D01*
X0008900Y0089111D02*
X0008700Y0089111D01*
X0008700Y0087913D02*
X0008900Y0087913D01*
X0008900Y0086714D02*
X0008700Y0086714D01*
X0008700Y0085516D02*
X0008900Y0085516D01*
X0008900Y0084317D02*
X0008700Y0084317D01*
X0008700Y0083119D02*
X0008900Y0083119D01*
X0008900Y0081920D02*
X0008700Y0081920D01*
X0008700Y0080722D02*
X0008900Y0080722D01*
X0008900Y0079523D02*
X0008700Y0079523D01*
X0008700Y0078325D02*
X0008900Y0078325D01*
X0008900Y0077126D02*
X0008700Y0077126D01*
X0008700Y0075928D02*
X0008900Y0075928D01*
X0008900Y0074729D02*
X0008700Y0074729D01*
X0008700Y0073531D02*
X0008900Y0073531D01*
X0008900Y0072332D02*
X0008700Y0072332D01*
X0008700Y0071134D02*
X0008900Y0071134D01*
X0008900Y0069935D02*
X0008700Y0069935D01*
X0008700Y0068737D02*
X0008900Y0068737D01*
X0008900Y0067538D02*
X0008700Y0067538D01*
X0008700Y0066339D02*
X0008900Y0066339D01*
X0008900Y0065141D02*
X0008700Y0065141D01*
X0008700Y0063942D02*
X0008900Y0063942D01*
X0008900Y0062744D02*
X0008700Y0062744D01*
X0008700Y0061545D02*
X0008900Y0061545D01*
X0008900Y0060347D02*
X0008700Y0060347D01*
X0008700Y0059148D02*
X0008900Y0059148D01*
X0008900Y0057950D02*
X0008700Y0057950D01*
X0008700Y0056751D02*
X0008900Y0056751D01*
X0008900Y0055553D02*
X0008700Y0055553D01*
X0008700Y0054354D02*
X0008900Y0054354D01*
X0008900Y0053156D02*
X0008700Y0053156D01*
X0008700Y0051957D02*
X0008900Y0051957D01*
X0008900Y0050759D02*
X0008700Y0050759D01*
X0008700Y0049560D02*
X0008900Y0049560D01*
X0008900Y0048362D02*
X0008700Y0048362D01*
X0008700Y0047163D02*
X0008900Y0047163D01*
X0008900Y0045965D02*
X0008700Y0045965D01*
X0008700Y0044766D02*
X0008900Y0044766D01*
X0008900Y0043568D02*
X0008700Y0043568D01*
X0008700Y0042369D02*
X0008900Y0042369D01*
X0008900Y0041171D02*
X0008700Y0041171D01*
X0008700Y0039972D02*
X0008900Y0039972D01*
X0008900Y0038774D02*
X0008700Y0038774D01*
X0008700Y0037575D02*
X0008900Y0037575D01*
X0008900Y0036377D02*
X0008700Y0036377D01*
X0008700Y0035178D02*
X0008900Y0035178D01*
X0008900Y0033980D02*
X0008700Y0033980D01*
X0008700Y0032781D02*
X0008900Y0032781D01*
X0008900Y0031583D02*
X0008700Y0031583D01*
X0008700Y0030384D02*
X0008900Y0030384D01*
X0008900Y0029186D02*
X0008700Y0029186D01*
X0008700Y0027987D02*
X0008900Y0027987D01*
X0008900Y0026789D02*
X0008700Y0026789D01*
X0008700Y0025590D02*
X0008900Y0025590D01*
X0008700Y0024392D02*
X0010066Y0024392D01*
X0010400Y0023193D02*
X0008700Y0023193D01*
X0008700Y0021995D02*
X0010400Y0021995D01*
X0010154Y0020796D02*
X0008700Y0020796D01*
X0008700Y0019598D02*
X0010000Y0019598D01*
X0010000Y0018399D02*
X0008700Y0018399D01*
X0013763Y0012406D02*
X0060400Y0012406D01*
X0060400Y0011208D02*
X0014962Y0011208D01*
X0016160Y0010009D02*
X0060400Y0010009D01*
X0060400Y0008811D02*
X0017359Y0008811D01*
X0017200Y0013605D02*
X0016000Y0013605D01*
X0016000Y0014803D02*
X0017200Y0014803D01*
X0022202Y0013605D02*
X0039832Y0013605D01*
X0038634Y0014803D02*
X0023177Y0014803D01*
X0023200Y0016002D02*
X0037435Y0016002D01*
X0039564Y0018399D02*
X0060400Y0018399D01*
X0060400Y0017201D02*
X0040762Y0017201D01*
X0041961Y0016002D02*
X0060400Y0016002D01*
X0060400Y0019598D02*
X0038365Y0019598D01*
X0029361Y0038774D02*
X0137100Y0038774D01*
X0137100Y0039972D02*
X0030198Y0039972D01*
X0030198Y0041171D02*
X0137100Y0041171D01*
X0137100Y0042369D02*
X0029179Y0042369D01*
X0027017Y0042369D02*
X0012100Y0042369D01*
X0012100Y0041171D02*
X0024767Y0041171D01*
X0023568Y0039972D02*
X0012100Y0039972D01*
X0012100Y0038774D02*
X0022370Y0038774D01*
X0021171Y0037575D02*
X0012100Y0037575D01*
X0012100Y0036377D02*
X0019973Y0036377D01*
X0018774Y0035178D02*
X0012100Y0035178D01*
X0022417Y0033980D02*
X0070550Y0033980D01*
X0070100Y0032781D02*
X0022800Y0032781D01*
X0022800Y0031583D02*
X0054113Y0031583D01*
X0053200Y0030384D02*
X0022800Y0030384D01*
X0022800Y0029186D02*
X0053200Y0029186D01*
X0054143Y0027987D02*
X0022800Y0027987D01*
X0022800Y0026789D02*
X0064007Y0026789D01*
X0062809Y0027987D02*
X0056457Y0027987D01*
X0056487Y0031583D02*
X0070100Y0031583D01*
X0070100Y0030384D02*
X0065220Y0030384D01*
X0066419Y0029186D02*
X0070565Y0029186D01*
X0071061Y0027987D02*
X0067617Y0027987D01*
X0068816Y0026789D02*
X0072219Y0026789D01*
X0074124Y0025590D02*
X0070014Y0025590D01*
X0071047Y0035178D02*
X0023582Y0035178D01*
X0024781Y0036377D02*
X0072184Y0036377D01*
X0074040Y0037575D02*
X0025979Y0037575D01*
X0029891Y0075928D02*
X0039500Y0075928D01*
X0039500Y0077126D02*
X0031318Y0077126D01*
X0032279Y0078325D02*
X0039500Y0078325D01*
X0039500Y0079523D02*
X0032775Y0079523D01*
X0033100Y0080722D02*
X0039500Y0080722D01*
X0039500Y0081920D02*
X0033100Y0081920D01*
X0033006Y0083119D02*
X0039500Y0083119D01*
X0039500Y0084317D02*
X0032510Y0084317D01*
X0031877Y0085516D02*
X0039500Y0085516D01*
X0039500Y0086714D02*
X0030678Y0086714D01*
X0039500Y0109486D02*
X0012100Y0109486D01*
X0012100Y0110684D02*
X0039500Y0110684D01*
X0039500Y0111883D02*
X0012100Y0111883D01*
X0012100Y0113081D02*
X0039500Y0113081D01*
X0039500Y0114280D02*
X0012100Y0114280D01*
X0012100Y0115478D02*
X0039500Y0115478D01*
X0039500Y0116677D02*
X0012100Y0116677D01*
X0012100Y0117875D02*
X0039500Y0117875D01*
X0039500Y0119074D02*
X0012100Y0119074D01*
X0012100Y0120272D02*
X0039500Y0120272D01*
X0039500Y0121471D02*
X0012100Y0121471D01*
X0012100Y0122670D02*
X0039500Y0122670D01*
X0039500Y0123868D02*
X0012100Y0123868D01*
X0012100Y0125067D02*
X0039500Y0125067D01*
X0039500Y0126265D02*
X0012100Y0126265D01*
X0012100Y0127464D02*
X0039500Y0127464D01*
X0040692Y0128662D02*
X0012100Y0128662D01*
X0012100Y0129861D02*
X0041891Y0129861D01*
X0043089Y0131059D02*
X0012100Y0131059D01*
X0012100Y0132258D02*
X0044288Y0132258D01*
X0045486Y0133456D02*
X0012100Y0133456D01*
X0012100Y0134655D02*
X0046685Y0134655D01*
X0047883Y0135853D02*
X0012100Y0135853D01*
X0012100Y0137052D02*
X0049082Y0137052D01*
X0050280Y0138250D02*
X0012100Y0138250D01*
X0012100Y0139449D02*
X0137100Y0139449D01*
X0137100Y0140647D02*
X0012100Y0140647D01*
X0012100Y0141846D02*
X0137100Y0141846D01*
X0137100Y0143044D02*
X0012100Y0143044D01*
X0012100Y0144243D02*
X0137100Y0144243D01*
X0136889Y0145441D02*
X0098717Y0145441D01*
X0097893Y0145100D02*
X0100282Y0146090D01*
X0102110Y0147918D01*
X0103100Y0150307D01*
X0103100Y0152893D01*
X0102110Y0155282D01*
X0100282Y0157110D01*
X0097893Y0158100D01*
X0095307Y0158100D01*
X0092918Y0157110D01*
X0091090Y0155282D01*
X0090100Y0152893D01*
X0090100Y0150307D01*
X0091090Y0147918D01*
X0092918Y0146090D01*
X0095307Y0145100D01*
X0097893Y0145100D01*
X0100832Y0146640D02*
X0136600Y0146640D01*
X0136968Y0147838D02*
X0102031Y0147838D01*
X0102574Y0149037D02*
X0148126Y0149037D01*
X0147630Y0150235D02*
X0103070Y0150235D01*
X0103100Y0151434D02*
X0136996Y0151434D01*
X0137530Y0150900D02*
X0136300Y0152130D01*
X0136300Y0153870D01*
X0137530Y0155100D01*
X0138096Y0155100D01*
X0142800Y0159804D01*
X0143796Y0160800D01*
X0146828Y0160800D01*
X0147228Y0161200D01*
X0148968Y0161200D01*
X0150198Y0159970D01*
X0150198Y0158230D01*
X0148968Y0157000D01*
X0147228Y0157000D01*
X0146828Y0157400D01*
X0145204Y0157400D01*
X0140500Y0152696D01*
X0140500Y0152130D01*
X0139270Y0150900D01*
X0137530Y0150900D01*
X0136300Y0152632D02*
X0103100Y0152632D01*
X0102712Y0153831D02*
X0136300Y0153831D01*
X0137459Y0155029D02*
X0102215Y0155029D01*
X0101165Y0156228D02*
X0139224Y0156228D01*
X0140422Y0157426D02*
X0099519Y0157426D01*
X0093681Y0157426D02*
X0079519Y0157426D01*
X0080282Y0157110D02*
X0077893Y0158100D01*
X0075307Y0158100D01*
X0072918Y0157110D01*
X0071090Y0155282D01*
X0070100Y0152893D01*
X0070100Y0150307D01*
X0071090Y0147918D01*
X0072918Y0146090D01*
X0075307Y0145100D01*
X0077893Y0145100D01*
X0080282Y0146090D01*
X0082110Y0147918D01*
X0083100Y0150307D01*
X0083100Y0152893D01*
X0082110Y0155282D01*
X0080282Y0157110D01*
X0081165Y0156228D02*
X0092035Y0156228D01*
X0090985Y0155029D02*
X0082215Y0155029D01*
X0082712Y0153831D02*
X0090488Y0153831D01*
X0090100Y0152632D02*
X0083100Y0152632D01*
X0083100Y0151434D02*
X0090100Y0151434D01*
X0090130Y0150235D02*
X0083070Y0150235D01*
X0082574Y0149037D02*
X0090626Y0149037D01*
X0091169Y0147838D02*
X0082031Y0147838D01*
X0080832Y0146640D02*
X0092368Y0146640D01*
X0094483Y0145441D02*
X0078717Y0145441D01*
X0074483Y0145441D02*
X0021217Y0145441D01*
X0020393Y0145100D02*
X0022782Y0146090D01*
X0024610Y0147918D01*
X0025600Y0150307D01*
X0025600Y0152893D01*
X0024610Y0155282D01*
X0022782Y0157110D01*
X0020393Y0158100D01*
X0017807Y0158100D01*
X0015418Y0157110D01*
X0013590Y0155282D01*
X0012600Y0152893D01*
X0012600Y0150307D01*
X0013590Y0147918D01*
X0015418Y0146090D01*
X0017807Y0145100D01*
X0020393Y0145100D01*
X0023332Y0146640D02*
X0072368Y0146640D01*
X0071169Y0147838D02*
X0047906Y0147838D01*
X0047868Y0147800D02*
X0049098Y0149030D01*
X0049098Y0150770D01*
X0047868Y0152000D01*
X0046128Y0152000D01*
X0045728Y0151600D01*
X0029468Y0151600D01*
X0028968Y0152100D01*
X0027228Y0152100D01*
X0025998Y0150870D01*
X0025998Y0149130D01*
X0027228Y0147900D01*
X0028968Y0147900D01*
X0029268Y0148200D01*
X0045728Y0148200D01*
X0046128Y0147800D01*
X0047868Y0147800D01*
X0049098Y0149037D02*
X0070626Y0149037D01*
X0070130Y0150235D02*
X0049098Y0150235D01*
X0048434Y0151434D02*
X0070100Y0151434D01*
X0070100Y0152632D02*
X0025600Y0152632D01*
X0025600Y0151434D02*
X0026562Y0151434D01*
X0025998Y0150235D02*
X0025570Y0150235D01*
X0025074Y0149037D02*
X0026091Y0149037D01*
X0024531Y0147838D02*
X0046090Y0147838D01*
X0050730Y0164500D02*
X0052470Y0164500D01*
X0120730Y0164500D01*
X0122470Y0164500D01*
X0132470Y0174500D01*
X0133700Y0175730D01*
X0133700Y0247470D01*
X0122470Y0258700D01*
X0050730Y0258700D01*
X0049500Y0257470D01*
X0040730Y0248700D01*
X0039500Y0247470D01*
X0039500Y0175730D01*
X0050730Y0164500D01*
X0050613Y0164617D02*
X0012100Y0164617D01*
X0012100Y0163419D02*
X0160000Y0163419D01*
X0160000Y0164617D02*
X0122587Y0164617D01*
X0123786Y0165816D02*
X0160000Y0165816D01*
X0160000Y0167014D02*
X0124984Y0167014D01*
X0126183Y0168213D02*
X0160000Y0168213D01*
X0160000Y0169411D02*
X0127381Y0169411D01*
X0128580Y0170610D02*
X0160000Y0170610D01*
X0160000Y0171808D02*
X0129778Y0171808D01*
X0130977Y0173007D02*
X0160000Y0173007D01*
X0160000Y0174205D02*
X0132175Y0174205D01*
X0133374Y0175404D02*
X0160000Y0175404D01*
X0160000Y0176603D02*
X0133700Y0176603D01*
X0133700Y0177801D02*
X0160000Y0177801D01*
X0160000Y0179000D02*
X0133700Y0179000D01*
X0133700Y0180198D02*
X0160000Y0180198D01*
X0160000Y0181397D02*
X0133700Y0181397D01*
X0133700Y0182595D02*
X0160000Y0182595D01*
X0160000Y0183794D02*
X0133700Y0183794D01*
X0133700Y0184992D02*
X0160000Y0184992D01*
X0160000Y0186191D02*
X0133700Y0186191D01*
X0133700Y0187389D02*
X0160000Y0187389D01*
X0160000Y0188588D02*
X0133700Y0188588D01*
X0133700Y0189786D02*
X0160000Y0189786D01*
X0160000Y0190985D02*
X0133700Y0190985D01*
X0133700Y0192183D02*
X0160000Y0192183D01*
X0160000Y0193382D02*
X0133700Y0193382D01*
X0133700Y0194580D02*
X0160000Y0194580D01*
X0160000Y0195779D02*
X0149531Y0195779D01*
X0150282Y0196090D02*
X0152110Y0197918D01*
X0153100Y0200307D01*
X0153100Y0202893D01*
X0152110Y0205282D01*
X0150282Y0207110D01*
X0147893Y0208100D01*
X0145307Y0208100D01*
X0142918Y0207110D01*
X0141090Y0205282D01*
X0140100Y0202893D01*
X0140100Y0200307D01*
X0141090Y0197918D01*
X0142918Y0196090D01*
X0145307Y0195100D01*
X0147893Y0195100D01*
X0150282Y0196090D01*
X0151170Y0196977D02*
X0160000Y0196977D01*
X0160000Y0198176D02*
X0152217Y0198176D01*
X0152714Y0199374D02*
X0160000Y0199374D01*
X0160000Y0200573D02*
X0153100Y0200573D01*
X0153100Y0201771D02*
X0160000Y0201771D01*
X0160000Y0202970D02*
X0153068Y0202970D01*
X0152572Y0204168D02*
X0160000Y0204168D01*
X0160000Y0205367D02*
X0152026Y0205367D01*
X0150827Y0206565D02*
X0160000Y0206565D01*
X0160000Y0207764D02*
X0148705Y0207764D01*
X0144495Y0207764D02*
X0133700Y0207764D01*
X0133700Y0208962D02*
X0160000Y0208962D01*
X0160000Y0210161D02*
X0133700Y0210161D01*
X0133700Y0211359D02*
X0160000Y0211359D01*
X0160000Y0212558D02*
X0133700Y0212558D01*
X0133700Y0213756D02*
X0160000Y0213756D01*
X0160000Y0214955D02*
X0133700Y0214955D01*
X0133700Y0216153D02*
X0142854Y0216153D01*
X0142918Y0216090D02*
X0145307Y0215100D01*
X0147893Y0215100D01*
X0150282Y0216090D01*
X0152110Y0217918D01*
X0153100Y0220307D01*
X0153100Y0222893D01*
X0152110Y0225282D01*
X0150282Y0227110D01*
X0147893Y0228100D01*
X0145307Y0228100D01*
X0142918Y0227110D01*
X0141090Y0225282D01*
X0140100Y0222893D01*
X0140100Y0220307D01*
X0141090Y0217918D01*
X0142918Y0216090D01*
X0141656Y0217352D02*
X0133700Y0217352D01*
X0133700Y0218550D02*
X0140828Y0218550D01*
X0140331Y0219749D02*
X0133700Y0219749D01*
X0133700Y0220947D02*
X0140100Y0220947D01*
X0140100Y0222146D02*
X0133700Y0222146D01*
X0133700Y0223344D02*
X0140287Y0223344D01*
X0140783Y0224543D02*
X0133700Y0224543D01*
X0133700Y0225741D02*
X0141549Y0225741D01*
X0142748Y0226940D02*
X0133700Y0226940D01*
X0133700Y0228139D02*
X0160000Y0228139D01*
X0160000Y0229337D02*
X0133700Y0229337D01*
X0133700Y0230536D02*
X0160000Y0230536D01*
X0160000Y0231734D02*
X0133700Y0231734D01*
X0133700Y0232933D02*
X0160000Y0232933D01*
X0160000Y0234131D02*
X0133700Y0234131D01*
X0133700Y0235330D02*
X0160000Y0235330D01*
X0160000Y0236528D02*
X0133700Y0236528D01*
X0133700Y0237727D02*
X0160000Y0237727D01*
X0160000Y0238925D02*
X0133700Y0238925D01*
X0133700Y0240124D02*
X0160000Y0240124D01*
X0160000Y0241322D02*
X0133700Y0241322D01*
X0133700Y0242521D02*
X0160000Y0242521D01*
X0160000Y0243719D02*
X0133700Y0243719D01*
X0133700Y0244918D02*
X0160000Y0244918D01*
X0160000Y0246116D02*
X0133700Y0246116D01*
X0133700Y0247315D02*
X0160000Y0247315D01*
X0160000Y0248513D02*
X0132657Y0248513D01*
X0131458Y0249712D02*
X0160000Y0249712D01*
X0160000Y0250910D02*
X0130260Y0250910D01*
X0129061Y0252109D02*
X0160000Y0252109D01*
X0160000Y0253307D02*
X0127863Y0253307D01*
X0126664Y0254506D02*
X0160000Y0254506D01*
X0160000Y0255704D02*
X0125466Y0255704D01*
X0124267Y0256903D02*
X0160000Y0256903D01*
X0160000Y0258101D02*
X0123069Y0258101D01*
X0102110Y0267918D02*
X0103100Y0270307D01*
X0103100Y0272893D01*
X0102110Y0275282D01*
X0100282Y0277110D01*
X0097893Y0278100D01*
X0095307Y0278100D01*
X0092918Y0277110D01*
X0091090Y0275282D01*
X0090100Y0272893D01*
X0090100Y0270307D01*
X0091090Y0267918D01*
X0092918Y0266090D01*
X0095307Y0265100D01*
X0097893Y0265100D01*
X0100282Y0266090D01*
X0102110Y0267918D01*
X0101882Y0267689D02*
X0146748Y0267689D01*
X0146700Y0267575D02*
X0146700Y0265625D01*
X0147446Y0263824D01*
X0148824Y0262446D01*
X0150625Y0261700D01*
X0152575Y0261700D01*
X0154376Y0262446D01*
X0155754Y0263824D01*
X0156500Y0265625D01*
X0156500Y0267575D01*
X0155754Y0269376D01*
X0154376Y0270754D01*
X0152575Y0271500D01*
X0150625Y0271500D01*
X0148824Y0270754D01*
X0147446Y0269376D01*
X0146700Y0267575D01*
X0146700Y0266491D02*
X0100683Y0266491D01*
X0098357Y0265292D02*
X0146838Y0265292D01*
X0147334Y0264094D02*
X0025866Y0264094D01*
X0025754Y0263824D02*
X0026500Y0265625D01*
X0026500Y0267575D01*
X0025754Y0269376D01*
X0024376Y0270754D01*
X0022575Y0271500D01*
X0020625Y0271500D01*
X0018824Y0270754D01*
X0017446Y0269376D01*
X0016700Y0267575D01*
X0016700Y0265625D01*
X0017446Y0263824D01*
X0018824Y0262446D01*
X0020625Y0261700D01*
X0022575Y0261700D01*
X0024376Y0262446D01*
X0025754Y0263824D01*
X0024825Y0262895D02*
X0148375Y0262895D01*
X0147244Y0268888D02*
X0102512Y0268888D01*
X0103009Y0270086D02*
X0148157Y0270086D01*
X0150106Y0271285D02*
X0103100Y0271285D01*
X0103100Y0272483D02*
X0148787Y0272483D01*
X0147588Y0273682D02*
X0102773Y0273682D01*
X0102277Y0274880D02*
X0147009Y0274880D01*
X0146700Y0276079D02*
X0101313Y0276079D01*
X0099879Y0277277D02*
X0146700Y0277277D01*
X0147073Y0278476D02*
X0026127Y0278476D01*
X0026500Y0277277D02*
X0073321Y0277277D01*
X0072918Y0277110D02*
X0071090Y0275282D01*
X0070100Y0272893D01*
X0070100Y0270307D01*
X0071090Y0267918D01*
X0072918Y0266090D01*
X0075307Y0265100D01*
X0077893Y0265100D01*
X0080282Y0266090D01*
X0082110Y0267918D01*
X0083100Y0270307D01*
X0083100Y0272893D01*
X0082110Y0275282D01*
X0080282Y0277110D01*
X0077893Y0278100D01*
X0075307Y0278100D01*
X0072918Y0277110D01*
X0071887Y0276079D02*
X0026500Y0276079D01*
X0026191Y0274880D02*
X0070923Y0274880D01*
X0070427Y0273682D02*
X0025612Y0273682D01*
X0024413Y0272483D02*
X0070100Y0272483D01*
X0070100Y0271285D02*
X0023094Y0271285D01*
X0025043Y0270086D02*
X0070191Y0270086D01*
X0070688Y0268888D02*
X0025956Y0268888D01*
X0026452Y0267689D02*
X0071318Y0267689D01*
X0072517Y0266491D02*
X0026500Y0266491D01*
X0026362Y0265292D02*
X0074843Y0265292D01*
X0078357Y0265292D02*
X0094843Y0265292D01*
X0092517Y0266491D02*
X0080683Y0266491D01*
X0081882Y0267689D02*
X0091318Y0267689D01*
X0090688Y0268888D02*
X0082512Y0268888D01*
X0083009Y0270086D02*
X0090191Y0270086D01*
X0090100Y0271285D02*
X0083100Y0271285D01*
X0083100Y0272483D02*
X0090100Y0272483D01*
X0090427Y0273682D02*
X0082773Y0273682D01*
X0082277Y0274880D02*
X0090923Y0274880D01*
X0091887Y0276079D02*
X0081313Y0276079D01*
X0079879Y0277277D02*
X0093321Y0277277D01*
X0050131Y0258101D02*
X0012100Y0258101D01*
X0012100Y0256903D02*
X0048933Y0256903D01*
X0047734Y0255704D02*
X0012100Y0255704D01*
X0012100Y0254506D02*
X0046536Y0254506D01*
X0045337Y0253307D02*
X0012100Y0253307D01*
X0012100Y0252109D02*
X0044139Y0252109D01*
X0042940Y0250910D02*
X0012100Y0250910D01*
X0012100Y0249712D02*
X0041742Y0249712D01*
X0040543Y0248513D02*
X0012100Y0248513D01*
X0012100Y0247315D02*
X0039500Y0247315D01*
X0039500Y0246116D02*
X0012100Y0246116D01*
X0012100Y0244918D02*
X0039500Y0244918D01*
X0039500Y0243719D02*
X0012100Y0243719D01*
X0012100Y0242521D02*
X0039500Y0242521D01*
X0039500Y0241322D02*
X0012100Y0241322D01*
X0012100Y0240124D02*
X0039500Y0240124D01*
X0039500Y0238925D02*
X0012100Y0238925D01*
X0012100Y0237727D02*
X0039500Y0237727D01*
X0039500Y0236528D02*
X0012100Y0236528D01*
X0012100Y0235330D02*
X0039500Y0235330D01*
X0039500Y0234131D02*
X0012100Y0234131D01*
X0012100Y0232933D02*
X0039500Y0232933D01*
X0039500Y0231734D02*
X0012100Y0231734D01*
X0012100Y0230536D02*
X0039500Y0230536D01*
X0039500Y0229337D02*
X0012100Y0229337D01*
X0012100Y0228139D02*
X0039500Y0228139D01*
X0039500Y0226940D02*
X0030452Y0226940D01*
X0030282Y0227110D02*
X0027893Y0228100D01*
X0025307Y0228100D01*
X0022918Y0227110D01*
X0021090Y0225282D01*
X0020100Y0222893D01*
X0020100Y0220307D01*
X0021090Y0217918D01*
X0022918Y0216090D01*
X0025307Y0215100D01*
X0027893Y0215100D01*
X0030282Y0216090D01*
X0032110Y0217918D01*
X0033100Y0220307D01*
X0033100Y0222893D01*
X0032110Y0225282D01*
X0030282Y0227110D01*
X0031651Y0225741D02*
X0039500Y0225741D01*
X0039500Y0224543D02*
X0032417Y0224543D01*
X0032913Y0223344D02*
X0039500Y0223344D01*
X0039500Y0222146D02*
X0033100Y0222146D01*
X0033100Y0220947D02*
X0039500Y0220947D01*
X0039500Y0219749D02*
X0032869Y0219749D01*
X0032372Y0218550D02*
X0039500Y0218550D01*
X0039500Y0217352D02*
X0031544Y0217352D01*
X0030346Y0216153D02*
X0039500Y0216153D01*
X0039500Y0214955D02*
X0012100Y0214955D01*
X0012100Y0216153D02*
X0022854Y0216153D01*
X0021656Y0217352D02*
X0012100Y0217352D01*
X0012100Y0218550D02*
X0020828Y0218550D01*
X0020331Y0219749D02*
X0012100Y0219749D01*
X0012100Y0220947D02*
X0020100Y0220947D01*
X0020100Y0222146D02*
X0012100Y0222146D01*
X0012100Y0223344D02*
X0020287Y0223344D01*
X0020783Y0224543D02*
X0012100Y0224543D01*
X0012100Y0225741D02*
X0021549Y0225741D01*
X0022748Y0226940D02*
X0012100Y0226940D01*
X0008900Y0226940D02*
X0008700Y0226940D01*
X0008700Y0225741D02*
X0008900Y0225741D01*
X0008900Y0224543D02*
X0008700Y0224543D01*
X0008700Y0223344D02*
X0008900Y0223344D01*
X0008900Y0222146D02*
X0008700Y0222146D01*
X0008700Y0220947D02*
X0008900Y0220947D01*
X0008900Y0219749D02*
X0008700Y0219749D01*
X0008700Y0218550D02*
X0008900Y0218550D01*
X0008900Y0217352D02*
X0008700Y0217352D01*
X0008700Y0216153D02*
X0008900Y0216153D01*
X0008900Y0214955D02*
X0008700Y0214955D01*
X0008700Y0213756D02*
X0008900Y0213756D01*
X0008900Y0212558D02*
X0008700Y0212558D01*
X0008700Y0211359D02*
X0008900Y0211359D01*
X0008900Y0210161D02*
X0008700Y0210161D01*
X0008700Y0208962D02*
X0008900Y0208962D01*
X0008900Y0207764D02*
X0008700Y0207764D01*
X0008700Y0206565D02*
X0008900Y0206565D01*
X0008900Y0205367D02*
X0008700Y0205367D01*
X0008700Y0204168D02*
X0008900Y0204168D01*
X0008900Y0202970D02*
X0008700Y0202970D01*
X0008700Y0201771D02*
X0008900Y0201771D01*
X0008900Y0200573D02*
X0008700Y0200573D01*
X0008700Y0199374D02*
X0008900Y0199374D01*
X0008900Y0198176D02*
X0008700Y0198176D01*
X0008700Y0196977D02*
X0008900Y0196977D01*
X0008900Y0195779D02*
X0008700Y0195779D01*
X0008700Y0194580D02*
X0008900Y0194580D01*
X0008900Y0193382D02*
X0008700Y0193382D01*
X0008700Y0192183D02*
X0008900Y0192183D01*
X0008900Y0190985D02*
X0008700Y0190985D01*
X0008700Y0189786D02*
X0008900Y0189786D01*
X0008900Y0188588D02*
X0008700Y0188588D01*
X0008700Y0187389D02*
X0008900Y0187389D01*
X0008900Y0186191D02*
X0008700Y0186191D01*
X0008700Y0184992D02*
X0008900Y0184992D01*
X0008900Y0183794D02*
X0008700Y0183794D01*
X0008700Y0182595D02*
X0008900Y0182595D01*
X0008900Y0181397D02*
X0008700Y0181397D01*
X0008700Y0180198D02*
X0008900Y0180198D01*
X0008900Y0179000D02*
X0008700Y0179000D01*
X0008700Y0177801D02*
X0008900Y0177801D01*
X0008900Y0176603D02*
X0008700Y0176603D01*
X0008700Y0175404D02*
X0008900Y0175404D01*
X0008900Y0174205D02*
X0008700Y0174205D01*
X0008700Y0173007D02*
X0008900Y0173007D01*
X0008900Y0171808D02*
X0008700Y0171808D01*
X0008700Y0170610D02*
X0008900Y0170610D01*
X0008900Y0169411D02*
X0008700Y0169411D01*
X0008700Y0168213D02*
X0008900Y0168213D01*
X0008900Y0167014D02*
X0008700Y0167014D01*
X0008700Y0165816D02*
X0008900Y0165816D01*
X0008900Y0164617D02*
X0008700Y0164617D01*
X0008700Y0163419D02*
X0008900Y0163419D01*
X0008900Y0162220D02*
X0008700Y0162220D01*
X0008700Y0161022D02*
X0008900Y0161022D01*
X0008900Y0159823D02*
X0008700Y0159823D01*
X0008700Y0158625D02*
X0008900Y0158625D01*
X0008900Y0157426D02*
X0008700Y0157426D01*
X0008700Y0156228D02*
X0008900Y0156228D01*
X0008900Y0155029D02*
X0008700Y0155029D01*
X0008700Y0153831D02*
X0008900Y0153831D01*
X0008900Y0152632D02*
X0008700Y0152632D01*
X0008700Y0151434D02*
X0008900Y0151434D01*
X0008900Y0150235D02*
X0008700Y0150235D01*
X0008700Y0149037D02*
X0008900Y0149037D01*
X0008900Y0147838D02*
X0008700Y0147838D01*
X0008700Y0146640D02*
X0008900Y0146640D01*
X0008900Y0145441D02*
X0008700Y0145441D01*
X0008700Y0144243D02*
X0008900Y0144243D01*
X0008900Y0143044D02*
X0008700Y0143044D01*
X0008700Y0141846D02*
X0008900Y0141846D01*
X0008900Y0140647D02*
X0008700Y0140647D01*
X0008700Y0139449D02*
X0008900Y0139449D01*
X0008900Y0138250D02*
X0008700Y0138250D01*
X0008700Y0137052D02*
X0008900Y0137052D01*
X0008900Y0135853D02*
X0008700Y0135853D01*
X0008700Y0134655D02*
X0008900Y0134655D01*
X0008900Y0133456D02*
X0008700Y0133456D01*
X0008700Y0132258D02*
X0008900Y0132258D01*
X0008900Y0131059D02*
X0008700Y0131059D01*
X0008700Y0129861D02*
X0008900Y0129861D01*
X0008900Y0128662D02*
X0008700Y0128662D01*
X0008700Y0127464D02*
X0008900Y0127464D01*
X0008900Y0126265D02*
X0008700Y0126265D01*
X0008700Y0125067D02*
X0008900Y0125067D01*
X0008900Y0123868D02*
X0008700Y0123868D01*
X0008700Y0122670D02*
X0008900Y0122670D01*
X0008900Y0121471D02*
X0008700Y0121471D01*
X0008700Y0120272D02*
X0008900Y0120272D01*
X0008900Y0119074D02*
X0008700Y0119074D01*
X0008700Y0117875D02*
X0008900Y0117875D01*
X0008900Y0116677D02*
X0008700Y0116677D01*
X0008700Y0115478D02*
X0008900Y0115478D01*
X0008900Y0114280D02*
X0008700Y0114280D01*
X0008700Y0113081D02*
X0008900Y0113081D01*
X0008900Y0111883D02*
X0008700Y0111883D01*
X0008700Y0110684D02*
X0008900Y0110684D01*
X0008900Y0109486D02*
X0008700Y0109486D01*
X0008700Y0108287D02*
X0008900Y0108287D01*
X0008900Y0107089D02*
X0008700Y0107089D01*
X0008700Y0105890D02*
X0008900Y0105890D01*
X0008900Y0104692D02*
X0008700Y0104692D01*
X0008700Y0103493D02*
X0008900Y0103493D01*
X0008900Y0102295D02*
X0008700Y0102295D01*
X0008700Y0101096D02*
X0008900Y0101096D01*
X0008900Y0099898D02*
X0008700Y0099898D01*
X0008700Y0098699D02*
X0008900Y0098699D01*
X0008900Y0097501D02*
X0008700Y0097501D01*
X0012100Y0145441D02*
X0016983Y0145441D01*
X0014868Y0146640D02*
X0012100Y0146640D01*
X0012100Y0147838D02*
X0013669Y0147838D01*
X0013126Y0149037D02*
X0012100Y0149037D01*
X0012100Y0150235D02*
X0012630Y0150235D01*
X0012600Y0151434D02*
X0012100Y0151434D01*
X0012100Y0152632D02*
X0012600Y0152632D01*
X0012988Y0153831D02*
X0012100Y0153831D01*
X0012100Y0155029D02*
X0013485Y0155029D01*
X0014535Y0156228D02*
X0012100Y0156228D01*
X0012100Y0157426D02*
X0016181Y0157426D01*
X0012100Y0158625D02*
X0141621Y0158625D01*
X0142819Y0159823D02*
X0012100Y0159823D01*
X0012100Y0161022D02*
X0147050Y0161022D01*
X0149146Y0161022D02*
X0160000Y0161022D01*
X0160000Y0162220D02*
X0012100Y0162220D01*
X0012100Y0165816D02*
X0049414Y0165816D01*
X0048216Y0167014D02*
X0012100Y0167014D01*
X0012100Y0168213D02*
X0047017Y0168213D01*
X0045819Y0169411D02*
X0012100Y0169411D01*
X0012100Y0170610D02*
X0044620Y0170610D01*
X0043422Y0171808D02*
X0012100Y0171808D01*
X0012100Y0173007D02*
X0042223Y0173007D01*
X0041025Y0174205D02*
X0012100Y0174205D01*
X0012100Y0175404D02*
X0039826Y0175404D01*
X0039500Y0176603D02*
X0012100Y0176603D01*
X0012100Y0177801D02*
X0039500Y0177801D01*
X0039500Y0179000D02*
X0012100Y0179000D01*
X0012100Y0180198D02*
X0039500Y0180198D01*
X0039500Y0181397D02*
X0012100Y0181397D01*
X0012100Y0182595D02*
X0039500Y0182595D01*
X0039500Y0183794D02*
X0012100Y0183794D01*
X0012100Y0184992D02*
X0039500Y0184992D01*
X0039500Y0186191D02*
X0012100Y0186191D01*
X0012100Y0187389D02*
X0039500Y0187389D01*
X0039500Y0188588D02*
X0012100Y0188588D01*
X0012100Y0189786D02*
X0039500Y0189786D01*
X0039500Y0190985D02*
X0012100Y0190985D01*
X0012100Y0192183D02*
X0039500Y0192183D01*
X0039500Y0193382D02*
X0012100Y0193382D01*
X0012100Y0194580D02*
X0039500Y0194580D01*
X0039500Y0195779D02*
X0029531Y0195779D01*
X0030282Y0196090D02*
X0032110Y0197918D01*
X0033100Y0200307D01*
X0033100Y0202893D01*
X0032110Y0205282D01*
X0030282Y0207110D01*
X0027893Y0208100D01*
X0025307Y0208100D01*
X0022918Y0207110D01*
X0021090Y0205282D01*
X0020100Y0202893D01*
X0020100Y0200307D01*
X0021090Y0197918D01*
X0022918Y0196090D01*
X0025307Y0195100D01*
X0027893Y0195100D01*
X0030282Y0196090D01*
X0031170Y0196977D02*
X0039500Y0196977D01*
X0039500Y0198176D02*
X0032217Y0198176D01*
X0032714Y0199374D02*
X0039500Y0199374D01*
X0039500Y0200573D02*
X0033100Y0200573D01*
X0033100Y0201771D02*
X0039500Y0201771D01*
X0039500Y0202970D02*
X0033068Y0202970D01*
X0032572Y0204168D02*
X0039500Y0204168D01*
X0039500Y0205367D02*
X0032026Y0205367D01*
X0030827Y0206565D02*
X0039500Y0206565D01*
X0039500Y0207764D02*
X0028705Y0207764D01*
X0024495Y0207764D02*
X0012100Y0207764D01*
X0012100Y0208962D02*
X0039500Y0208962D01*
X0039500Y0210161D02*
X0012100Y0210161D01*
X0012100Y0211359D02*
X0039500Y0211359D01*
X0039500Y0212558D02*
X0012100Y0212558D01*
X0012100Y0213756D02*
X0039500Y0213756D01*
X0022373Y0206565D02*
X0012100Y0206565D01*
X0012100Y0205367D02*
X0021174Y0205367D01*
X0020628Y0204168D02*
X0012100Y0204168D01*
X0012100Y0202970D02*
X0020132Y0202970D01*
X0020100Y0201771D02*
X0012100Y0201771D01*
X0012100Y0200573D02*
X0020100Y0200573D01*
X0020486Y0199374D02*
X0012100Y0199374D01*
X0012100Y0198176D02*
X0020983Y0198176D01*
X0022030Y0196977D02*
X0012100Y0196977D01*
X0012100Y0195779D02*
X0023669Y0195779D01*
X0008900Y0228139D02*
X0008700Y0228139D01*
X0008700Y0229337D02*
X0008900Y0229337D01*
X0008900Y0230536D02*
X0008700Y0230536D01*
X0008700Y0231734D02*
X0008900Y0231734D01*
X0008900Y0232933D02*
X0008700Y0232933D01*
X0008700Y0234131D02*
X0008900Y0234131D01*
X0008900Y0235330D02*
X0008700Y0235330D01*
X0008700Y0236528D02*
X0008900Y0236528D01*
X0008900Y0237727D02*
X0008700Y0237727D01*
X0008700Y0238925D02*
X0008900Y0238925D01*
X0008900Y0240124D02*
X0008700Y0240124D01*
X0008700Y0241322D02*
X0008900Y0241322D01*
X0008900Y0242521D02*
X0008700Y0242521D01*
X0008700Y0243719D02*
X0008900Y0243719D01*
X0008900Y0244918D02*
X0008700Y0244918D01*
X0008700Y0246116D02*
X0008900Y0246116D01*
X0008900Y0247315D02*
X0008700Y0247315D01*
X0008700Y0248513D02*
X0008900Y0248513D01*
X0008900Y0249712D02*
X0008700Y0249712D01*
X0008700Y0250910D02*
X0008900Y0250910D01*
X0008900Y0252109D02*
X0008700Y0252109D01*
X0008700Y0253307D02*
X0008900Y0253307D01*
X0008900Y0254506D02*
X0008700Y0254506D01*
X0008700Y0255704D02*
X0008900Y0255704D01*
X0008900Y0256903D02*
X0008700Y0256903D01*
X0008700Y0258101D02*
X0008900Y0258101D01*
X0008900Y0259300D02*
X0008700Y0259300D01*
X0008700Y0260498D02*
X0008900Y0260498D01*
X0008900Y0261697D02*
X0008700Y0261697D01*
X0008700Y0262895D02*
X0008900Y0262895D01*
X0008900Y0264094D02*
X0008700Y0264094D01*
X0008700Y0265292D02*
X0008900Y0265292D01*
X0008700Y0266491D02*
X0009228Y0266491D01*
X0008700Y0267689D02*
X0010427Y0267689D01*
X0011625Y0268888D02*
X0008700Y0268888D01*
X0008700Y0270086D02*
X0012824Y0270086D01*
X0014022Y0271285D02*
X0008700Y0271285D01*
X0008700Y0272483D02*
X0015221Y0272483D01*
X0016419Y0273682D02*
X0008700Y0273682D01*
X0008700Y0274880D02*
X0017009Y0274880D01*
X0016700Y0276079D02*
X0008700Y0276079D01*
X0008700Y0277277D02*
X0016700Y0277277D01*
X0017073Y0278476D02*
X0008700Y0278476D01*
X0008700Y0279674D02*
X0017745Y0279674D01*
X0019112Y0280873D02*
X0008700Y0280873D01*
X0008700Y0282072D02*
X0018816Y0282072D01*
X0017468Y0283270D02*
X0008740Y0283270D01*
X0009938Y0284469D02*
X0016738Y0284469D01*
X0016382Y0285667D02*
X0011137Y0285667D01*
X0012335Y0286866D02*
X0021200Y0286866D01*
X0022000Y0286866D02*
X0151200Y0286866D01*
X0152000Y0286866D02*
X0160865Y0286866D01*
X0159666Y0288064D02*
X0156697Y0288064D01*
X0156769Y0287841D02*
X0156512Y0288634D01*
X0156133Y0289378D01*
X0155643Y0290053D01*
X0155053Y0290643D01*
X0154378Y0291133D01*
X0153634Y0291512D01*
X0152841Y0291769D01*
X0152017Y0291900D01*
X0152000Y0291900D01*
X0152000Y0287000D01*
X0156900Y0287000D01*
X0156900Y0287017D01*
X0156769Y0287841D01*
X0156192Y0289263D02*
X0158468Y0289263D01*
X0157269Y0290461D02*
X0155234Y0290461D01*
X0156071Y0291660D02*
X0153179Y0291660D01*
X0152000Y0291660D02*
X0151200Y0291660D01*
X0150021Y0291660D02*
X0023179Y0291660D01*
X0022841Y0291769D02*
X0022017Y0291900D01*
X0022000Y0291900D01*
X0022000Y0287000D01*
X0026900Y0287000D01*
X0026900Y0287017D01*
X0026769Y0287841D01*
X0026512Y0288634D01*
X0026133Y0289378D01*
X0025643Y0290053D01*
X0025053Y0290643D01*
X0024378Y0291133D01*
X0023634Y0291512D01*
X0022841Y0291769D01*
X0022000Y0291660D02*
X0021200Y0291660D01*
X0020021Y0291660D02*
X0017129Y0291660D01*
X0017966Y0290461D02*
X0015931Y0290461D01*
X0017008Y0289263D02*
X0014732Y0289263D01*
X0013534Y0288064D02*
X0016503Y0288064D01*
X0021200Y0288064D02*
X0022000Y0288064D01*
X0022000Y0289263D02*
X0021200Y0289263D01*
X0021200Y0290461D02*
X0022000Y0290461D01*
X0025234Y0290461D02*
X0147966Y0290461D01*
X0147008Y0289263D02*
X0026192Y0289263D01*
X0026697Y0288064D02*
X0146503Y0288064D01*
X0146382Y0285667D02*
X0026818Y0285667D01*
X0026462Y0284469D02*
X0146738Y0284469D01*
X0147468Y0283270D02*
X0025732Y0283270D01*
X0024384Y0282072D02*
X0148816Y0282072D01*
X0149112Y0280873D02*
X0024088Y0280873D01*
X0025455Y0279674D02*
X0147745Y0279674D01*
X0154088Y0280873D02*
X0164500Y0280873D01*
X0164500Y0279674D02*
X0155455Y0279674D01*
X0156127Y0278476D02*
X0164500Y0278476D01*
X0164500Y0277277D02*
X0156500Y0277277D01*
X0156500Y0276079D02*
X0164500Y0276079D01*
X0164500Y0274880D02*
X0156191Y0274880D01*
X0156781Y0273682D02*
X0164500Y0273682D01*
X0164500Y0272483D02*
X0157979Y0272483D01*
X0159178Y0271285D02*
X0164500Y0271285D01*
X0164500Y0270086D02*
X0160376Y0270086D01*
X0161575Y0268888D02*
X0164500Y0268888D01*
X0164500Y0267689D02*
X0162773Y0267689D01*
X0163200Y0266491D02*
X0164500Y0266491D01*
X0164500Y0265292D02*
X0163200Y0265292D01*
X0163200Y0264094D02*
X0164500Y0264094D01*
X0164500Y0262895D02*
X0163200Y0262895D01*
X0163200Y0261697D02*
X0164500Y0261697D01*
X0164500Y0260498D02*
X0163200Y0260498D01*
X0163200Y0259300D02*
X0164500Y0259300D01*
X0164500Y0258101D02*
X0163200Y0258101D01*
X0163200Y0256903D02*
X0164500Y0256903D01*
X0164500Y0255704D02*
X0163200Y0255704D01*
X0163200Y0254506D02*
X0164500Y0254506D01*
X0164500Y0253307D02*
X0163200Y0253307D01*
X0163200Y0252109D02*
X0164500Y0252109D01*
X0164500Y0250910D02*
X0163200Y0250910D01*
X0163200Y0249712D02*
X0164500Y0249712D01*
X0164500Y0248513D02*
X0163200Y0248513D01*
X0163200Y0247315D02*
X0164500Y0247315D01*
X0164500Y0246116D02*
X0163200Y0246116D01*
X0163200Y0244918D02*
X0164500Y0244918D01*
X0164500Y0243719D02*
X0163200Y0243719D01*
X0163200Y0242521D02*
X0164500Y0242521D01*
X0164500Y0241322D02*
X0163200Y0241322D01*
X0163200Y0240124D02*
X0164500Y0240124D01*
X0164500Y0238925D02*
X0163200Y0238925D01*
X0163200Y0237727D02*
X0164500Y0237727D01*
X0164500Y0236528D02*
X0163200Y0236528D01*
X0163200Y0235330D02*
X0164500Y0235330D01*
X0164500Y0234131D02*
X0163200Y0234131D01*
X0163200Y0232933D02*
X0164500Y0232933D01*
X0164500Y0231734D02*
X0163200Y0231734D01*
X0163200Y0230536D02*
X0164500Y0230536D01*
X0164500Y0229337D02*
X0163200Y0229337D01*
X0163200Y0228139D02*
X0164500Y0228139D01*
X0164500Y0226940D02*
X0163200Y0226940D01*
X0163200Y0225741D02*
X0164500Y0225741D01*
X0164500Y0224543D02*
X0163200Y0224543D01*
X0163200Y0223344D02*
X0164500Y0223344D01*
X0164500Y0222146D02*
X0163200Y0222146D01*
X0163200Y0220947D02*
X0164500Y0220947D01*
X0164500Y0219749D02*
X0163200Y0219749D01*
X0163200Y0218550D02*
X0164500Y0218550D01*
X0164500Y0217352D02*
X0163200Y0217352D01*
X0163200Y0216153D02*
X0164500Y0216153D01*
X0164500Y0214955D02*
X0163200Y0214955D01*
X0163200Y0213756D02*
X0164500Y0213756D01*
X0164500Y0212558D02*
X0163200Y0212558D01*
X0163200Y0211359D02*
X0164500Y0211359D01*
X0164500Y0210161D02*
X0163200Y0210161D01*
X0163200Y0208962D02*
X0164500Y0208962D01*
X0164500Y0207764D02*
X0163200Y0207764D01*
X0163200Y0206565D02*
X0164500Y0206565D01*
X0164500Y0205367D02*
X0163200Y0205367D01*
X0163200Y0204168D02*
X0164500Y0204168D01*
X0164500Y0202970D02*
X0163200Y0202970D01*
X0163200Y0201771D02*
X0164500Y0201771D01*
X0164500Y0200573D02*
X0163200Y0200573D01*
X0163200Y0199374D02*
X0164500Y0199374D01*
X0164500Y0198176D02*
X0163200Y0198176D01*
X0163200Y0196977D02*
X0164500Y0196977D01*
X0164500Y0195779D02*
X0163200Y0195779D01*
X0163200Y0194580D02*
X0164500Y0194580D01*
X0164500Y0193382D02*
X0163200Y0193382D01*
X0163200Y0192183D02*
X0164500Y0192183D01*
X0164500Y0190985D02*
X0163200Y0190985D01*
X0163200Y0189786D02*
X0164500Y0189786D01*
X0164500Y0188588D02*
X0163200Y0188588D01*
X0163200Y0187389D02*
X0164500Y0187389D01*
X0164500Y0186191D02*
X0163200Y0186191D01*
X0163200Y0184992D02*
X0164500Y0184992D01*
X0164500Y0183794D02*
X0163200Y0183794D01*
X0163200Y0182595D02*
X0164500Y0182595D01*
X0164500Y0181397D02*
X0163200Y0181397D01*
X0163200Y0180198D02*
X0164500Y0180198D01*
X0164500Y0179000D02*
X0163200Y0179000D01*
X0163200Y0177801D02*
X0164500Y0177801D01*
X0164500Y0176603D02*
X0163200Y0176603D01*
X0163200Y0175404D02*
X0164500Y0175404D01*
X0164500Y0174205D02*
X0163200Y0174205D01*
X0163200Y0173007D02*
X0164500Y0173007D01*
X0164500Y0171808D02*
X0163200Y0171808D01*
X0163200Y0170610D02*
X0164500Y0170610D01*
X0164500Y0169411D02*
X0163200Y0169411D01*
X0163200Y0168213D02*
X0164500Y0168213D01*
X0164500Y0167014D02*
X0163200Y0167014D01*
X0163200Y0165816D02*
X0164500Y0165816D01*
X0164500Y0164617D02*
X0163200Y0164617D01*
X0163200Y0163419D02*
X0164500Y0163419D01*
X0164500Y0162220D02*
X0163200Y0162220D01*
X0163200Y0161022D02*
X0164500Y0161022D01*
X0164500Y0159823D02*
X0163200Y0159823D01*
X0163200Y0158625D02*
X0164500Y0158625D01*
X0164500Y0157426D02*
X0163200Y0157426D01*
X0163200Y0156228D02*
X0164500Y0156228D01*
X0164500Y0155029D02*
X0163200Y0155029D01*
X0163200Y0153831D02*
X0164500Y0153831D01*
X0164500Y0152632D02*
X0163200Y0152632D01*
X0163200Y0151434D02*
X0164500Y0151434D01*
X0164500Y0150235D02*
X0163200Y0150235D01*
X0163200Y0149037D02*
X0164500Y0149037D01*
X0164500Y0147838D02*
X0163200Y0147838D01*
X0163200Y0146640D02*
X0164500Y0146640D01*
X0164500Y0145441D02*
X0163200Y0145441D01*
X0163200Y0144243D02*
X0164500Y0144243D01*
X0164500Y0143044D02*
X0163200Y0143044D01*
X0163200Y0141846D02*
X0164500Y0141846D01*
X0164500Y0140647D02*
X0163200Y0140647D01*
X0163200Y0139449D02*
X0164500Y0139449D01*
X0164500Y0138250D02*
X0163200Y0138250D01*
X0163200Y0137052D02*
X0164500Y0137052D01*
X0164500Y0135853D02*
X0163200Y0135853D01*
X0163200Y0134655D02*
X0164500Y0134655D01*
X0164500Y0133456D02*
X0163200Y0133456D01*
X0163200Y0132258D02*
X0164500Y0132258D01*
X0164500Y0131059D02*
X0163200Y0131059D01*
X0163200Y0129861D02*
X0164500Y0129861D01*
X0164500Y0128662D02*
X0163200Y0128662D01*
X0163200Y0127464D02*
X0164500Y0127464D01*
X0164500Y0126265D02*
X0163200Y0126265D01*
X0163200Y0125067D02*
X0164500Y0125067D01*
X0164500Y0123868D02*
X0163200Y0123868D01*
X0163200Y0122670D02*
X0164500Y0122670D01*
X0164500Y0121471D02*
X0163200Y0121471D01*
X0163200Y0120272D02*
X0164500Y0120272D01*
X0164500Y0119074D02*
X0163200Y0119074D01*
X0163200Y0117875D02*
X0164500Y0117875D01*
X0164500Y0116677D02*
X0163200Y0116677D01*
X0163200Y0115478D02*
X0164500Y0115478D01*
X0164500Y0114280D02*
X0163200Y0114280D01*
X0163200Y0113081D02*
X0164500Y0113081D01*
X0164500Y0111883D02*
X0163200Y0111883D01*
X0163200Y0110684D02*
X0164500Y0110684D01*
X0164500Y0109486D02*
X0163200Y0109486D01*
X0163200Y0108287D02*
X0164500Y0108287D01*
X0164500Y0107089D02*
X0163200Y0107089D01*
X0163200Y0105890D02*
X0164500Y0105890D01*
X0164500Y0104692D02*
X0163200Y0104692D01*
X0163200Y0103493D02*
X0164500Y0103493D01*
X0164500Y0102295D02*
X0163200Y0102295D01*
X0163200Y0101096D02*
X0164500Y0101096D01*
X0164500Y0099898D02*
X0163200Y0099898D01*
X0163200Y0098699D02*
X0164500Y0098699D01*
X0164500Y0097501D02*
X0163200Y0097501D01*
X0163200Y0096302D02*
X0164500Y0096302D01*
X0164500Y0095104D02*
X0163200Y0095104D01*
X0163200Y0093905D02*
X0164500Y0093905D01*
X0164500Y0092707D02*
X0163200Y0092707D01*
X0163200Y0091508D02*
X0164500Y0091508D01*
X0164500Y0090310D02*
X0163200Y0090310D01*
X0163200Y0089111D02*
X0164500Y0089111D01*
X0164500Y0087913D02*
X0163200Y0087913D01*
X0163200Y0086714D02*
X0164500Y0086714D01*
X0164500Y0085516D02*
X0163200Y0085516D01*
X0163200Y0084317D02*
X0164500Y0084317D01*
X0164500Y0083119D02*
X0163200Y0083119D01*
X0163200Y0081920D02*
X0164500Y0081920D01*
X0164500Y0080722D02*
X0163200Y0080722D01*
X0163200Y0079523D02*
X0164500Y0079523D01*
X0164500Y0078325D02*
X0163200Y0078325D01*
X0163200Y0077126D02*
X0164500Y0077126D01*
X0164500Y0075928D02*
X0163200Y0075928D01*
X0163200Y0074729D02*
X0164500Y0074729D01*
X0164500Y0073531D02*
X0163200Y0073531D01*
X0163200Y0072332D02*
X0164500Y0072332D01*
X0164500Y0071134D02*
X0163200Y0071134D01*
X0163200Y0069935D02*
X0164500Y0069935D01*
X0164500Y0068737D02*
X0163200Y0068737D01*
X0163200Y0067538D02*
X0164500Y0067538D01*
X0164500Y0066339D02*
X0163200Y0066339D01*
X0163200Y0065141D02*
X0164500Y0065141D01*
X0164500Y0063942D02*
X0163200Y0063942D01*
X0163200Y0062744D02*
X0164500Y0062744D01*
X0164500Y0061545D02*
X0163200Y0061545D01*
X0163200Y0060347D02*
X0164500Y0060347D01*
X0164500Y0059148D02*
X0163200Y0059148D01*
X0163200Y0057950D02*
X0164500Y0057950D01*
X0164500Y0056751D02*
X0163200Y0056751D01*
X0163200Y0055553D02*
X0164500Y0055553D01*
X0164500Y0054354D02*
X0163200Y0054354D01*
X0163200Y0053156D02*
X0164500Y0053156D01*
X0164500Y0051957D02*
X0163200Y0051957D01*
X0163200Y0050759D02*
X0164500Y0050759D01*
X0164500Y0049560D02*
X0163200Y0049560D01*
X0163125Y0048362D02*
X0164500Y0048362D01*
X0164500Y0047163D02*
X0161926Y0047163D01*
X0161998Y0045965D02*
X0164500Y0045965D01*
X0164500Y0044766D02*
X0163196Y0044766D01*
X0164300Y0043568D02*
X0164500Y0043568D01*
X0164500Y0042369D02*
X0164300Y0042369D01*
X0164300Y0041171D02*
X0164500Y0041171D01*
X0164500Y0039972D02*
X0164300Y0039972D01*
X0164300Y0038774D02*
X0164500Y0038774D01*
X0164500Y0037575D02*
X0164300Y0037575D01*
X0164300Y0036377D02*
X0164500Y0036377D01*
X0164500Y0035178D02*
X0164300Y0035178D01*
X0164300Y0033980D02*
X0164500Y0033980D01*
X0164500Y0032781D02*
X0164300Y0032781D01*
X0164300Y0031583D02*
X0164500Y0031583D01*
X0164500Y0030384D02*
X0164300Y0030384D01*
X0164300Y0029186D02*
X0164500Y0029186D01*
X0164500Y0027987D02*
X0164300Y0027987D01*
X0164500Y0026789D02*
X0163966Y0026789D01*
X0164500Y0025590D02*
X0162800Y0025590D01*
X0162800Y0024392D02*
X0164500Y0024392D01*
X0164500Y0023193D02*
X0162800Y0023193D01*
X0162800Y0021995D02*
X0164500Y0021995D01*
X0164500Y0020796D02*
X0163046Y0020796D01*
X0163200Y0019598D02*
X0164500Y0019598D01*
X0164500Y0018399D02*
X0163200Y0018399D01*
X0164231Y0017201D02*
X0157200Y0017201D01*
X0161100Y0035178D02*
X0150426Y0035178D01*
X0149800Y0036377D02*
X0161100Y0036377D01*
X0161100Y0037575D02*
X0149800Y0037575D01*
X0149800Y0038774D02*
X0161100Y0038774D01*
X0161100Y0039972D02*
X0149800Y0039972D01*
X0150141Y0041171D02*
X0161100Y0041171D01*
X0161068Y0042369D02*
X0150200Y0042369D01*
X0149602Y0043568D02*
X0159869Y0043568D01*
X0160000Y0075928D02*
X0149891Y0075928D01*
X0151318Y0077126D02*
X0160000Y0077126D01*
X0160000Y0078325D02*
X0152279Y0078325D01*
X0152775Y0079523D02*
X0160000Y0079523D01*
X0160000Y0080722D02*
X0153100Y0080722D01*
X0153100Y0081920D02*
X0160000Y0081920D01*
X0160000Y0083119D02*
X0153006Y0083119D01*
X0152510Y0084317D02*
X0160000Y0084317D01*
X0160000Y0085516D02*
X0151877Y0085516D01*
X0150678Y0086714D02*
X0160000Y0086714D01*
X0160000Y0109486D02*
X0140300Y0109486D01*
X0140300Y0110684D02*
X0160000Y0110684D01*
X0160000Y0111883D02*
X0140300Y0111883D01*
X0140300Y0113081D02*
X0160000Y0113081D01*
X0160000Y0114280D02*
X0140300Y0114280D01*
X0140300Y0115478D02*
X0160000Y0115478D01*
X0160000Y0116677D02*
X0140300Y0116677D01*
X0140300Y0117875D02*
X0160000Y0117875D01*
X0160000Y0119074D02*
X0140300Y0119074D01*
X0140300Y0120272D02*
X0160000Y0120272D01*
X0160000Y0121471D02*
X0140300Y0121471D01*
X0140300Y0122670D02*
X0160000Y0122670D01*
X0160000Y0123868D02*
X0140300Y0123868D01*
X0140300Y0125067D02*
X0160000Y0125067D01*
X0160000Y0126265D02*
X0140300Y0126265D01*
X0140300Y0127464D02*
X0160000Y0127464D01*
X0160000Y0128662D02*
X0140300Y0128662D01*
X0140300Y0129861D02*
X0160000Y0129861D01*
X0160000Y0131059D02*
X0140300Y0131059D01*
X0140300Y0132258D02*
X0160000Y0132258D01*
X0160000Y0133456D02*
X0140300Y0133456D01*
X0140300Y0134655D02*
X0160000Y0134655D01*
X0160000Y0135853D02*
X0140300Y0135853D01*
X0140300Y0137052D02*
X0160000Y0137052D01*
X0160000Y0138250D02*
X0140300Y0138250D01*
X0140300Y0139449D02*
X0160000Y0139449D01*
X0160000Y0140647D02*
X0140300Y0140647D01*
X0140300Y0141846D02*
X0160000Y0141846D01*
X0160000Y0143044D02*
X0140300Y0143044D01*
X0140300Y0144243D02*
X0160000Y0144243D01*
X0160000Y0145441D02*
X0156217Y0145441D01*
X0158332Y0146640D02*
X0160000Y0146640D01*
X0160000Y0147838D02*
X0159531Y0147838D01*
X0159715Y0155029D02*
X0160000Y0155029D01*
X0160000Y0156228D02*
X0158665Y0156228D01*
X0160000Y0157426D02*
X0157019Y0157426D01*
X0160000Y0158625D02*
X0150198Y0158625D01*
X0150198Y0159823D02*
X0160000Y0159823D01*
X0151181Y0157426D02*
X0149394Y0157426D01*
X0149535Y0156228D02*
X0144032Y0156228D01*
X0142833Y0155029D02*
X0148485Y0155029D01*
X0147988Y0153831D02*
X0141635Y0153831D01*
X0140500Y0152632D02*
X0147600Y0152632D01*
X0147600Y0151434D02*
X0139804Y0151434D01*
X0140432Y0147838D02*
X0148669Y0147838D01*
X0149868Y0146640D02*
X0140800Y0146640D01*
X0140511Y0145441D02*
X0151983Y0145441D01*
X0137100Y0138250D02*
X0122920Y0138250D01*
X0124118Y0137052D02*
X0137100Y0137052D01*
X0137100Y0135853D02*
X0125317Y0135853D01*
X0126515Y0134655D02*
X0137100Y0134655D01*
X0137100Y0133456D02*
X0127714Y0133456D01*
X0128912Y0132258D02*
X0137100Y0132258D01*
X0137100Y0131059D02*
X0130111Y0131059D01*
X0131309Y0129861D02*
X0137100Y0129861D01*
X0137100Y0128662D02*
X0132508Y0128662D01*
X0133700Y0127464D02*
X0137100Y0127464D01*
X0137100Y0126265D02*
X0133700Y0126265D01*
X0133700Y0125067D02*
X0137100Y0125067D01*
X0137100Y0123868D02*
X0133700Y0123868D01*
X0133700Y0122670D02*
X0137100Y0122670D01*
X0137100Y0121471D02*
X0133700Y0121471D01*
X0133700Y0120272D02*
X0137100Y0120272D01*
X0137100Y0119074D02*
X0133700Y0119074D01*
X0133700Y0117875D02*
X0137100Y0117875D01*
X0137100Y0116677D02*
X0133700Y0116677D01*
X0133700Y0115478D02*
X0137100Y0115478D01*
X0137100Y0114280D02*
X0133700Y0114280D01*
X0133700Y0113081D02*
X0137100Y0113081D01*
X0137100Y0111883D02*
X0133700Y0111883D01*
X0133700Y0110684D02*
X0137100Y0110684D01*
X0137100Y0109486D02*
X0133700Y0109486D01*
X0133700Y0108287D02*
X0137100Y0108287D01*
X0137100Y0107089D02*
X0133700Y0107089D01*
X0133700Y0105890D02*
X0137100Y0105890D01*
X0137100Y0104692D02*
X0133700Y0104692D01*
X0140300Y0098699D02*
X0140766Y0098699D01*
X0140300Y0097501D02*
X0141507Y0097501D01*
X0142705Y0096302D02*
X0140300Y0096302D01*
X0105400Y0012406D02*
X0098200Y0012406D01*
X0098200Y0011208D02*
X0105400Y0011208D01*
X0105400Y0010009D02*
X0098200Y0010009D01*
X0098179Y0008811D02*
X0105400Y0008811D01*
X0070488Y0153831D02*
X0025212Y0153831D01*
X0024715Y0155029D02*
X0070985Y0155029D01*
X0072035Y0156228D02*
X0023665Y0156228D01*
X0022019Y0157426D02*
X0073681Y0157426D01*
X0133700Y0195779D02*
X0143669Y0195779D01*
X0142030Y0196977D02*
X0133700Y0196977D01*
X0133700Y0198176D02*
X0140983Y0198176D01*
X0140486Y0199374D02*
X0133700Y0199374D01*
X0133700Y0200573D02*
X0140100Y0200573D01*
X0140100Y0201771D02*
X0133700Y0201771D01*
X0133700Y0202970D02*
X0140132Y0202970D01*
X0140628Y0204168D02*
X0133700Y0204168D01*
X0133700Y0205367D02*
X0141174Y0205367D01*
X0142373Y0206565D02*
X0133700Y0206565D01*
X0150346Y0216153D02*
X0160000Y0216153D01*
X0160000Y0217352D02*
X0151544Y0217352D01*
X0152372Y0218550D02*
X0160000Y0218550D01*
X0160000Y0219749D02*
X0152869Y0219749D01*
X0153100Y0220947D02*
X0160000Y0220947D01*
X0160000Y0222146D02*
X0153100Y0222146D01*
X0152913Y0223344D02*
X0160000Y0223344D01*
X0160000Y0224543D02*
X0152417Y0224543D01*
X0151651Y0225741D02*
X0160000Y0225741D01*
X0160000Y0226940D02*
X0150452Y0226940D01*
X0160000Y0259300D02*
X0012100Y0259300D01*
X0012100Y0260498D02*
X0160000Y0260498D01*
X0160000Y0261697D02*
X0012100Y0261697D01*
X0012100Y0262895D02*
X0018375Y0262895D01*
X0017334Y0264094D02*
X0012100Y0264094D01*
X0012555Y0265292D02*
X0016838Y0265292D01*
X0016700Y0266491D02*
X0013754Y0266491D01*
X0014952Y0267689D02*
X0016748Y0267689D01*
X0017244Y0268888D02*
X0016151Y0268888D01*
X0017349Y0270086D02*
X0018157Y0270086D01*
X0018548Y0271285D02*
X0020106Y0271285D01*
X0151200Y0288064D02*
X0152000Y0288064D01*
X0152000Y0289263D02*
X0151200Y0289263D01*
X0151200Y0290461D02*
X0152000Y0290461D01*
X0155732Y0283270D02*
X0164460Y0283270D01*
X0164500Y0282072D02*
X0154384Y0282072D01*
X0156462Y0284469D02*
X0163262Y0284469D01*
X0162063Y0285667D02*
X0156818Y0285667D01*
X0154652Y0271285D02*
X0153094Y0271285D01*
X0155043Y0270086D02*
X0155851Y0270086D01*
X0155956Y0268888D02*
X0157049Y0268888D01*
X0156452Y0267689D02*
X0158248Y0267689D01*
X0159446Y0266491D02*
X0156500Y0266491D01*
X0156362Y0265292D02*
X0160000Y0265292D01*
X0160000Y0264094D02*
X0155866Y0264094D01*
X0154825Y0262895D02*
X0160000Y0262895D01*
D15*
X0148098Y0159100D02*
X0144500Y0159100D01*
X0138400Y0153000D01*
X0148100Y0042100D02*
X0148100Y0035100D01*
X0152600Y0030600D01*
X0156600Y0030600D01*
X0111662Y0016662D02*
X0109100Y0014100D01*
X0079100Y0014100D02*
X0063400Y0029800D01*
X0055300Y0029800D01*
X0028098Y0040481D02*
X0026481Y0040481D01*
X0016600Y0030600D01*
X0028202Y0149900D02*
X0028100Y0150002D01*
X0028098Y0150000D01*
X0028202Y0149900D02*
X0046998Y0149900D01*
D16*
X0046998Y0149900D03*
X0028098Y0150000D03*
X0028098Y0040481D03*
X0055300Y0029800D03*
X0138700Y0146600D03*
X0138400Y0153000D03*
X0148098Y0159100D03*
X0148100Y0042100D03*
D17*
X0152634Y0024100D02*
X0145196Y0016662D01*
X0111662Y0016662D01*
X0138700Y0025140D02*
X0140670Y0023170D01*
X0138700Y0025140D02*
X0138700Y0146600D01*
X0161600Y0049100D02*
X0159100Y0046600D01*
X0162700Y0043000D01*
X0162700Y0027786D01*
X0160264Y0025350D01*
X0157850Y0025350D01*
X0156600Y0024100D01*
X0152634Y0024100D01*
X0161600Y0049100D02*
X0161600Y0266600D01*
X0151600Y0276600D01*
X0021600Y0276600D02*
X0010500Y0265500D01*
X0010500Y0026220D01*
X0012620Y0024100D01*
X0016600Y0024100D01*
X0031600Y0024100D01*
X0041600Y0014100D01*
X0064100Y0014100D01*
M02*
