G75*
%MOIN*%
%OFA0B0*%
%FSLAX25Y25*%
%IPPOS*%
%LPD*%
%AMOC8*
5,1,8,0,0,1.08239X$1,22.5*
%
%ADD10C,0.10800*%
%ADD11R,0.04300X0.03000*%
%ADD12R,0.04300X0.02300*%
%ADD13R,0.04300X0.03700*%
%ADD14R,0.04300X0.03400*%
%ADD15R,0.03000X0.04300*%
%ADD16R,0.02300X0.04300*%
%ADD17R,0.03700X0.04300*%
%ADD18R,0.03400X0.04300*%
%ADD19R,0.06706X0.05918*%
%ADD20R,0.04146X0.04737*%
%ADD21C,0.08200*%
%ADD22R,0.03950X0.03950*%
D10*
X0026600Y0081600D03*
X0026600Y0101600D03*
X0019100Y0151600D03*
X0026600Y0201600D03*
X0026600Y0221600D03*
X0076600Y0271600D03*
X0096600Y0271600D03*
X0146600Y0221600D03*
X0146600Y0201600D03*
X0154100Y0151600D03*
X0146600Y0101600D03*
X0146600Y0081600D03*
X0096600Y0031600D03*
X0076600Y0031600D03*
X0076600Y0151600D03*
X0096600Y0151600D03*
D11*
X0131700Y0153200D03*
X0131700Y0033200D03*
X0041600Y0030000D03*
X0041600Y0149900D03*
X0041600Y0270000D03*
X0131700Y0273200D03*
D12*
X0131700Y0269100D03*
X0131700Y0149100D03*
X0131700Y0029100D03*
X0041600Y0034100D03*
X0041600Y0154000D03*
X0041600Y0274100D03*
D13*
X0041600Y0264700D03*
X0041600Y0144600D03*
X0041600Y0024700D03*
X0131700Y0038500D03*
X0131700Y0158500D03*
X0131700Y0278500D03*
D14*
X0131700Y0264700D03*
X0131700Y0144700D03*
X0131700Y0024700D03*
X0041600Y0038500D03*
X0041600Y0158400D03*
X0041600Y0278500D03*
D15*
X0025000Y0256600D03*
X0028200Y0166600D03*
X0025000Y0136600D03*
X0028200Y0046600D03*
X0145000Y0136600D03*
X0148200Y0166600D03*
X0145000Y0256600D03*
X0148200Y0046600D03*
D16*
X0144100Y0046600D03*
X0149100Y0136600D03*
X0144100Y0166600D03*
X0149100Y0256600D03*
X0029100Y0256600D03*
X0024100Y0166600D03*
X0029100Y0136600D03*
X0024100Y0046600D03*
D17*
X0033500Y0046600D03*
X0019700Y0136600D03*
X0033500Y0166600D03*
X0019700Y0256600D03*
X0139700Y0256600D03*
X0153500Y0166600D03*
X0139700Y0136600D03*
X0153500Y0046600D03*
D18*
X0019700Y0046600D03*
X0033500Y0136600D03*
X0019700Y0166600D03*
X0033500Y0256600D03*
X0139700Y0166600D03*
X0153500Y0136600D03*
X0139700Y0046600D03*
X0153500Y0256600D03*
D19*
X0032850Y0267860D03*
X0032850Y0275340D03*
D20*
X0153155Y0035990D03*
X0160045Y0035990D03*
X0160045Y0022210D03*
X0153155Y0022210D03*
D21*
X0151600Y0266600D03*
X0151600Y0276600D03*
X0151600Y0286600D03*
X0021600Y0286600D03*
X0021600Y0276600D03*
X0021600Y0266600D03*
D22*
G36*
X0042272Y0254479D02*
X0039479Y0251686D01*
X0036686Y0254479D01*
X0039479Y0257272D01*
X0042272Y0254479D01*
G37*
G36*
X0046514Y0258721D02*
X0043721Y0255928D01*
X0040928Y0258721D01*
X0043721Y0261514D01*
X0046514Y0258721D01*
G37*
G36*
X0129479Y0261514D02*
X0132272Y0258721D01*
X0129479Y0255928D01*
X0126686Y0258721D01*
X0129479Y0261514D01*
G37*
G36*
X0133721Y0257272D02*
X0136514Y0254479D01*
X0133721Y0251686D01*
X0130928Y0254479D01*
X0133721Y0257272D01*
G37*
G36*
X0136514Y0048721D02*
X0133721Y0045928D01*
X0130928Y0048721D01*
X0133721Y0051514D01*
X0136514Y0048721D01*
G37*
G36*
X0132272Y0044479D02*
X0129479Y0041686D01*
X0126686Y0044479D01*
X0129479Y0047272D01*
X0132272Y0044479D01*
G37*
G36*
X0043721Y0047272D02*
X0046514Y0044479D01*
X0043721Y0041686D01*
X0040928Y0044479D01*
X0043721Y0047272D01*
G37*
G36*
X0039479Y0051514D02*
X0042272Y0048721D01*
X0039479Y0045928D01*
X0036686Y0048721D01*
X0039479Y0051514D01*
G37*
M02*
