G75*
%MOIN*%
%OFA0B0*%
%FSLAX25Y25*%
%IPPOS*%
%LPD*%
%AMOC8*
5,1,8,0,0,1.08239X$1,22.5*
%
%ADD10C,0.00600*%
%ADD11C,0.00400*%
%ADD12C,0.00591*%
%ADD13C,0.00300*%
D10*
X0085207Y0156098D02*
X0084106Y0157199D01*
X0084106Y0162704D01*
X0087409Y0162704D01*
X0088510Y0161603D01*
X0088510Y0159401D01*
X0087409Y0158300D01*
X0084106Y0158300D01*
X0081880Y0158300D02*
X0081880Y0162704D01*
X0080779Y0162704D01*
X0079678Y0161603D01*
X0078577Y0162704D01*
X0077476Y0161603D01*
X0077476Y0158300D01*
X0079678Y0158300D02*
X0079678Y0161603D01*
X0075251Y0161603D02*
X0075251Y0159401D01*
X0074150Y0158300D01*
X0071948Y0158300D01*
X0070847Y0160502D02*
X0070847Y0161603D01*
X0071948Y0162704D01*
X0074150Y0162704D01*
X0075251Y0161603D01*
X0075251Y0160502D02*
X0070847Y0160502D01*
X0068621Y0162704D02*
X0065318Y0162704D01*
X0064217Y0161603D01*
X0064217Y0158300D01*
X0061991Y0162704D02*
X0059789Y0162704D01*
X0060890Y0163805D02*
X0060890Y0159401D01*
X0059789Y0158300D01*
X0068621Y0158300D02*
X0068621Y0162704D01*
X0085207Y0156098D02*
X0086308Y0156098D01*
X0090736Y0160502D02*
X0090736Y0161603D01*
X0091837Y0162704D01*
X0094039Y0162704D01*
X0095140Y0161603D01*
X0095140Y0159401D01*
X0094039Y0158300D01*
X0091837Y0158300D01*
X0090736Y0160502D02*
X0095140Y0160502D01*
X0097365Y0160502D02*
X0097365Y0159401D01*
X0098466Y0158300D01*
X0100668Y0158300D01*
X0101769Y0159401D01*
X0100668Y0161603D02*
X0098466Y0161603D01*
X0097365Y0160502D01*
X0097365Y0163805D02*
X0098466Y0164906D01*
X0100668Y0164906D01*
X0101769Y0163805D01*
X0101769Y0162704D01*
X0100668Y0161603D01*
X0103995Y0163805D02*
X0108399Y0159401D01*
X0108399Y0158300D01*
X0110625Y0158300D02*
X0115029Y0164906D01*
X0110625Y0164906D02*
X0115029Y0158300D01*
X0108399Y0164906D02*
X0103995Y0164906D01*
X0103995Y0163805D01*
D11*
X0103556Y0144204D02*
X0107026Y0144204D01*
X0107026Y0139000D01*
X0103556Y0139000D01*
X0101869Y0140735D02*
X0101869Y0144204D01*
X0101869Y0140735D02*
X0100134Y0139000D01*
X0098400Y0140735D01*
X0098400Y0144204D01*
X0091556Y0143337D02*
X0090689Y0144204D01*
X0088954Y0144204D01*
X0088087Y0143337D01*
X0088087Y0142470D01*
X0091556Y0139000D01*
X0088087Y0139000D01*
X0086400Y0139867D02*
X0086400Y0143337D01*
X0085533Y0144204D01*
X0083798Y0144204D01*
X0082930Y0143337D01*
X0086400Y0139867D01*
X0085533Y0139000D01*
X0083798Y0139000D01*
X0082930Y0139867D01*
X0082930Y0143337D01*
X0081244Y0142470D02*
X0079509Y0144204D01*
X0079509Y0139000D01*
X0081244Y0139000D02*
X0077774Y0139000D01*
X0076087Y0139867D02*
X0075220Y0139000D01*
X0073485Y0139000D01*
X0072618Y0139867D01*
X0072618Y0143337D01*
X0073485Y0144204D01*
X0075220Y0144204D01*
X0076087Y0143337D01*
X0076087Y0142470D01*
X0075220Y0141602D01*
X0072618Y0141602D01*
X0070931Y0141602D02*
X0067461Y0141602D01*
X0065774Y0143337D02*
X0064907Y0144204D01*
X0063172Y0144204D01*
X0062305Y0143337D01*
X0062305Y0142470D01*
X0065774Y0139000D01*
X0062305Y0139000D01*
X0105291Y0141602D02*
X0107026Y0141602D01*
X0108712Y0141602D02*
X0109580Y0140735D01*
X0112182Y0140735D01*
X0110447Y0140735D02*
X0108712Y0139000D01*
X0108712Y0141602D02*
X0108712Y0143337D01*
X0109580Y0144204D01*
X0112182Y0144204D01*
X0112182Y0139000D01*
X0111404Y0038681D02*
X0111404Y0035612D01*
X0111404Y0037146D02*
X0106800Y0037146D01*
X0107567Y0034077D02*
X0111404Y0034077D01*
X0111404Y0031008D02*
X0107567Y0031008D01*
X0106800Y0031775D01*
X0106800Y0033310D01*
X0107567Y0034077D01*
X0107567Y0029473D02*
X0110637Y0029473D01*
X0111404Y0028706D01*
X0111404Y0027171D01*
X0110637Y0026404D01*
X0107567Y0026404D01*
X0106800Y0027171D01*
X0106800Y0028706D01*
X0107567Y0029473D01*
X0107567Y0024869D02*
X0110637Y0024869D01*
X0111404Y0024102D01*
X0111404Y0021800D01*
X0106800Y0021800D01*
X0106800Y0024102D01*
X0107567Y0024869D01*
X0096404Y0024102D02*
X0096404Y0022567D01*
X0095637Y0021800D01*
X0092567Y0021800D01*
X0091800Y0022567D01*
X0091800Y0024102D01*
X0092567Y0024869D01*
X0094102Y0024869D01*
X0094102Y0023335D01*
X0095637Y0024869D02*
X0096404Y0024102D01*
X0081404Y0024869D02*
X0078335Y0024869D01*
X0076800Y0023335D01*
X0078335Y0021800D01*
X0081404Y0021800D01*
X0066404Y0021800D02*
X0066404Y0024102D01*
X0065637Y0024869D01*
X0062567Y0024869D01*
X0061800Y0024102D01*
X0061800Y0021800D01*
X0066404Y0021800D01*
X0066404Y0026404D02*
X0066404Y0027939D01*
X0066404Y0027171D02*
X0061800Y0027171D01*
X0061800Y0026404D02*
X0061800Y0027939D01*
X0061800Y0029473D02*
X0066404Y0029473D01*
X0061800Y0032542D01*
X0066404Y0032542D01*
X0111752Y0258515D02*
X0111752Y0263720D01*
X0109150Y0263720D01*
X0108283Y0262852D01*
X0108283Y0261117D01*
X0109150Y0260250D01*
X0111752Y0260250D01*
X0113439Y0260250D02*
X0116909Y0263720D01*
X0118596Y0262852D02*
X0118596Y0261985D01*
X0122065Y0261985D01*
X0122065Y0262852D02*
X0121198Y0263720D01*
X0119463Y0263720D01*
X0118596Y0262852D01*
X0119463Y0260250D02*
X0121198Y0260250D01*
X0122065Y0261117D01*
X0122065Y0262852D01*
X0123752Y0262852D02*
X0123752Y0260250D01*
X0123752Y0262852D02*
X0124619Y0263720D01*
X0127222Y0263720D01*
X0127222Y0260250D01*
X0128908Y0260250D02*
X0128908Y0263720D01*
X0128908Y0260250D02*
X0131511Y0260250D01*
X0132378Y0261117D01*
X0132378Y0263720D01*
X0135858Y0265467D02*
X0135858Y0267736D01*
X0136426Y0268303D01*
X0138127Y0268303D01*
X0138127Y0264900D01*
X0136426Y0264900D01*
X0135858Y0265467D01*
X0139357Y0265467D02*
X0139357Y0267736D01*
X0139925Y0268303D01*
X0141626Y0268303D01*
X0141626Y0264900D01*
X0139925Y0264900D01*
X0139357Y0265467D01*
X0142856Y0266034D02*
X0142856Y0268303D01*
X0142856Y0266034D02*
X0143991Y0264900D01*
X0145125Y0266034D01*
X0145125Y0268303D01*
X0145125Y0275150D02*
X0143424Y0275150D01*
X0142856Y0275717D01*
X0142856Y0277986D01*
X0143424Y0278553D01*
X0145125Y0278553D01*
X0145125Y0275150D01*
X0141626Y0275150D02*
X0141626Y0277419D01*
X0140492Y0278553D01*
X0139357Y0277419D01*
X0139357Y0275150D01*
X0139357Y0276851D02*
X0141626Y0276851D01*
X0138127Y0278553D02*
X0135858Y0278553D01*
X0136993Y0278553D02*
X0136993Y0275150D01*
X0134628Y0275150D02*
X0134628Y0277419D01*
X0133494Y0278553D01*
X0132359Y0277419D01*
X0132359Y0275150D01*
X0132359Y0276851D02*
X0134628Y0276851D01*
X0136426Y0284900D02*
X0135858Y0285467D01*
X0135858Y0287736D01*
X0136426Y0288303D01*
X0138127Y0288303D01*
X0138127Y0284900D01*
X0136426Y0284900D01*
X0139357Y0284900D02*
X0139357Y0288303D01*
X0141626Y0288303D02*
X0139357Y0284900D01*
X0141626Y0284900D02*
X0141626Y0288303D01*
X0142856Y0287736D02*
X0143424Y0288303D01*
X0144558Y0288303D01*
X0145125Y0287736D01*
X0145125Y0285467D01*
X0144558Y0284900D01*
X0143424Y0284900D01*
X0142856Y0285467D01*
X0142856Y0286601D01*
X0143991Y0286601D01*
X0156500Y0281113D02*
X0161704Y0281113D01*
X0161704Y0279378D02*
X0161704Y0282848D01*
X0161704Y0277691D02*
X0157367Y0277691D01*
X0156500Y0276824D01*
X0156500Y0275089D01*
X0157367Y0274222D01*
X0161704Y0274222D01*
X0160837Y0272535D02*
X0161704Y0271668D01*
X0161704Y0269933D01*
X0160837Y0269065D01*
X0157367Y0269065D01*
X0156500Y0269933D01*
X0156500Y0271668D01*
X0157367Y0272535D01*
X0160837Y0272535D01*
X0116909Y0260250D02*
X0113439Y0263720D01*
X0106596Y0262852D02*
X0105729Y0263720D01*
X0103994Y0263720D01*
X0103126Y0262852D01*
X0103126Y0261985D01*
X0106596Y0261985D01*
X0106596Y0262852D02*
X0106596Y0261117D01*
X0105729Y0260250D01*
X0103994Y0260250D01*
X0101440Y0261117D02*
X0100572Y0260250D01*
X0097970Y0260250D01*
X0097970Y0263720D02*
X0100572Y0263720D01*
X0101440Y0262852D01*
X0101440Y0261117D01*
X0096283Y0263720D02*
X0094548Y0263720D01*
X0095416Y0264587D02*
X0095416Y0261117D01*
X0094548Y0260250D01*
X0092846Y0261117D02*
X0092846Y0262852D01*
X0091978Y0263720D01*
X0090243Y0263720D01*
X0089376Y0262852D01*
X0089376Y0261985D01*
X0092846Y0261985D01*
X0092846Y0261117D02*
X0091978Y0260250D01*
X0090243Y0260250D01*
X0087689Y0261117D02*
X0087689Y0262852D01*
X0086822Y0263720D01*
X0084220Y0263720D01*
X0082533Y0263720D02*
X0082533Y0260250D01*
X0084220Y0260250D02*
X0084220Y0265454D01*
X0082533Y0263720D02*
X0081665Y0263720D01*
X0080798Y0262852D01*
X0079931Y0263720D01*
X0079063Y0262852D01*
X0079063Y0260250D01*
X0080798Y0260250D02*
X0080798Y0262852D01*
X0077376Y0261117D02*
X0076509Y0261985D01*
X0073907Y0261985D01*
X0073907Y0262852D02*
X0073907Y0260250D01*
X0076509Y0260250D01*
X0077376Y0261117D01*
X0076509Y0263720D02*
X0074774Y0263720D01*
X0073907Y0262852D01*
X0072220Y0261985D02*
X0069618Y0263720D01*
X0067923Y0262852D02*
X0067056Y0263720D01*
X0065321Y0263720D01*
X0064453Y0262852D01*
X0064453Y0261985D01*
X0067923Y0261985D01*
X0067923Y0262852D02*
X0067923Y0261117D01*
X0067056Y0260250D01*
X0065321Y0260250D01*
X0062767Y0260250D02*
X0062767Y0263720D01*
X0062767Y0261985D02*
X0061032Y0263720D01*
X0060164Y0263720D01*
X0058470Y0261117D02*
X0057602Y0261117D01*
X0057602Y0260250D01*
X0058470Y0260250D01*
X0058470Y0261117D01*
X0055891Y0261117D02*
X0055024Y0260250D01*
X0052422Y0260250D01*
X0050735Y0261117D02*
X0049868Y0260250D01*
X0048133Y0260250D01*
X0047265Y0261117D01*
X0047265Y0262852D01*
X0048133Y0263720D01*
X0049868Y0263720D01*
X0050735Y0262852D01*
X0050735Y0261117D01*
X0052422Y0263720D02*
X0055024Y0263720D01*
X0055891Y0262852D01*
X0055891Y0261117D01*
X0045579Y0260250D02*
X0045579Y0263720D01*
X0044711Y0263720D01*
X0043844Y0262852D01*
X0042976Y0263720D01*
X0042109Y0262852D01*
X0042109Y0260250D01*
X0043844Y0260250D02*
X0043844Y0262852D01*
X0036897Y0266034D02*
X0035763Y0264900D01*
X0034628Y0266034D01*
X0034628Y0268303D01*
X0033398Y0268303D02*
X0033398Y0264900D01*
X0031697Y0264900D01*
X0031129Y0265467D01*
X0031129Y0267736D01*
X0031697Y0268303D01*
X0033398Y0268303D01*
X0036897Y0268303D02*
X0036897Y0266034D01*
X0036897Y0274900D02*
X0036897Y0277169D01*
X0035763Y0278303D01*
X0034628Y0277169D01*
X0034628Y0274900D01*
X0034628Y0276601D02*
X0036897Y0276601D01*
X0038127Y0275467D02*
X0038127Y0277736D01*
X0038695Y0278303D01*
X0040396Y0278303D01*
X0040396Y0274900D01*
X0038695Y0274900D01*
X0038127Y0275467D01*
X0033398Y0278303D02*
X0031129Y0278303D01*
X0032264Y0278303D02*
X0032264Y0274900D01*
X0029899Y0274900D02*
X0029899Y0277169D01*
X0028765Y0278303D01*
X0027630Y0277169D01*
X0027630Y0274900D01*
X0027630Y0276601D02*
X0029899Y0276601D01*
X0029899Y0284900D02*
X0028198Y0284900D01*
X0027630Y0285467D01*
X0027630Y0287736D01*
X0028198Y0288303D01*
X0029899Y0288303D01*
X0029899Y0284900D01*
X0031129Y0284900D02*
X0031129Y0288303D01*
X0033398Y0288303D02*
X0031129Y0284900D01*
X0033398Y0284900D02*
X0033398Y0288303D01*
X0034628Y0287736D02*
X0035196Y0288303D01*
X0036330Y0288303D01*
X0036897Y0287736D01*
X0036897Y0285467D01*
X0036330Y0284900D01*
X0035196Y0284900D01*
X0034628Y0285467D01*
X0034628Y0286601D01*
X0035763Y0286601D01*
X0029899Y0268303D02*
X0028198Y0268303D01*
X0027630Y0267736D01*
X0027630Y0265467D01*
X0028198Y0264900D01*
X0029899Y0264900D01*
X0029899Y0268303D01*
X0016704Y0272503D02*
X0016704Y0274238D01*
X0016704Y0273370D02*
X0011500Y0273370D01*
X0011500Y0272503D02*
X0011500Y0274238D01*
X0011500Y0275941D02*
X0016704Y0275941D01*
X0011500Y0279410D01*
X0016704Y0279410D01*
X0069618Y0260250D02*
X0072220Y0261985D01*
X0072220Y0260250D02*
X0072220Y0265454D01*
X0084220Y0260250D02*
X0086822Y0260250D01*
X0087689Y0261117D01*
D12*
X0090236Y0279446D02*
X0088752Y0280657D01*
X0088154Y0280349D01*
X0087306Y0282395D01*
X0087685Y0282607D01*
X0088003Y0282901D01*
X0088245Y0283262D01*
X0088395Y0283669D01*
X0088446Y0284100D01*
X0088393Y0284539D01*
X0088237Y0284952D01*
X0087988Y0285317D01*
X0087659Y0285611D01*
X0087269Y0285820D01*
X0086841Y0285929D01*
X0086399Y0285934D01*
X0085969Y0285834D01*
X0085575Y0285634D01*
X0085240Y0285346D01*
X0084982Y0284987D01*
X0084818Y0284577D01*
X0084755Y0284140D01*
X0084799Y0283700D01*
X0084945Y0283284D01*
X0085186Y0282914D01*
X0085509Y0282612D01*
X0085894Y0282395D01*
X0085046Y0280349D01*
X0084448Y0280657D01*
X0082964Y0279446D01*
X0081946Y0280464D01*
X0083157Y0281948D01*
X0082849Y0282546D01*
X0082644Y0283187D01*
X0080739Y0283380D01*
X0080739Y0284820D01*
X0082644Y0285013D01*
X0082849Y0285654D01*
X0083157Y0286252D01*
X0081946Y0287736D01*
X0082964Y0288754D01*
X0084448Y0287543D01*
X0085046Y0287851D01*
X0085687Y0288056D01*
X0085880Y0289961D01*
X0087320Y0289961D01*
X0087513Y0288056D01*
X0088154Y0287851D01*
X0088752Y0287543D01*
X0090236Y0288754D01*
X0091254Y0287736D01*
X0090043Y0286252D01*
X0090351Y0285654D01*
X0090556Y0285013D01*
X0092461Y0284820D01*
X0092461Y0283380D01*
X0090556Y0283187D01*
X0090351Y0282546D01*
X0090043Y0281948D01*
X0091254Y0280464D01*
X0090236Y0279446D01*
X0090336Y0279547D02*
X0090113Y0279547D01*
X0089390Y0280136D02*
X0090925Y0280136D01*
X0091041Y0280725D02*
X0087998Y0280725D01*
X0087754Y0281314D02*
X0090561Y0281314D01*
X0090080Y0281903D02*
X0087510Y0281903D01*
X0087480Y0282492D02*
X0090323Y0282492D01*
X0090523Y0283081D02*
X0088124Y0283081D01*
X0088395Y0283670D02*
X0092461Y0283670D01*
X0092461Y0284259D02*
X0088426Y0284259D01*
X0088276Y0284848D02*
X0092179Y0284848D01*
X0090420Y0285438D02*
X0087853Y0285438D01*
X0090159Y0286027D02*
X0083041Y0286027D01*
X0082860Y0286616D02*
X0090340Y0286616D01*
X0090820Y0287205D02*
X0082380Y0287205D01*
X0082004Y0287794D02*
X0084141Y0287794D01*
X0084935Y0287794D02*
X0088265Y0287794D01*
X0089059Y0287794D02*
X0091196Y0287794D01*
X0090607Y0288383D02*
X0089781Y0288383D01*
X0087480Y0288383D02*
X0085720Y0288383D01*
X0085780Y0288972D02*
X0087420Y0288972D01*
X0087360Y0289561D02*
X0085840Y0289561D01*
X0083419Y0288383D02*
X0082593Y0288383D01*
X0082779Y0285438D02*
X0085346Y0285438D01*
X0084927Y0284848D02*
X0081021Y0284848D01*
X0080739Y0284259D02*
X0084772Y0284259D01*
X0084809Y0283670D02*
X0080739Y0283670D01*
X0082677Y0283081D02*
X0085077Y0283081D01*
X0085721Y0282492D02*
X0082877Y0282492D01*
X0083120Y0281903D02*
X0085690Y0281903D01*
X0085446Y0281314D02*
X0082639Y0281314D01*
X0082159Y0280725D02*
X0085202Y0280725D01*
X0083810Y0280136D02*
X0082275Y0280136D01*
X0082864Y0279547D02*
X0083087Y0279547D01*
D13*
X0025866Y0016200D02*
X0024898Y0016200D01*
X0025382Y0016200D02*
X0025382Y0019103D01*
X0025866Y0019103D02*
X0024898Y0019103D01*
X0026877Y0018619D02*
X0027361Y0019103D01*
X0028328Y0019103D01*
X0028812Y0018619D01*
X0028812Y0016684D01*
X0028328Y0016200D01*
X0027361Y0016200D01*
X0026877Y0016684D01*
X0026877Y0017652D01*
X0027845Y0017652D01*
X0027410Y0022700D02*
X0026926Y0023184D01*
X0026926Y0025119D01*
X0027410Y0025603D01*
X0028861Y0025603D01*
X0028861Y0022700D01*
X0027410Y0022700D01*
X0025914Y0022700D02*
X0024947Y0022700D01*
X0025431Y0022700D02*
X0025431Y0025603D01*
X0025914Y0025603D02*
X0024947Y0025603D01*
X0024947Y0028750D02*
X0025914Y0028750D01*
X0025431Y0028750D02*
X0025431Y0031653D01*
X0025914Y0031653D02*
X0024947Y0031653D01*
X0026926Y0031653D02*
X0026926Y0029718D01*
X0027893Y0028750D01*
X0028861Y0029718D01*
X0028861Y0031653D01*
X0144069Y0031518D02*
X0144069Y0029583D01*
X0144552Y0029100D01*
X0145520Y0029100D01*
X0146003Y0029583D01*
X0146003Y0031518D01*
X0145520Y0032002D01*
X0144552Y0032002D01*
X0144069Y0031518D01*
X0147015Y0032002D02*
X0147015Y0030067D01*
X0147983Y0029100D01*
X0148950Y0030067D01*
X0148950Y0032002D01*
X0148950Y0025602D02*
X0147499Y0025602D01*
X0147015Y0025118D01*
X0147015Y0023183D01*
X0147499Y0022700D01*
X0148950Y0022700D01*
X0148950Y0025602D01*
X0146003Y0025118D02*
X0146003Y0023183D01*
X0145520Y0022700D01*
X0144552Y0022700D01*
X0144069Y0023183D01*
X0144069Y0025118D01*
X0144552Y0025602D01*
X0145520Y0025602D01*
X0146003Y0025118D01*
X0145520Y0019102D02*
X0146003Y0018618D01*
X0146003Y0016683D01*
X0145520Y0016200D01*
X0144552Y0016200D01*
X0144069Y0016683D01*
X0144069Y0018618D01*
X0144552Y0019102D01*
X0145520Y0019102D01*
X0147015Y0018618D02*
X0147499Y0019102D01*
X0148466Y0019102D01*
X0148950Y0018618D01*
X0148950Y0016683D01*
X0148466Y0016200D01*
X0147499Y0016200D01*
X0147015Y0016683D01*
X0147015Y0017651D01*
X0147983Y0017651D01*
M02*
