G75*
%MOIN*%
%OFA0B0*%
%FSLAX25Y25*%
%IPPOS*%
%LPD*%
%AMOC8*
5,1,8,0,0,1.08239X$1,22.5*
%
%ADD10R,0.03500X0.02200*%
%ADD11R,0.03500X0.01500*%
%ADD12R,0.03500X0.02900*%
%ADD13R,0.03500X0.02600*%
%ADD14R,0.02200X0.03500*%
%ADD15R,0.01500X0.03500*%
%ADD16R,0.02900X0.03500*%
%ADD17R,0.02600X0.03500*%
%ADD18R,0.05906X0.05118*%
%ADD19R,0.03346X0.03937*%
%ADD20R,0.03150X0.03150*%
D10*
X0041600Y0030000D03*
X0041600Y0149900D03*
X0041600Y0270000D03*
X0131700Y0273200D03*
X0131700Y0153200D03*
X0131700Y0033200D03*
D11*
X0131700Y0029100D03*
X0131700Y0149100D03*
X0131700Y0269100D03*
X0041600Y0274100D03*
X0041600Y0154000D03*
X0041600Y0034100D03*
D12*
X0041600Y0024700D03*
X0041600Y0144600D03*
X0041600Y0264700D03*
X0131700Y0278500D03*
X0131700Y0158500D03*
X0131700Y0038500D03*
D13*
X0131700Y0024700D03*
X0131700Y0144700D03*
X0131700Y0264700D03*
X0041600Y0278500D03*
X0041600Y0158400D03*
X0041600Y0038500D03*
D14*
X0028200Y0046600D03*
X0025000Y0136600D03*
X0028200Y0166600D03*
X0025000Y0256600D03*
X0145000Y0256600D03*
X0148200Y0166600D03*
X0145000Y0136600D03*
X0148200Y0046600D03*
D15*
X0144100Y0046600D03*
X0149100Y0136600D03*
X0144100Y0166600D03*
X0149100Y0256600D03*
X0029100Y0256600D03*
X0024100Y0166600D03*
X0029100Y0136600D03*
X0024100Y0046600D03*
D16*
X0033500Y0046600D03*
X0019700Y0136600D03*
X0033500Y0166600D03*
X0019700Y0256600D03*
X0139700Y0256600D03*
X0153500Y0166600D03*
X0139700Y0136600D03*
X0153500Y0046600D03*
D17*
X0019700Y0046600D03*
X0033500Y0136600D03*
X0019700Y0166600D03*
X0033500Y0256600D03*
X0139700Y0166600D03*
X0153500Y0136600D03*
X0139700Y0046600D03*
X0153500Y0256600D03*
D18*
X0032850Y0267860D03*
X0032850Y0275340D03*
D19*
X0153155Y0035990D03*
X0160045Y0035990D03*
X0160045Y0022210D03*
X0153155Y0022210D03*
D20*
G36*
X0135948Y0048721D02*
X0133721Y0046494D01*
X0131494Y0048721D01*
X0133721Y0050948D01*
X0135948Y0048721D01*
G37*
G36*
X0131706Y0044479D02*
X0129479Y0042252D01*
X0127252Y0044479D01*
X0129479Y0046706D01*
X0131706Y0044479D01*
G37*
G36*
X0043721Y0046706D02*
X0045948Y0044479D01*
X0043721Y0042252D01*
X0041494Y0044479D01*
X0043721Y0046706D01*
G37*
G36*
X0039479Y0050948D02*
X0041706Y0048721D01*
X0039479Y0046494D01*
X0037252Y0048721D01*
X0039479Y0050948D01*
G37*
G36*
X0041706Y0254479D02*
X0039479Y0252252D01*
X0037252Y0254479D01*
X0039479Y0256706D01*
X0041706Y0254479D01*
G37*
G36*
X0045948Y0258721D02*
X0043721Y0256494D01*
X0041494Y0258721D01*
X0043721Y0260948D01*
X0045948Y0258721D01*
G37*
G36*
X0129479Y0260948D02*
X0131706Y0258721D01*
X0129479Y0256494D01*
X0127252Y0258721D01*
X0129479Y0260948D01*
G37*
G36*
X0133721Y0256706D02*
X0135948Y0254479D01*
X0133721Y0252252D01*
X0131494Y0254479D01*
X0133721Y0256706D01*
G37*
M02*
