G75*
%MOIN*%
%OFA0B0*%
%FSLAX25Y25*%
%IPPOS*%
%LPD*%
%AMOC8*
5,1,8,0,0,1.08239X$1,22.5*
%
%ADD10R,0.03500X0.02200*%
%ADD11R,0.03500X0.01500*%
%ADD12R,0.03500X0.02900*%
%ADD13R,0.03500X0.02600*%
%ADD14R,0.02200X0.03500*%
%ADD15R,0.01500X0.03500*%
%ADD16R,0.02900X0.03500*%
%ADD17R,0.02600X0.03500*%
%ADD18R,0.05906X0.05118*%
%ADD19R,0.03346X0.03937*%
%ADD20C,0.07400*%
%ADD21R,0.03150X0.03150*%
%ADD22C,0.02178*%
%ADD23C,0.01200*%
%ADD24C,0.01000*%
%ADD25C,0.01800*%
%ADD26C,0.00800*%
D10*
X0041600Y0030000D03*
X0041600Y0149900D03*
X0041600Y0270000D03*
X0131700Y0273200D03*
X0131700Y0153200D03*
X0131700Y0033200D03*
D11*
X0131700Y0029100D03*
X0131700Y0149100D03*
X0131700Y0269100D03*
X0041600Y0274100D03*
X0041600Y0154000D03*
X0041600Y0034100D03*
D12*
X0041600Y0024700D03*
X0041600Y0144600D03*
X0041600Y0264700D03*
X0131700Y0278500D03*
X0131700Y0158500D03*
X0131700Y0038500D03*
D13*
X0131700Y0024700D03*
X0131700Y0144700D03*
X0131700Y0264700D03*
X0041600Y0278500D03*
X0041600Y0158400D03*
X0041600Y0038500D03*
D14*
X0028200Y0046600D03*
X0025000Y0136600D03*
X0028200Y0166600D03*
X0025000Y0256600D03*
X0145000Y0256600D03*
X0148200Y0166600D03*
X0145000Y0136600D03*
X0148200Y0046600D03*
D15*
X0144100Y0046600D03*
X0149100Y0136600D03*
X0144100Y0166600D03*
X0149100Y0256600D03*
X0029100Y0256600D03*
X0024100Y0166600D03*
X0029100Y0136600D03*
X0024100Y0046600D03*
D16*
X0033500Y0046600D03*
X0019700Y0136600D03*
X0033500Y0166600D03*
X0019700Y0256600D03*
X0139700Y0256600D03*
X0153500Y0166600D03*
X0139700Y0136600D03*
X0153500Y0046600D03*
D17*
X0139700Y0046600D03*
X0153500Y0136600D03*
X0139700Y0166600D03*
X0153500Y0256600D03*
X0033500Y0256600D03*
X0019700Y0166600D03*
X0033500Y0136600D03*
X0019700Y0046600D03*
D18*
X0032850Y0267860D03*
X0032850Y0275340D03*
D19*
X0153155Y0035990D03*
X0160045Y0035990D03*
X0160045Y0022210D03*
X0153155Y0022210D03*
D20*
X0151600Y0266600D03*
X0151600Y0276600D03*
X0151600Y0286600D03*
X0021600Y0286600D03*
X0021600Y0276600D03*
X0021600Y0266600D03*
D21*
G36*
X0041706Y0254479D02*
X0039479Y0252252D01*
X0037252Y0254479D01*
X0039479Y0256706D01*
X0041706Y0254479D01*
G37*
G36*
X0045948Y0258721D02*
X0043721Y0256494D01*
X0041494Y0258721D01*
X0043721Y0260948D01*
X0045948Y0258721D01*
G37*
G36*
X0129479Y0260948D02*
X0131706Y0258721D01*
X0129479Y0256494D01*
X0127252Y0258721D01*
X0129479Y0260948D01*
G37*
G36*
X0133721Y0256706D02*
X0135948Y0254479D01*
X0133721Y0252252D01*
X0131494Y0254479D01*
X0133721Y0256706D01*
G37*
G36*
X0135948Y0048721D02*
X0133721Y0046494D01*
X0131494Y0048721D01*
X0133721Y0050948D01*
X0135948Y0048721D01*
G37*
G36*
X0131706Y0044479D02*
X0129479Y0042252D01*
X0127252Y0044479D01*
X0129479Y0046706D01*
X0131706Y0044479D01*
G37*
G36*
X0043721Y0046706D02*
X0045948Y0044479D01*
X0043721Y0042252D01*
X0041494Y0044479D01*
X0043721Y0046706D01*
G37*
G36*
X0039479Y0050948D02*
X0041706Y0048721D01*
X0039479Y0046494D01*
X0037252Y0048721D01*
X0039479Y0050948D01*
G37*
D22*
X0044100Y0049100D03*
X0049100Y0019100D03*
X0021600Y0011600D03*
X0041600Y0136600D03*
X0036550Y0156650D03*
X0041600Y0166600D03*
X0014100Y0161600D03*
X0044100Y0254100D03*
X0129100Y0254100D03*
X0131600Y0166600D03*
X0131600Y0136600D03*
X0129100Y0049100D03*
X0143800Y0026800D03*
X0140670Y0023170D03*
X0151600Y0011600D03*
X0159100Y0046600D03*
D23*
X0161834Y0014803D02*
X0011366Y0014803D01*
X0012565Y0013605D02*
X0160635Y0013605D01*
X0159437Y0012406D02*
X0013763Y0012406D01*
X0014962Y0011208D02*
X0158238Y0011208D01*
X0157040Y0010009D02*
X0016160Y0010009D01*
X0017359Y0008811D02*
X0155841Y0008811D01*
X0155730Y0008700D02*
X0164500Y0017470D01*
X0164500Y0283230D01*
X0155730Y0292000D01*
X0017470Y0292000D01*
X0008700Y0283230D01*
X0008700Y0017470D01*
X0017470Y0008700D01*
X0155730Y0008700D01*
X0155325Y0019042D02*
X0150985Y0019042D01*
X0150282Y0019745D01*
X0150282Y0020610D01*
X0140967Y0020610D01*
X0140696Y0020881D01*
X0139722Y0020881D01*
X0138381Y0022222D01*
X0138381Y0024118D01*
X0139722Y0025459D01*
X0141618Y0025459D01*
X0142959Y0024118D01*
X0142959Y0023810D01*
X0150282Y0023810D01*
X0150282Y0024676D01*
X0150985Y0025379D01*
X0154900Y0025379D01*
X0154900Y0032421D01*
X0153392Y0032421D01*
X0153392Y0035753D01*
X0152918Y0035753D01*
X0149882Y0035753D01*
X0149882Y0033811D01*
X0149991Y0033404D01*
X0150202Y0033039D01*
X0150499Y0032741D01*
X0150864Y0032530D01*
X0151271Y0032421D01*
X0152918Y0032421D01*
X0152918Y0035753D01*
X0152918Y0036226D01*
X0149882Y0036226D01*
X0149882Y0038169D01*
X0149991Y0038576D01*
X0150202Y0038941D01*
X0150499Y0039239D01*
X0150864Y0039449D01*
X0151271Y0039558D01*
X0152380Y0039558D01*
X0151538Y0040400D01*
X0149370Y0040400D01*
X0148970Y0040000D01*
X0147230Y0040000D01*
X0146830Y0040400D01*
X0146004Y0040400D01*
X0137104Y0031500D01*
X0134547Y0031500D01*
X0134022Y0030975D01*
X0134650Y0030347D01*
X0134650Y0027853D01*
X0134207Y0027410D01*
X0134432Y0027280D01*
X0134730Y0026982D01*
X0134941Y0026618D01*
X0135050Y0026211D01*
X0135050Y0024750D01*
X0131750Y0024750D01*
X0131750Y0024650D01*
X0135050Y0024650D01*
X0135050Y0023189D01*
X0134941Y0022782D01*
X0134730Y0022418D01*
X0134432Y0022120D01*
X0134068Y0021909D01*
X0133661Y0021800D01*
X0131750Y0021800D01*
X0131750Y0024650D01*
X0131650Y0024650D01*
X0131650Y0021800D01*
X0129739Y0021800D01*
X0129332Y0021909D01*
X0128968Y0022120D01*
X0128670Y0022418D01*
X0128459Y0022782D01*
X0128350Y0023189D01*
X0128350Y0024650D01*
X0131650Y0024650D01*
X0131650Y0024750D01*
X0128350Y0024750D01*
X0128350Y0026211D01*
X0128459Y0026618D01*
X0128670Y0026982D01*
X0128968Y0027280D01*
X0129193Y0027410D01*
X0129103Y0027500D01*
X0104763Y0027500D01*
X0100363Y0023100D01*
X0044550Y0023100D01*
X0044550Y0022753D01*
X0043847Y0022050D01*
X0039353Y0022050D01*
X0038650Y0022753D01*
X0038650Y0026647D01*
X0039353Y0027350D01*
X0043847Y0027350D01*
X0044550Y0026647D01*
X0044550Y0026300D01*
X0072708Y0026300D01*
X0071090Y0027918D01*
X0070100Y0030307D01*
X0070100Y0032893D01*
X0071090Y0035282D01*
X0072108Y0036300D01*
X0050774Y0036300D01*
X0045674Y0031500D01*
X0054030Y0031500D01*
X0054430Y0031900D01*
X0056170Y0031900D01*
X0057400Y0030670D01*
X0057400Y0028930D01*
X0056170Y0027700D01*
X0054430Y0027700D01*
X0054030Y0028100D01*
X0044247Y0028100D01*
X0043847Y0027700D01*
X0039353Y0027700D01*
X0038753Y0028300D01*
X0038396Y0028300D01*
X0037400Y0029296D01*
X0028315Y0038381D01*
X0027228Y0038381D01*
X0025998Y0039611D01*
X0025998Y0041350D01*
X0026500Y0041852D01*
X0026500Y0043753D01*
X0025975Y0044278D01*
X0025347Y0043650D01*
X0022853Y0043650D01*
X0022410Y0044093D01*
X0022280Y0043868D01*
X0021982Y0043570D01*
X0021618Y0043359D01*
X0021211Y0043250D01*
X0019750Y0043250D01*
X0019750Y0046550D01*
X0019650Y0046550D01*
X0019650Y0043250D01*
X0018189Y0043250D01*
X0017782Y0043359D01*
X0017418Y0043570D01*
X0017120Y0043868D01*
X0016909Y0044232D01*
X0016800Y0044639D01*
X0016800Y0046550D01*
X0019650Y0046550D01*
X0019650Y0046650D01*
X0019650Y0049950D01*
X0018189Y0049950D01*
X0017782Y0049841D01*
X0017418Y0049630D01*
X0017120Y0049332D01*
X0016909Y0048968D01*
X0016800Y0048561D01*
X0016800Y0046650D01*
X0019650Y0046650D01*
X0019750Y0046650D01*
X0019750Y0049950D01*
X0021211Y0049950D01*
X0021618Y0049841D01*
X0021982Y0049630D01*
X0022280Y0049332D01*
X0022410Y0049107D01*
X0022500Y0049197D01*
X0022500Y0074528D01*
X0018100Y0078928D01*
X0018100Y0133650D01*
X0017753Y0133650D01*
X0017050Y0134353D01*
X0017050Y0138847D01*
X0017753Y0139550D01*
X0021647Y0139550D01*
X0022350Y0138847D01*
X0022350Y0134353D01*
X0021647Y0133650D01*
X0021300Y0133650D01*
X0021300Y0105492D01*
X0022918Y0107110D01*
X0025307Y0108100D01*
X0027893Y0108100D01*
X0030282Y0107110D01*
X0031300Y0106092D01*
X0031300Y0123396D01*
X0023300Y0131396D01*
X0023300Y0133753D01*
X0022700Y0134353D01*
X0022700Y0138847D01*
X0023300Y0139447D01*
X0023300Y0141706D01*
X0026398Y0144804D01*
X0026398Y0148730D01*
X0025998Y0149130D01*
X0025998Y0150870D01*
X0026406Y0151277D01*
X0026408Y0151611D01*
X0026408Y0163845D01*
X0025975Y0164278D01*
X0025347Y0163650D01*
X0022853Y0163650D01*
X0022410Y0164093D01*
X0022280Y0163868D01*
X0021982Y0163570D01*
X0021618Y0163359D01*
X0021211Y0163250D01*
X0019750Y0163250D01*
X0019750Y0166550D01*
X0019650Y0166550D01*
X0019650Y0163250D01*
X0018189Y0163250D01*
X0017782Y0163359D01*
X0017418Y0163570D01*
X0017120Y0163868D01*
X0016909Y0164232D01*
X0016800Y0164639D01*
X0016800Y0166550D01*
X0019650Y0166550D01*
X0019650Y0166650D01*
X0019650Y0169950D01*
X0018189Y0169950D01*
X0017782Y0169841D01*
X0017418Y0169630D01*
X0017120Y0169332D01*
X0016909Y0168968D01*
X0016800Y0168561D01*
X0016800Y0166650D01*
X0019650Y0166650D01*
X0019750Y0166650D01*
X0019750Y0169950D01*
X0021211Y0169950D01*
X0021618Y0169841D01*
X0021982Y0169630D01*
X0022280Y0169332D01*
X0022410Y0169107D01*
X0022500Y0169197D01*
X0022500Y0194528D01*
X0018700Y0198328D01*
X0018700Y0198437D01*
X0018100Y0199037D01*
X0018100Y0253650D01*
X0017753Y0253650D01*
X0017050Y0254353D01*
X0017050Y0258847D01*
X0017753Y0259550D01*
X0021647Y0259550D01*
X0022350Y0258847D01*
X0022350Y0254353D01*
X0021647Y0253650D01*
X0021300Y0253650D01*
X0021300Y0225492D01*
X0022918Y0227110D01*
X0025307Y0228100D01*
X0027893Y0228100D01*
X0030282Y0227110D01*
X0031300Y0226092D01*
X0031300Y0243396D01*
X0023300Y0251396D01*
X0023300Y0253753D01*
X0022700Y0254353D01*
X0022700Y0258847D01*
X0023403Y0259550D01*
X0026597Y0259550D01*
X0027225Y0258922D01*
X0027853Y0259550D01*
X0030347Y0259550D01*
X0030790Y0259107D01*
X0030920Y0259332D01*
X0031218Y0259630D01*
X0031582Y0259841D01*
X0031989Y0259950D01*
X0033450Y0259950D01*
X0033450Y0256650D01*
X0033550Y0256650D01*
X0033550Y0259950D01*
X0035011Y0259950D01*
X0035418Y0259841D01*
X0035782Y0259630D01*
X0036080Y0259332D01*
X0036291Y0258968D01*
X0036400Y0258561D01*
X0036400Y0256650D01*
X0033550Y0256650D01*
X0033550Y0256550D01*
X0036400Y0256550D01*
X0036400Y0255890D01*
X0037101Y0256591D01*
X0039214Y0254479D01*
X0039479Y0254744D01*
X0041591Y0256856D01*
X0040461Y0257986D01*
X0040096Y0258197D01*
X0039689Y0258306D01*
X0039268Y0258306D01*
X0038861Y0258197D01*
X0038496Y0257986D01*
X0037366Y0256856D01*
X0039479Y0254744D01*
X0039744Y0254479D01*
X0041856Y0256591D01*
X0042986Y0255461D01*
X0043197Y0255096D01*
X0043306Y0254689D01*
X0043306Y0254268D01*
X0043197Y0253861D01*
X0042986Y0253496D01*
X0041856Y0252366D01*
X0039744Y0254479D01*
X0039479Y0254214D01*
X0041591Y0252101D01*
X0040461Y0250971D01*
X0040096Y0250761D01*
X0039689Y0250652D01*
X0039268Y0250652D01*
X0038861Y0250761D01*
X0038496Y0250971D01*
X0037366Y0252101D01*
X0039479Y0254214D01*
X0039214Y0254479D01*
X0037101Y0252366D01*
X0035971Y0253496D01*
X0035875Y0253663D01*
X0035782Y0253570D01*
X0035418Y0253359D01*
X0035011Y0253250D01*
X0033550Y0253250D01*
X0033550Y0256550D01*
X0033450Y0256550D01*
X0033450Y0253250D01*
X0032234Y0253250D01*
X0039500Y0245984D01*
X0039500Y0247470D01*
X0040730Y0248700D01*
X0049500Y0257470D01*
X0050730Y0258700D01*
X0122470Y0258700D01*
X0133700Y0247470D01*
X0133700Y0175730D01*
X0132470Y0174500D01*
X0122470Y0164500D01*
X0050730Y0164500D01*
X0040450Y0174780D01*
X0040450Y0161300D01*
X0041550Y0161300D01*
X0041550Y0158450D01*
X0041650Y0158450D01*
X0041650Y0161300D01*
X0043561Y0161300D01*
X0043968Y0161191D01*
X0044332Y0160980D01*
X0044630Y0160682D01*
X0044841Y0160318D01*
X0044950Y0159911D01*
X0044950Y0158450D01*
X0041650Y0158450D01*
X0041650Y0158350D01*
X0044950Y0158350D01*
X0044950Y0156889D01*
X0044841Y0156482D01*
X0044630Y0156118D01*
X0044332Y0155820D01*
X0044107Y0155690D01*
X0044197Y0155600D01*
X0069428Y0155600D01*
X0072390Y0158563D01*
X0073328Y0159500D01*
X0073437Y0159500D01*
X0074037Y0160100D01*
X0128750Y0160100D01*
X0128750Y0160447D01*
X0129453Y0161150D01*
X0133947Y0161150D01*
X0134650Y0160447D01*
X0134650Y0156553D01*
X0133947Y0155850D01*
X0129453Y0155850D01*
X0128750Y0156553D01*
X0128750Y0156900D01*
X0100492Y0156900D01*
X0102110Y0155282D01*
X0103100Y0152893D01*
X0103100Y0150307D01*
X0102110Y0147918D01*
X0101092Y0146900D01*
X0120896Y0146900D01*
X0128750Y0154754D01*
X0128750Y0154797D01*
X0129453Y0155500D01*
X0133947Y0155500D01*
X0134547Y0154900D01*
X0137330Y0154900D01*
X0137530Y0155100D01*
X0139270Y0155100D01*
X0140500Y0153870D01*
X0140500Y0152130D01*
X0139270Y0150900D01*
X0137530Y0150900D01*
X0136930Y0151500D01*
X0134547Y0151500D01*
X0134022Y0150975D01*
X0134297Y0150700D01*
X0136863Y0150700D01*
X0138863Y0148700D01*
X0139570Y0148700D01*
X0140800Y0147470D01*
X0140800Y0145730D01*
X0139570Y0144500D01*
X0137830Y0144500D01*
X0136600Y0145730D01*
X0136600Y0146437D01*
X0135537Y0147500D01*
X0134297Y0147500D01*
X0134207Y0147410D01*
X0134432Y0147280D01*
X0134730Y0146982D01*
X0134941Y0146618D01*
X0135050Y0146211D01*
X0135050Y0144750D01*
X0131750Y0144750D01*
X0131750Y0144650D01*
X0135050Y0144650D01*
X0135050Y0143189D01*
X0134941Y0142782D01*
X0134730Y0142418D01*
X0134432Y0142120D01*
X0134068Y0141909D01*
X0133661Y0141800D01*
X0131750Y0141800D01*
X0131750Y0144650D01*
X0131650Y0144650D01*
X0131650Y0141800D01*
X0129739Y0141800D01*
X0129332Y0141909D01*
X0128968Y0142120D01*
X0128670Y0142418D01*
X0128459Y0142782D01*
X0128350Y0143189D01*
X0128350Y0144650D01*
X0131650Y0144650D01*
X0131650Y0144750D01*
X0128350Y0144750D01*
X0128350Y0146211D01*
X0128459Y0146618D01*
X0128670Y0146982D01*
X0128968Y0147280D01*
X0129193Y0147410D01*
X0128750Y0147853D01*
X0128750Y0149946D01*
X0123300Y0144496D01*
X0122304Y0143500D01*
X0073245Y0143500D01*
X0072249Y0144496D01*
X0068545Y0148200D01*
X0048268Y0148200D01*
X0047868Y0147800D01*
X0046128Y0147800D01*
X0045728Y0148200D01*
X0044447Y0148200D01*
X0043847Y0147600D01*
X0040863Y0147600D01*
X0041213Y0147250D01*
X0043847Y0147250D01*
X0044550Y0146547D01*
X0044550Y0142653D01*
X0043847Y0141950D01*
X0039353Y0141950D01*
X0038650Y0142653D01*
X0038650Y0145287D01*
X0038187Y0145750D01*
X0037250Y0146687D01*
X0037250Y0243709D01*
X0027500Y0253459D01*
X0027500Y0254003D01*
X0027225Y0254278D01*
X0026700Y0253753D01*
X0026700Y0252804D01*
X0034700Y0244804D01*
X0034700Y0198245D01*
X0033704Y0197249D01*
X0029900Y0193445D01*
X0029900Y0169447D01*
X0030500Y0168847D01*
X0030500Y0164353D01*
X0029808Y0163661D01*
X0029808Y0152304D01*
X0029812Y0152300D01*
X0029808Y0151600D01*
X0029808Y0151260D01*
X0030198Y0150870D01*
X0030198Y0149130D01*
X0029798Y0148730D01*
X0029798Y0143555D01*
X0031900Y0145657D01*
X0031900Y0163650D01*
X0031553Y0163650D01*
X0030850Y0164353D01*
X0030850Y0168847D01*
X0031553Y0169550D01*
X0035447Y0169550D01*
X0036150Y0168847D01*
X0036150Y0164353D01*
X0035447Y0163650D01*
X0035100Y0163650D01*
X0035100Y0144331D01*
X0030700Y0139931D01*
X0030700Y0139197D01*
X0030790Y0139107D01*
X0030920Y0139332D01*
X0031218Y0139630D01*
X0031582Y0139841D01*
X0031989Y0139950D01*
X0033450Y0139950D01*
X0033450Y0136650D01*
X0033550Y0136650D01*
X0033550Y0139950D01*
X0035011Y0139950D01*
X0035418Y0139841D01*
X0035782Y0139630D01*
X0036080Y0139332D01*
X0036291Y0138968D01*
X0036400Y0138561D01*
X0036400Y0136650D01*
X0033550Y0136650D01*
X0033550Y0136550D01*
X0036400Y0136550D01*
X0036400Y0134639D01*
X0036291Y0134232D01*
X0036080Y0133868D01*
X0035782Y0133570D01*
X0035418Y0133359D01*
X0035011Y0133250D01*
X0033550Y0133250D01*
X0033550Y0136550D01*
X0033450Y0136550D01*
X0033450Y0133250D01*
X0031989Y0133250D01*
X0031582Y0133359D01*
X0031218Y0133570D01*
X0030920Y0133868D01*
X0030790Y0134093D01*
X0030347Y0133650D01*
X0027853Y0133650D01*
X0027225Y0134278D01*
X0026700Y0133753D01*
X0026700Y0132804D01*
X0034700Y0124804D01*
X0034700Y0078245D01*
X0033704Y0077249D01*
X0029900Y0073445D01*
X0029900Y0050539D01*
X0030540Y0051180D01*
X0038013Y0051180D01*
X0038982Y0052148D01*
X0039976Y0052148D01*
X0042906Y0049218D01*
X0042906Y0048224D01*
X0039976Y0045294D01*
X0038982Y0045294D01*
X0036496Y0047780D01*
X0036150Y0047780D01*
X0036150Y0044353D01*
X0035447Y0043650D01*
X0035100Y0043650D01*
X0035100Y0039363D01*
X0038763Y0035700D01*
X0039003Y0035700D01*
X0039093Y0035790D01*
X0038868Y0035920D01*
X0038570Y0036218D01*
X0038359Y0036582D01*
X0038250Y0036989D01*
X0038250Y0038450D01*
X0041550Y0038450D01*
X0041550Y0038550D01*
X0041550Y0041400D01*
X0039639Y0041400D01*
X0039232Y0041291D01*
X0038868Y0041080D01*
X0038570Y0040782D01*
X0038359Y0040418D01*
X0038250Y0040011D01*
X0038250Y0038550D01*
X0041550Y0038550D01*
X0041650Y0038550D01*
X0041650Y0041400D01*
X0042310Y0041400D01*
X0041609Y0042101D01*
X0043721Y0044214D01*
X0043456Y0044479D01*
X0041344Y0046591D01*
X0040214Y0045461D01*
X0040003Y0045096D01*
X0039894Y0044689D01*
X0039894Y0044268D01*
X0040003Y0043861D01*
X0040214Y0043496D01*
X0041344Y0042366D01*
X0043456Y0044479D01*
X0043721Y0044744D01*
X0041609Y0046856D01*
X0042739Y0047986D01*
X0043104Y0048197D01*
X0043511Y0048306D01*
X0043932Y0048306D01*
X0044339Y0048197D01*
X0044704Y0047986D01*
X0045834Y0046856D01*
X0043721Y0044744D01*
X0043986Y0044479D01*
X0046099Y0046591D01*
X0047229Y0045461D01*
X0047439Y0045096D01*
X0047548Y0044689D01*
X0047548Y0044268D01*
X0047439Y0043861D01*
X0047229Y0043496D01*
X0046099Y0042366D01*
X0043986Y0044479D01*
X0043721Y0044214D01*
X0045834Y0042101D01*
X0044704Y0040971D01*
X0044537Y0040875D01*
X0044630Y0040782D01*
X0044841Y0040418D01*
X0044950Y0040011D01*
X0044950Y0038550D01*
X0041650Y0038550D01*
X0041650Y0038450D01*
X0044950Y0038450D01*
X0044950Y0036989D01*
X0044841Y0036582D01*
X0044630Y0036218D01*
X0044332Y0035920D01*
X0044107Y0035790D01*
X0044550Y0035347D01*
X0044550Y0035111D01*
X0048916Y0039220D01*
X0049396Y0039700D01*
X0049426Y0039700D01*
X0049448Y0039721D01*
X0050126Y0039700D01*
X0099955Y0039700D01*
X0104755Y0034900D01*
X0128853Y0034900D01*
X0129453Y0035500D01*
X0133947Y0035500D01*
X0134547Y0034900D01*
X0135696Y0034900D01*
X0137696Y0036900D01*
X0134650Y0036900D01*
X0134650Y0036553D01*
X0133947Y0035850D01*
X0129453Y0035850D01*
X0128750Y0036553D01*
X0128750Y0040447D01*
X0129021Y0040718D01*
X0128861Y0040761D01*
X0128496Y0040971D01*
X0127366Y0042101D01*
X0129479Y0044214D01*
X0129744Y0044479D01*
X0129479Y0044744D01*
X0131591Y0046856D01*
X0130461Y0047986D01*
X0130096Y0048197D01*
X0129689Y0048306D01*
X0129268Y0048306D01*
X0128861Y0048197D01*
X0128496Y0047986D01*
X0127366Y0046856D01*
X0129479Y0044744D01*
X0129214Y0044479D01*
X0127101Y0046591D01*
X0125971Y0045461D01*
X0125761Y0045096D01*
X0125652Y0044689D01*
X0125652Y0044268D01*
X0125761Y0043861D01*
X0125971Y0043496D01*
X0127101Y0042366D01*
X0129214Y0044479D01*
X0129479Y0044214D01*
X0131591Y0042101D01*
X0130640Y0041150D01*
X0133947Y0041150D01*
X0134650Y0040447D01*
X0134650Y0040100D01*
X0137837Y0040100D01*
X0140987Y0043250D01*
X0139750Y0043250D01*
X0139750Y0046550D01*
X0139650Y0046550D01*
X0139650Y0043250D01*
X0138189Y0043250D01*
X0137782Y0043359D01*
X0137418Y0043570D01*
X0137120Y0043868D01*
X0136909Y0044232D01*
X0136800Y0044639D01*
X0136800Y0046550D01*
X0139650Y0046550D01*
X0139650Y0046650D01*
X0139650Y0049950D01*
X0138189Y0049950D01*
X0137782Y0049841D01*
X0137418Y0049630D01*
X0137120Y0049332D01*
X0137088Y0049278D01*
X0136947Y0049420D01*
X0140174Y0052647D01*
X0143089Y0049550D01*
X0142853Y0049550D01*
X0142410Y0049107D01*
X0142280Y0049332D01*
X0141982Y0049630D01*
X0141618Y0049841D01*
X0141211Y0049950D01*
X0139750Y0049950D01*
X0139750Y0046650D01*
X0139650Y0046650D01*
X0136800Y0046650D01*
X0136800Y0047876D01*
X0134218Y0045294D01*
X0133224Y0045294D01*
X0130294Y0048224D01*
X0130294Y0049218D01*
X0133224Y0052148D01*
X0134218Y0052148D01*
X0134543Y0051824D01*
X0138500Y0055781D01*
X0138500Y0104955D01*
X0139496Y0105951D01*
X0139496Y0105951D01*
X0143300Y0109755D01*
X0143300Y0133753D01*
X0142700Y0134353D01*
X0142700Y0137937D01*
X0142350Y0137587D01*
X0142350Y0134353D01*
X0141647Y0133650D01*
X0137753Y0133650D01*
X0137050Y0134353D01*
X0137050Y0138847D01*
X0137753Y0139550D01*
X0139787Y0139550D01*
X0142500Y0142263D01*
X0142500Y0164003D01*
X0142410Y0164093D01*
X0142280Y0163868D01*
X0141982Y0163570D01*
X0141618Y0163359D01*
X0141211Y0163250D01*
X0139750Y0163250D01*
X0139750Y0166550D01*
X0139650Y0166550D01*
X0139650Y0163250D01*
X0138189Y0163250D01*
X0137782Y0163359D01*
X0137418Y0163570D01*
X0137120Y0163868D01*
X0136909Y0164232D01*
X0136800Y0164639D01*
X0136800Y0166550D01*
X0139650Y0166550D01*
X0139650Y0166650D01*
X0139650Y0169950D01*
X0138189Y0169950D01*
X0137782Y0169841D01*
X0137418Y0169630D01*
X0137120Y0169332D01*
X0136909Y0168968D01*
X0136800Y0168561D01*
X0136800Y0166650D01*
X0139650Y0166650D01*
X0139750Y0166650D01*
X0139750Y0169950D01*
X0141211Y0169950D01*
X0141618Y0169841D01*
X0141982Y0169630D01*
X0142280Y0169332D01*
X0142410Y0169107D01*
X0142853Y0169550D01*
X0145347Y0169550D01*
X0145975Y0168922D01*
X0146424Y0169371D01*
X0139496Y0176300D01*
X0138500Y0177296D01*
X0138500Y0224955D01*
X0139496Y0225951D01*
X0139496Y0225951D01*
X0143300Y0229755D01*
X0143300Y0253753D01*
X0142700Y0254353D01*
X0142700Y0258847D01*
X0143300Y0259447D01*
X0143300Y0260704D01*
X0147146Y0264550D01*
X0146700Y0265625D01*
X0146700Y0267575D01*
X0147146Y0268650D01*
X0144296Y0271500D01*
X0134547Y0271500D01*
X0134022Y0270975D01*
X0134297Y0270700D01*
X0137263Y0270700D01*
X0141300Y0266663D01*
X0141300Y0259550D01*
X0141647Y0259550D01*
X0142350Y0258847D01*
X0142350Y0254353D01*
X0141647Y0253650D01*
X0137753Y0253650D01*
X0137461Y0253942D01*
X0137439Y0253861D01*
X0137229Y0253496D01*
X0136099Y0252366D01*
X0133986Y0254479D01*
X0133721Y0254744D01*
X0133456Y0254479D01*
X0131344Y0256591D01*
X0130214Y0255461D01*
X0130003Y0255096D01*
X0129894Y0254689D01*
X0129894Y0254268D01*
X0130003Y0253861D01*
X0130214Y0253496D01*
X0131344Y0252366D01*
X0133456Y0254479D01*
X0133721Y0254214D01*
X0131609Y0252101D01*
X0132739Y0250971D01*
X0133104Y0250761D01*
X0133511Y0250652D01*
X0133932Y0250652D01*
X0134339Y0250761D01*
X0134704Y0250971D01*
X0135834Y0252101D01*
X0133721Y0254214D01*
X0133986Y0254479D01*
X0136099Y0256591D01*
X0137050Y0255640D01*
X0137050Y0258847D01*
X0137753Y0259550D01*
X0138100Y0259550D01*
X0138100Y0265337D01*
X0135937Y0267500D01*
X0134297Y0267500D01*
X0134207Y0267410D01*
X0134432Y0267280D01*
X0134730Y0266982D01*
X0134941Y0266618D01*
X0135050Y0266211D01*
X0135050Y0264750D01*
X0131750Y0264750D01*
X0131750Y0264650D01*
X0135050Y0264650D01*
X0135050Y0263189D01*
X0134941Y0262782D01*
X0134730Y0262418D01*
X0134432Y0262120D01*
X0134068Y0261909D01*
X0133661Y0261800D01*
X0131750Y0261800D01*
X0131750Y0264650D01*
X0131650Y0264650D01*
X0131650Y0261800D01*
X0130324Y0261800D01*
X0132906Y0259218D01*
X0132906Y0258224D01*
X0129976Y0255294D01*
X0128982Y0255294D01*
X0126052Y0258224D01*
X0126052Y0259218D01*
X0126426Y0259593D01*
X0122519Y0263500D01*
X0073245Y0263500D01*
X0068445Y0268300D01*
X0045704Y0268300D01*
X0046150Y0267854D01*
X0046150Y0260217D01*
X0047148Y0259218D01*
X0047148Y0258224D01*
X0044218Y0255294D01*
X0043224Y0255294D01*
X0040294Y0258224D01*
X0040294Y0259218D01*
X0042750Y0261674D01*
X0042750Y0262050D01*
X0039353Y0262050D01*
X0038650Y0262753D01*
X0038650Y0265387D01*
X0037777Y0266260D01*
X0037003Y0266260D01*
X0037003Y0264804D01*
X0036300Y0264101D01*
X0029400Y0264101D01*
X0028697Y0264804D01*
X0028697Y0269819D01*
X0027223Y0269819D01*
X0026054Y0268650D01*
X0026500Y0267575D01*
X0026500Y0265625D01*
X0025754Y0263824D01*
X0024376Y0262446D01*
X0022575Y0261700D01*
X0020625Y0261700D01*
X0018824Y0262446D01*
X0017446Y0263824D01*
X0016700Y0265625D01*
X0016700Y0267575D01*
X0017446Y0269376D01*
X0018824Y0270754D01*
X0020625Y0271500D01*
X0022575Y0271500D01*
X0023650Y0271054D01*
X0025815Y0273219D01*
X0028697Y0273219D01*
X0028697Y0275000D01*
X0026241Y0275000D01*
X0025754Y0273824D01*
X0024376Y0272446D01*
X0022575Y0271700D01*
X0020625Y0271700D01*
X0018824Y0272446D01*
X0017446Y0273824D01*
X0016700Y0275625D01*
X0016700Y0277575D01*
X0017446Y0279376D01*
X0018824Y0280754D01*
X0020430Y0281419D01*
X0020359Y0281430D01*
X0019566Y0281688D01*
X0018822Y0282067D01*
X0018147Y0282557D01*
X0017557Y0283147D01*
X0017067Y0283822D01*
X0016688Y0284566D01*
X0016430Y0285359D01*
X0016300Y0286183D01*
X0016300Y0286200D01*
X0021200Y0286200D01*
X0021200Y0287000D01*
X0021200Y0291900D01*
X0021183Y0291900D01*
X0020359Y0291769D01*
X0019566Y0291512D01*
X0018822Y0291133D01*
X0018147Y0290643D01*
X0017557Y0290053D01*
X0017067Y0289378D01*
X0016688Y0288634D01*
X0016430Y0287841D01*
X0016300Y0287017D01*
X0016300Y0287000D01*
X0021200Y0287000D01*
X0022000Y0287000D01*
X0022000Y0291900D01*
X0022017Y0291900D01*
X0022841Y0291769D01*
X0023634Y0291512D01*
X0024378Y0291133D01*
X0025053Y0290643D01*
X0025643Y0290053D01*
X0026133Y0289378D01*
X0026512Y0288634D01*
X0026769Y0287841D01*
X0026900Y0287017D01*
X0026900Y0287000D01*
X0022000Y0287000D01*
X0022000Y0286200D01*
X0026900Y0286200D01*
X0026900Y0286183D01*
X0026769Y0285359D01*
X0026512Y0284566D01*
X0026133Y0283822D01*
X0025643Y0283147D01*
X0025053Y0282557D01*
X0024378Y0282067D01*
X0023634Y0281688D01*
X0022841Y0281430D01*
X0022770Y0281419D01*
X0024376Y0280754D01*
X0025754Y0279376D01*
X0026241Y0278200D01*
X0028697Y0278200D01*
X0028697Y0278396D01*
X0029400Y0279099D01*
X0036300Y0279099D01*
X0037003Y0278396D01*
X0037003Y0273179D01*
X0038481Y0271700D01*
X0038753Y0271700D01*
X0039278Y0272225D01*
X0038650Y0272853D01*
X0038650Y0275347D01*
X0039093Y0275790D01*
X0038868Y0275920D01*
X0038570Y0276218D01*
X0038359Y0276582D01*
X0038250Y0276989D01*
X0038250Y0278450D01*
X0041550Y0278450D01*
X0041550Y0278550D01*
X0041550Y0281400D01*
X0039639Y0281400D01*
X0039232Y0281291D01*
X0038868Y0281080D01*
X0038570Y0280782D01*
X0038359Y0280418D01*
X0038250Y0280011D01*
X0038250Y0278550D01*
X0041550Y0278550D01*
X0041650Y0278550D01*
X0041650Y0281400D01*
X0043561Y0281400D01*
X0043968Y0281291D01*
X0044332Y0281080D01*
X0044630Y0280782D01*
X0044841Y0280418D01*
X0044950Y0280011D01*
X0044950Y0278550D01*
X0041650Y0278550D01*
X0041650Y0278450D01*
X0044950Y0278450D01*
X0044950Y0276989D01*
X0044841Y0276582D01*
X0044630Y0276218D01*
X0044332Y0275920D01*
X0044107Y0275790D01*
X0044197Y0275700D01*
X0069528Y0275700D01*
X0072390Y0278563D01*
X0073328Y0279500D01*
X0128750Y0279500D01*
X0128750Y0280447D01*
X0129453Y0281150D01*
X0133947Y0281150D01*
X0134650Y0280447D01*
X0134650Y0276553D01*
X0133947Y0275850D01*
X0129453Y0275850D01*
X0129003Y0276300D01*
X0101092Y0276300D01*
X0102110Y0275282D01*
X0103100Y0272893D01*
X0103100Y0270307D01*
X0102110Y0267918D01*
X0101092Y0266900D01*
X0122526Y0266900D01*
X0128750Y0272758D01*
X0128750Y0274797D01*
X0129453Y0275500D01*
X0133947Y0275500D01*
X0134547Y0274900D01*
X0145704Y0274900D01*
X0149550Y0271054D01*
X0150625Y0271500D01*
X0152575Y0271500D01*
X0154376Y0270754D01*
X0155754Y0269376D01*
X0156500Y0267575D01*
X0156500Y0265625D01*
X0155754Y0263824D01*
X0154376Y0262446D01*
X0152575Y0261700D01*
X0150625Y0261700D01*
X0149550Y0262146D01*
X0146776Y0259371D01*
X0147225Y0258922D01*
X0147853Y0259550D01*
X0150347Y0259550D01*
X0150790Y0259107D01*
X0150920Y0259332D01*
X0151218Y0259630D01*
X0151582Y0259841D01*
X0151989Y0259950D01*
X0153450Y0259950D01*
X0153450Y0256650D01*
X0153550Y0256650D01*
X0153550Y0259950D01*
X0155011Y0259950D01*
X0155418Y0259841D01*
X0155782Y0259630D01*
X0156080Y0259332D01*
X0156291Y0258968D01*
X0156400Y0258561D01*
X0156400Y0256650D01*
X0153550Y0256650D01*
X0153550Y0256550D01*
X0156400Y0256550D01*
X0156400Y0254639D01*
X0156291Y0254232D01*
X0156080Y0253868D01*
X0155782Y0253570D01*
X0155418Y0253359D01*
X0155011Y0253250D01*
X0153550Y0253250D01*
X0153550Y0256550D01*
X0153450Y0256550D01*
X0153450Y0253250D01*
X0151989Y0253250D01*
X0151582Y0253359D01*
X0151218Y0253570D01*
X0150920Y0253868D01*
X0150790Y0254093D01*
X0150700Y0254003D01*
X0150700Y0228672D01*
X0153563Y0225810D01*
X0154500Y0224872D01*
X0154500Y0169550D01*
X0155447Y0169550D01*
X0156150Y0168847D01*
X0156150Y0164353D01*
X0155447Y0163650D01*
X0151553Y0163650D01*
X0150850Y0164353D01*
X0150850Y0168847D01*
X0151300Y0169297D01*
X0151300Y0197108D01*
X0150282Y0196090D01*
X0147893Y0195100D01*
X0145307Y0195100D01*
X0142918Y0196090D01*
X0141900Y0197108D01*
X0141900Y0178704D01*
X0149900Y0170704D01*
X0149900Y0169447D01*
X0150500Y0168847D01*
X0150500Y0164353D01*
X0149797Y0163650D01*
X0147891Y0163650D01*
X0147891Y0161200D01*
X0148968Y0161200D01*
X0150198Y0159970D01*
X0150198Y0158230D01*
X0148968Y0157000D01*
X0147891Y0157000D01*
X0147891Y0153595D01*
X0148590Y0155282D01*
X0150418Y0157110D01*
X0152807Y0158100D01*
X0155393Y0158100D01*
X0157782Y0157110D01*
X0159610Y0155282D01*
X0160600Y0152893D01*
X0160600Y0150307D01*
X0159610Y0147918D01*
X0157782Y0146090D01*
X0155393Y0145100D01*
X0152807Y0145100D01*
X0150418Y0146090D01*
X0148590Y0147918D01*
X0147891Y0149605D01*
X0147891Y0140865D01*
X0146700Y0139674D01*
X0146700Y0139447D01*
X0147225Y0138922D01*
X0147853Y0139550D01*
X0150347Y0139550D01*
X0150790Y0139107D01*
X0150920Y0139332D01*
X0151218Y0139630D01*
X0151582Y0139841D01*
X0151989Y0139950D01*
X0153450Y0139950D01*
X0153450Y0136650D01*
X0153550Y0136650D01*
X0153550Y0139950D01*
X0155011Y0139950D01*
X0155418Y0139841D01*
X0155782Y0139630D01*
X0156080Y0139332D01*
X0156291Y0138968D01*
X0156400Y0138561D01*
X0156400Y0136650D01*
X0153550Y0136650D01*
X0153550Y0136550D01*
X0156400Y0136550D01*
X0156400Y0134639D01*
X0156291Y0134232D01*
X0156080Y0133868D01*
X0155782Y0133570D01*
X0155418Y0133359D01*
X0155011Y0133250D01*
X0153550Y0133250D01*
X0153550Y0136550D01*
X0153450Y0136550D01*
X0153450Y0133250D01*
X0151989Y0133250D01*
X0151582Y0133359D01*
X0151218Y0133570D01*
X0150920Y0133868D01*
X0150790Y0134093D01*
X0150700Y0134003D01*
X0150700Y0108672D01*
X0155100Y0104272D01*
X0155100Y0049550D01*
X0155447Y0049550D01*
X0156150Y0048847D01*
X0156150Y0044353D01*
X0155447Y0043650D01*
X0153096Y0043650D01*
X0153942Y0042804D01*
X0157304Y0039442D01*
X0157731Y0039015D01*
X0157875Y0039158D01*
X0158445Y0039158D01*
X0158445Y0044311D01*
X0158152Y0044311D01*
X0156811Y0045652D01*
X0156811Y0047548D01*
X0158152Y0048889D01*
X0160048Y0048889D01*
X0161389Y0047548D01*
X0161389Y0046574D01*
X0161645Y0046318D01*
X0161645Y0039158D01*
X0162215Y0039158D01*
X0162918Y0038455D01*
X0162918Y0033524D01*
X0162215Y0032821D01*
X0158300Y0032821D01*
X0158300Y0026359D01*
X0159281Y0025379D01*
X0162215Y0025379D01*
X0162918Y0024676D01*
X0162918Y0019745D01*
X0162215Y0019042D01*
X0157875Y0019042D01*
X0157172Y0019745D01*
X0157172Y0022679D01*
X0156028Y0023823D01*
X0156028Y0019745D01*
X0155325Y0019042D01*
X0155881Y0019598D02*
X0157319Y0019598D01*
X0157172Y0020796D02*
X0156028Y0020796D01*
X0156028Y0021995D02*
X0157172Y0021995D01*
X0156658Y0023193D02*
X0156028Y0023193D01*
X0154900Y0025590D02*
X0135050Y0025590D01*
X0135050Y0024392D02*
X0138654Y0024392D01*
X0138381Y0023193D02*
X0135050Y0023193D01*
X0134216Y0021995D02*
X0138608Y0021995D01*
X0140781Y0020796D02*
X0008700Y0020796D01*
X0008700Y0019598D02*
X0150429Y0019598D01*
X0150282Y0024392D02*
X0142685Y0024392D01*
X0138385Y0032781D02*
X0150459Y0032781D01*
X0149882Y0033980D02*
X0139584Y0033980D01*
X0140782Y0035178D02*
X0149882Y0035178D01*
X0149882Y0036377D02*
X0141981Y0036377D01*
X0143179Y0037575D02*
X0149882Y0037575D01*
X0150105Y0038774D02*
X0144378Y0038774D01*
X0145576Y0039972D02*
X0151966Y0039972D01*
X0153179Y0043568D02*
X0158445Y0043568D01*
X0158445Y0042369D02*
X0154377Y0042369D01*
X0155576Y0041171D02*
X0158445Y0041171D01*
X0158445Y0039972D02*
X0156774Y0039972D01*
X0156150Y0044766D02*
X0157697Y0044766D01*
X0156811Y0045965D02*
X0156150Y0045965D01*
X0156150Y0047163D02*
X0156811Y0047163D01*
X0156150Y0048362D02*
X0157625Y0048362D01*
X0155100Y0049560D02*
X0164500Y0049560D01*
X0164500Y0048362D02*
X0160575Y0048362D01*
X0161389Y0047163D02*
X0164500Y0047163D01*
X0164500Y0045965D02*
X0161645Y0045965D01*
X0161645Y0044766D02*
X0164500Y0044766D01*
X0164500Y0043568D02*
X0161645Y0043568D01*
X0161645Y0042369D02*
X0164500Y0042369D01*
X0164500Y0041171D02*
X0161645Y0041171D01*
X0161645Y0039972D02*
X0164500Y0039972D01*
X0164500Y0038774D02*
X0162600Y0038774D01*
X0162918Y0037575D02*
X0164500Y0037575D01*
X0164500Y0036377D02*
X0162918Y0036377D01*
X0162918Y0035178D02*
X0164500Y0035178D01*
X0164500Y0033980D02*
X0162918Y0033980D01*
X0164500Y0032781D02*
X0158300Y0032781D01*
X0158300Y0031583D02*
X0164500Y0031583D01*
X0164500Y0030384D02*
X0158300Y0030384D01*
X0158300Y0029186D02*
X0164500Y0029186D01*
X0164500Y0027987D02*
X0158300Y0027987D01*
X0158300Y0026789D02*
X0164500Y0026789D01*
X0164500Y0025590D02*
X0159069Y0025590D01*
X0162918Y0024392D02*
X0164500Y0024392D01*
X0164500Y0023193D02*
X0162918Y0023193D01*
X0162918Y0021995D02*
X0164500Y0021995D01*
X0164500Y0020796D02*
X0162918Y0020796D01*
X0162771Y0019598D02*
X0164500Y0019598D01*
X0164500Y0018399D02*
X0008700Y0018399D01*
X0008969Y0017201D02*
X0164231Y0017201D01*
X0163032Y0016002D02*
X0010168Y0016002D01*
X0008700Y0021995D02*
X0129184Y0021995D01*
X0128350Y0023193D02*
X0100456Y0023193D01*
X0101654Y0024392D02*
X0128350Y0024392D01*
X0128350Y0025590D02*
X0102853Y0025590D01*
X0104051Y0026789D02*
X0128558Y0026789D01*
X0131650Y0024392D02*
X0131750Y0024392D01*
X0131750Y0023193D02*
X0131650Y0023193D01*
X0131650Y0021995D02*
X0131750Y0021995D01*
X0134842Y0026789D02*
X0154900Y0026789D01*
X0154900Y0027987D02*
X0134650Y0027987D01*
X0134650Y0029186D02*
X0154900Y0029186D01*
X0154900Y0030384D02*
X0134613Y0030384D01*
X0137187Y0031583D02*
X0154900Y0031583D01*
X0153392Y0032781D02*
X0152918Y0032781D01*
X0152918Y0033980D02*
X0153392Y0033980D01*
X0153392Y0035178D02*
X0152918Y0035178D01*
X0155100Y0050759D02*
X0164500Y0050759D01*
X0164500Y0051957D02*
X0155100Y0051957D01*
X0155100Y0053156D02*
X0164500Y0053156D01*
X0164500Y0054354D02*
X0155100Y0054354D01*
X0155100Y0055553D02*
X0164500Y0055553D01*
X0164500Y0056751D02*
X0155100Y0056751D01*
X0155100Y0057950D02*
X0164500Y0057950D01*
X0164500Y0059148D02*
X0155100Y0059148D01*
X0155100Y0060347D02*
X0164500Y0060347D01*
X0164500Y0061545D02*
X0155100Y0061545D01*
X0155100Y0062744D02*
X0164500Y0062744D01*
X0164500Y0063942D02*
X0155100Y0063942D01*
X0155100Y0065141D02*
X0164500Y0065141D01*
X0164500Y0066339D02*
X0155100Y0066339D01*
X0155100Y0067538D02*
X0164500Y0067538D01*
X0164500Y0068737D02*
X0155100Y0068737D01*
X0155100Y0069935D02*
X0164500Y0069935D01*
X0164500Y0071134D02*
X0155100Y0071134D01*
X0155100Y0072332D02*
X0164500Y0072332D01*
X0164500Y0073531D02*
X0155100Y0073531D01*
X0155100Y0074729D02*
X0164500Y0074729D01*
X0164500Y0075928D02*
X0155100Y0075928D01*
X0155100Y0077126D02*
X0164500Y0077126D01*
X0164500Y0078325D02*
X0155100Y0078325D01*
X0155100Y0079523D02*
X0164500Y0079523D01*
X0164500Y0080722D02*
X0155100Y0080722D01*
X0155100Y0081920D02*
X0164500Y0081920D01*
X0164500Y0083119D02*
X0155100Y0083119D01*
X0155100Y0084317D02*
X0164500Y0084317D01*
X0164500Y0085516D02*
X0155100Y0085516D01*
X0155100Y0086714D02*
X0164500Y0086714D01*
X0164500Y0087913D02*
X0155100Y0087913D01*
X0155100Y0089111D02*
X0164500Y0089111D01*
X0164500Y0090310D02*
X0155100Y0090310D01*
X0155100Y0091508D02*
X0164500Y0091508D01*
X0164500Y0092707D02*
X0155100Y0092707D01*
X0155100Y0093905D02*
X0164500Y0093905D01*
X0164500Y0095104D02*
X0155100Y0095104D01*
X0155100Y0096302D02*
X0164500Y0096302D01*
X0164500Y0097501D02*
X0155100Y0097501D01*
X0155100Y0098699D02*
X0164500Y0098699D01*
X0164500Y0099898D02*
X0155100Y0099898D01*
X0155100Y0101096D02*
X0164500Y0101096D01*
X0164500Y0102295D02*
X0155100Y0102295D01*
X0155100Y0103493D02*
X0164500Y0103493D01*
X0164500Y0104692D02*
X0154680Y0104692D01*
X0153482Y0105890D02*
X0164500Y0105890D01*
X0164500Y0107089D02*
X0152283Y0107089D01*
X0151085Y0108287D02*
X0164500Y0108287D01*
X0164500Y0109486D02*
X0150700Y0109486D01*
X0150700Y0110684D02*
X0164500Y0110684D01*
X0164500Y0111883D02*
X0150700Y0111883D01*
X0150700Y0113081D02*
X0164500Y0113081D01*
X0164500Y0114280D02*
X0150700Y0114280D01*
X0150700Y0115478D02*
X0164500Y0115478D01*
X0164500Y0116677D02*
X0150700Y0116677D01*
X0150700Y0117875D02*
X0164500Y0117875D01*
X0164500Y0119074D02*
X0150700Y0119074D01*
X0150700Y0120272D02*
X0164500Y0120272D01*
X0164500Y0121471D02*
X0150700Y0121471D01*
X0150700Y0122670D02*
X0164500Y0122670D01*
X0164500Y0123868D02*
X0150700Y0123868D01*
X0150700Y0125067D02*
X0164500Y0125067D01*
X0164500Y0126265D02*
X0150700Y0126265D01*
X0150700Y0127464D02*
X0164500Y0127464D01*
X0164500Y0128662D02*
X0150700Y0128662D01*
X0150700Y0129861D02*
X0164500Y0129861D01*
X0164500Y0131059D02*
X0150700Y0131059D01*
X0150700Y0132258D02*
X0164500Y0132258D01*
X0164500Y0133456D02*
X0155586Y0133456D01*
X0156400Y0134655D02*
X0164500Y0134655D01*
X0164500Y0135853D02*
X0156400Y0135853D01*
X0156400Y0137052D02*
X0164500Y0137052D01*
X0164500Y0138250D02*
X0156400Y0138250D01*
X0155964Y0139449D02*
X0164500Y0139449D01*
X0164500Y0140647D02*
X0147673Y0140647D01*
X0147752Y0139449D02*
X0146700Y0139449D01*
X0147891Y0141846D02*
X0164500Y0141846D01*
X0164500Y0143044D02*
X0147891Y0143044D01*
X0147891Y0144243D02*
X0164500Y0144243D01*
X0164500Y0145441D02*
X0156217Y0145441D01*
X0158332Y0146640D02*
X0164500Y0146640D01*
X0164500Y0147838D02*
X0159531Y0147838D01*
X0160074Y0149037D02*
X0164500Y0149037D01*
X0164500Y0150235D02*
X0160570Y0150235D01*
X0160600Y0151434D02*
X0164500Y0151434D01*
X0164500Y0152632D02*
X0160600Y0152632D01*
X0160212Y0153831D02*
X0164500Y0153831D01*
X0164500Y0155029D02*
X0159715Y0155029D01*
X0158665Y0156228D02*
X0164500Y0156228D01*
X0164500Y0157426D02*
X0157019Y0157426D01*
X0151181Y0157426D02*
X0149394Y0157426D01*
X0149535Y0156228D02*
X0147891Y0156228D01*
X0147891Y0155029D02*
X0148485Y0155029D01*
X0147988Y0153831D02*
X0147891Y0153831D01*
X0147891Y0149037D02*
X0148126Y0149037D01*
X0147891Y0147838D02*
X0148669Y0147838D01*
X0147891Y0146640D02*
X0149868Y0146640D01*
X0147891Y0145441D02*
X0151983Y0145441D01*
X0151036Y0139449D02*
X0150448Y0139449D01*
X0153450Y0139449D02*
X0153550Y0139449D01*
X0153550Y0138250D02*
X0153450Y0138250D01*
X0153450Y0137052D02*
X0153550Y0137052D01*
X0153550Y0135853D02*
X0153450Y0135853D01*
X0153450Y0134655D02*
X0153550Y0134655D01*
X0153550Y0133456D02*
X0153450Y0133456D01*
X0151414Y0133456D02*
X0150700Y0133456D01*
X0143300Y0133456D02*
X0127714Y0133456D01*
X0128912Y0132258D02*
X0143300Y0132258D01*
X0143300Y0131059D02*
X0130111Y0131059D01*
X0131309Y0129861D02*
X0143300Y0129861D01*
X0143300Y0128662D02*
X0132508Y0128662D01*
X0133700Y0127470D02*
X0123700Y0137470D01*
X0122470Y0138700D01*
X0050730Y0138700D01*
X0049500Y0137470D01*
X0049500Y0137470D01*
X0040730Y0128700D01*
X0039500Y0127470D01*
X0039500Y0055730D01*
X0049500Y0045730D01*
X0050730Y0044500D01*
X0122470Y0044500D01*
X0132470Y0054500D01*
X0133700Y0055730D01*
X0133700Y0127470D01*
X0133700Y0127464D02*
X0143300Y0127464D01*
X0143300Y0126265D02*
X0133700Y0126265D01*
X0133700Y0125067D02*
X0143300Y0125067D01*
X0143300Y0123868D02*
X0133700Y0123868D01*
X0133700Y0122670D02*
X0143300Y0122670D01*
X0143300Y0121471D02*
X0133700Y0121471D01*
X0133700Y0120272D02*
X0143300Y0120272D01*
X0143300Y0119074D02*
X0133700Y0119074D01*
X0133700Y0117875D02*
X0143300Y0117875D01*
X0143300Y0116677D02*
X0133700Y0116677D01*
X0133700Y0115478D02*
X0143300Y0115478D01*
X0143300Y0114280D02*
X0133700Y0114280D01*
X0133700Y0113081D02*
X0143300Y0113081D01*
X0143300Y0111883D02*
X0133700Y0111883D01*
X0133700Y0110684D02*
X0143300Y0110684D01*
X0143031Y0109486D02*
X0133700Y0109486D01*
X0133700Y0108287D02*
X0141832Y0108287D01*
X0140634Y0107089D02*
X0133700Y0107089D01*
X0133700Y0105890D02*
X0139435Y0105890D01*
X0138500Y0104692D02*
X0133700Y0104692D01*
X0133700Y0103493D02*
X0138500Y0103493D01*
X0138500Y0102295D02*
X0133700Y0102295D01*
X0133700Y0101096D02*
X0138500Y0101096D01*
X0138500Y0099898D02*
X0133700Y0099898D01*
X0133700Y0098699D02*
X0138500Y0098699D01*
X0138500Y0097501D02*
X0133700Y0097501D01*
X0133700Y0096302D02*
X0138500Y0096302D01*
X0138500Y0095104D02*
X0133700Y0095104D01*
X0133700Y0093905D02*
X0138500Y0093905D01*
X0138500Y0092707D02*
X0133700Y0092707D01*
X0133700Y0091508D02*
X0138500Y0091508D01*
X0138500Y0090310D02*
X0133700Y0090310D01*
X0133700Y0089111D02*
X0138500Y0089111D01*
X0138500Y0087913D02*
X0133700Y0087913D01*
X0133700Y0086714D02*
X0138500Y0086714D01*
X0138500Y0085516D02*
X0133700Y0085516D01*
X0133700Y0084317D02*
X0138500Y0084317D01*
X0138500Y0083119D02*
X0133700Y0083119D01*
X0133700Y0081920D02*
X0138500Y0081920D01*
X0138500Y0080722D02*
X0133700Y0080722D01*
X0133700Y0079523D02*
X0138500Y0079523D01*
X0138500Y0078325D02*
X0133700Y0078325D01*
X0133700Y0077126D02*
X0138500Y0077126D01*
X0138500Y0075928D02*
X0133700Y0075928D01*
X0133700Y0074729D02*
X0138500Y0074729D01*
X0138500Y0073531D02*
X0133700Y0073531D01*
X0133700Y0072332D02*
X0138500Y0072332D01*
X0138500Y0071134D02*
X0133700Y0071134D01*
X0133700Y0069935D02*
X0138500Y0069935D01*
X0138500Y0068737D02*
X0133700Y0068737D01*
X0133700Y0067538D02*
X0138500Y0067538D01*
X0138500Y0066339D02*
X0133700Y0066339D01*
X0133700Y0065141D02*
X0138500Y0065141D01*
X0138500Y0063942D02*
X0133700Y0063942D01*
X0133700Y0062744D02*
X0138500Y0062744D01*
X0138500Y0061545D02*
X0133700Y0061545D01*
X0133700Y0060347D02*
X0138500Y0060347D01*
X0138500Y0059148D02*
X0133700Y0059148D01*
X0133700Y0057950D02*
X0138500Y0057950D01*
X0138500Y0056751D02*
X0133700Y0056751D01*
X0133523Y0055553D02*
X0138271Y0055553D01*
X0137073Y0054354D02*
X0132324Y0054354D01*
X0131126Y0053156D02*
X0135874Y0053156D01*
X0134676Y0051957D02*
X0134409Y0051957D01*
X0133033Y0051957D02*
X0129927Y0051957D01*
X0128729Y0050759D02*
X0131835Y0050759D01*
X0130636Y0049560D02*
X0127530Y0049560D01*
X0126332Y0048362D02*
X0130294Y0048362D01*
X0131284Y0047163D02*
X0131355Y0047163D01*
X0131856Y0046591D02*
X0129744Y0044479D01*
X0131856Y0042366D01*
X0132986Y0043496D01*
X0133197Y0043861D01*
X0133306Y0044268D01*
X0133306Y0044689D01*
X0133197Y0045096D01*
X0132986Y0045461D01*
X0131856Y0046591D01*
X0131230Y0045965D02*
X0130700Y0045965D01*
X0130031Y0044766D02*
X0129501Y0044766D01*
X0129456Y0044766D02*
X0128926Y0044766D01*
X0128833Y0043568D02*
X0128303Y0043568D01*
X0127634Y0042369D02*
X0127104Y0042369D01*
X0127098Y0042369D02*
X0046102Y0042369D01*
X0046096Y0042369D02*
X0045566Y0042369D01*
X0044903Y0041171D02*
X0128297Y0041171D01*
X0128750Y0039972D02*
X0044950Y0039972D01*
X0044950Y0038774D02*
X0048442Y0038774D01*
X0047168Y0037575D02*
X0044950Y0037575D01*
X0044722Y0036377D02*
X0045895Y0036377D01*
X0044621Y0035178D02*
X0044550Y0035178D01*
X0045762Y0031583D02*
X0054113Y0031583D01*
X0056487Y0031583D02*
X0070100Y0031583D01*
X0070100Y0032781D02*
X0047035Y0032781D01*
X0048309Y0033980D02*
X0070550Y0033980D01*
X0071047Y0035178D02*
X0049582Y0035178D01*
X0054143Y0027987D02*
X0044134Y0027987D01*
X0044408Y0026789D02*
X0072219Y0026789D01*
X0071061Y0027987D02*
X0056457Y0027987D01*
X0057400Y0029186D02*
X0070565Y0029186D01*
X0070100Y0030384D02*
X0057400Y0030384D01*
X0050464Y0044766D02*
X0047528Y0044766D01*
X0047270Y0043568D02*
X0125930Y0043568D01*
X0125672Y0044766D02*
X0122736Y0044766D01*
X0123935Y0045965D02*
X0126475Y0045965D01*
X0127727Y0045965D02*
X0128258Y0045965D01*
X0127673Y0047163D02*
X0125133Y0047163D01*
X0130125Y0043568D02*
X0130655Y0043568D01*
X0131323Y0042369D02*
X0131853Y0042369D01*
X0131859Y0042369D02*
X0140107Y0042369D01*
X0139750Y0043568D02*
X0139650Y0043568D01*
X0139650Y0044766D02*
X0139750Y0044766D01*
X0139750Y0045965D02*
X0139650Y0045965D01*
X0139650Y0047163D02*
X0139750Y0047163D01*
X0139750Y0048362D02*
X0139650Y0048362D01*
X0139650Y0049560D02*
X0139750Y0049560D01*
X0138286Y0050759D02*
X0141951Y0050759D01*
X0142052Y0049560D02*
X0143079Y0049560D01*
X0140823Y0051957D02*
X0139484Y0051957D01*
X0137348Y0049560D02*
X0137087Y0049560D01*
X0136800Y0047163D02*
X0136087Y0047163D01*
X0136800Y0045965D02*
X0134889Y0045965D01*
X0133285Y0044766D02*
X0136800Y0044766D01*
X0137421Y0043568D02*
X0133027Y0043568D01*
X0132554Y0045965D02*
X0132482Y0045965D01*
X0130661Y0041171D02*
X0138908Y0041171D01*
X0137173Y0036377D02*
X0134474Y0036377D01*
X0134269Y0035178D02*
X0135974Y0035178D01*
X0129131Y0035178D02*
X0104477Y0035178D01*
X0103278Y0036377D02*
X0128926Y0036377D01*
X0128750Y0037575D02*
X0102080Y0037575D01*
X0100881Y0038774D02*
X0128750Y0038774D01*
X0126515Y0134655D02*
X0137050Y0134655D01*
X0137050Y0135853D02*
X0125317Y0135853D01*
X0124118Y0137052D02*
X0137050Y0137052D01*
X0137050Y0138250D02*
X0122920Y0138250D01*
X0123047Y0144243D02*
X0128350Y0144243D01*
X0128350Y0145441D02*
X0124245Y0145441D01*
X0125444Y0146640D02*
X0128472Y0146640D01*
X0128765Y0147838D02*
X0126642Y0147838D01*
X0127841Y0149037D02*
X0128750Y0149037D01*
X0126628Y0152632D02*
X0103100Y0152632D01*
X0103100Y0151434D02*
X0125430Y0151434D01*
X0124231Y0150235D02*
X0103070Y0150235D01*
X0102574Y0149037D02*
X0123033Y0149037D01*
X0121834Y0147838D02*
X0102031Y0147838D01*
X0102712Y0153831D02*
X0127827Y0153831D01*
X0128982Y0155029D02*
X0102215Y0155029D01*
X0101165Y0156228D02*
X0129075Y0156228D01*
X0129325Y0161022D02*
X0044260Y0161022D01*
X0044950Y0159823D02*
X0073761Y0159823D01*
X0072453Y0158625D02*
X0044950Y0158625D01*
X0044950Y0157426D02*
X0071254Y0157426D01*
X0070056Y0156228D02*
X0044694Y0156228D01*
X0041650Y0158625D02*
X0041550Y0158625D01*
X0041550Y0159823D02*
X0041650Y0159823D01*
X0041650Y0161022D02*
X0041550Y0161022D01*
X0040450Y0162220D02*
X0142500Y0162220D01*
X0142500Y0161022D02*
X0134075Y0161022D01*
X0134650Y0159823D02*
X0142500Y0159823D01*
X0142500Y0158625D02*
X0134650Y0158625D01*
X0134650Y0157426D02*
X0142500Y0157426D01*
X0142500Y0156228D02*
X0134325Y0156228D01*
X0134418Y0155029D02*
X0137459Y0155029D01*
X0139341Y0155029D02*
X0142500Y0155029D01*
X0142500Y0153831D02*
X0140500Y0153831D01*
X0140500Y0152632D02*
X0142500Y0152632D01*
X0142500Y0151434D02*
X0139804Y0151434D01*
X0138526Y0149037D02*
X0142500Y0149037D01*
X0142500Y0150235D02*
X0137327Y0150235D01*
X0136996Y0151434D02*
X0134481Y0151434D01*
X0134928Y0146640D02*
X0136398Y0146640D01*
X0136889Y0145441D02*
X0135050Y0145441D01*
X0135050Y0144243D02*
X0142500Y0144243D01*
X0142500Y0145441D02*
X0140511Y0145441D01*
X0140800Y0146640D02*
X0142500Y0146640D01*
X0142500Y0147838D02*
X0140432Y0147838D01*
X0142500Y0143044D02*
X0135011Y0143044D01*
X0133831Y0141846D02*
X0142083Y0141846D01*
X0140884Y0140647D02*
X0031416Y0140647D01*
X0031036Y0139449D02*
X0030700Y0139449D01*
X0033450Y0139449D02*
X0033550Y0139449D01*
X0033550Y0138250D02*
X0033450Y0138250D01*
X0033450Y0137052D02*
X0033550Y0137052D01*
X0033550Y0135853D02*
X0033450Y0135853D01*
X0033450Y0134655D02*
X0033550Y0134655D01*
X0033550Y0133456D02*
X0033450Y0133456D01*
X0031414Y0133456D02*
X0026700Y0133456D01*
X0027247Y0132258D02*
X0044288Y0132258D01*
X0045486Y0133456D02*
X0035586Y0133456D01*
X0036400Y0134655D02*
X0046685Y0134655D01*
X0047883Y0135853D02*
X0036400Y0135853D01*
X0036400Y0137052D02*
X0049082Y0137052D01*
X0050280Y0138250D02*
X0036400Y0138250D01*
X0035964Y0139449D02*
X0137652Y0139449D01*
X0142350Y0137052D02*
X0142700Y0137052D01*
X0142700Y0135853D02*
X0142350Y0135853D01*
X0142350Y0134655D02*
X0142700Y0134655D01*
X0131750Y0141846D02*
X0131650Y0141846D01*
X0131650Y0143044D02*
X0131750Y0143044D01*
X0131750Y0144243D02*
X0131650Y0144243D01*
X0129569Y0141846D02*
X0032614Y0141846D01*
X0033813Y0143044D02*
X0038650Y0143044D01*
X0038650Y0144243D02*
X0035011Y0144243D01*
X0035100Y0145441D02*
X0038496Y0145441D01*
X0037298Y0146640D02*
X0035100Y0146640D01*
X0035100Y0147838D02*
X0037250Y0147838D01*
X0037250Y0149037D02*
X0035100Y0149037D01*
X0035100Y0150235D02*
X0037250Y0150235D01*
X0037250Y0151434D02*
X0035100Y0151434D01*
X0035100Y0152632D02*
X0037250Y0152632D01*
X0037250Y0153831D02*
X0035100Y0153831D01*
X0035100Y0155029D02*
X0037250Y0155029D01*
X0037250Y0156228D02*
X0035100Y0156228D01*
X0035100Y0157426D02*
X0037250Y0157426D01*
X0037250Y0158625D02*
X0035100Y0158625D01*
X0035100Y0159823D02*
X0037250Y0159823D01*
X0037250Y0161022D02*
X0035100Y0161022D01*
X0035100Y0162220D02*
X0037250Y0162220D01*
X0037250Y0163419D02*
X0035100Y0163419D01*
X0036150Y0164617D02*
X0037250Y0164617D01*
X0037250Y0165816D02*
X0036150Y0165816D01*
X0036150Y0167014D02*
X0037250Y0167014D01*
X0037250Y0168213D02*
X0036150Y0168213D01*
X0035586Y0169411D02*
X0037250Y0169411D01*
X0037250Y0170610D02*
X0029900Y0170610D01*
X0029900Y0171808D02*
X0037250Y0171808D01*
X0037250Y0173007D02*
X0029900Y0173007D01*
X0029900Y0174205D02*
X0037250Y0174205D01*
X0037250Y0175404D02*
X0029900Y0175404D01*
X0029900Y0176603D02*
X0037250Y0176603D01*
X0037250Y0177801D02*
X0029900Y0177801D01*
X0029900Y0179000D02*
X0037250Y0179000D01*
X0037250Y0180198D02*
X0029900Y0180198D01*
X0029900Y0181397D02*
X0037250Y0181397D01*
X0037250Y0182595D02*
X0029900Y0182595D01*
X0029900Y0183794D02*
X0037250Y0183794D01*
X0037250Y0184992D02*
X0029900Y0184992D01*
X0029900Y0186191D02*
X0037250Y0186191D01*
X0037250Y0187389D02*
X0029900Y0187389D01*
X0029900Y0188588D02*
X0037250Y0188588D01*
X0037250Y0189786D02*
X0029900Y0189786D01*
X0029900Y0190985D02*
X0037250Y0190985D01*
X0037250Y0192183D02*
X0029900Y0192183D01*
X0029900Y0193382D02*
X0037250Y0193382D01*
X0037250Y0194580D02*
X0031035Y0194580D01*
X0032234Y0195779D02*
X0037250Y0195779D01*
X0037250Y0196977D02*
X0033432Y0196977D01*
X0034631Y0198176D02*
X0037250Y0198176D01*
X0037250Y0199374D02*
X0034700Y0199374D01*
X0034700Y0200573D02*
X0037250Y0200573D01*
X0037250Y0201771D02*
X0034700Y0201771D01*
X0034700Y0202970D02*
X0037250Y0202970D01*
X0037250Y0204168D02*
X0034700Y0204168D01*
X0034700Y0205367D02*
X0037250Y0205367D01*
X0037250Y0206565D02*
X0034700Y0206565D01*
X0034700Y0207764D02*
X0037250Y0207764D01*
X0037250Y0208962D02*
X0034700Y0208962D01*
X0034700Y0210161D02*
X0037250Y0210161D01*
X0037250Y0211359D02*
X0034700Y0211359D01*
X0034700Y0212558D02*
X0037250Y0212558D01*
X0037250Y0213756D02*
X0034700Y0213756D01*
X0034700Y0214955D02*
X0037250Y0214955D01*
X0037250Y0216153D02*
X0034700Y0216153D01*
X0034700Y0217352D02*
X0037250Y0217352D01*
X0037250Y0218550D02*
X0034700Y0218550D01*
X0034700Y0219749D02*
X0037250Y0219749D01*
X0037250Y0220947D02*
X0034700Y0220947D01*
X0034700Y0222146D02*
X0037250Y0222146D01*
X0037250Y0223344D02*
X0034700Y0223344D01*
X0034700Y0224543D02*
X0037250Y0224543D01*
X0037250Y0225741D02*
X0034700Y0225741D01*
X0034700Y0226940D02*
X0037250Y0226940D01*
X0037250Y0228139D02*
X0034700Y0228139D01*
X0034700Y0229337D02*
X0037250Y0229337D01*
X0037250Y0230536D02*
X0034700Y0230536D01*
X0034700Y0231734D02*
X0037250Y0231734D01*
X0037250Y0232933D02*
X0034700Y0232933D01*
X0034700Y0234131D02*
X0037250Y0234131D01*
X0037250Y0235330D02*
X0034700Y0235330D01*
X0034700Y0236528D02*
X0037250Y0236528D01*
X0037250Y0237727D02*
X0034700Y0237727D01*
X0034700Y0238925D02*
X0037250Y0238925D01*
X0037250Y0240124D02*
X0034700Y0240124D01*
X0034700Y0241322D02*
X0037250Y0241322D01*
X0037250Y0242521D02*
X0034700Y0242521D01*
X0034700Y0243719D02*
X0037239Y0243719D01*
X0036041Y0244918D02*
X0034586Y0244918D01*
X0034842Y0246116D02*
X0033388Y0246116D01*
X0033644Y0247315D02*
X0032189Y0247315D01*
X0032445Y0248513D02*
X0030991Y0248513D01*
X0031247Y0249712D02*
X0029792Y0249712D01*
X0030048Y0250910D02*
X0028594Y0250910D01*
X0028850Y0252109D02*
X0027395Y0252109D01*
X0027651Y0253307D02*
X0026700Y0253307D01*
X0024984Y0249712D02*
X0021300Y0249712D01*
X0021300Y0250910D02*
X0023786Y0250910D01*
X0023300Y0252109D02*
X0021300Y0252109D01*
X0021300Y0253307D02*
X0023300Y0253307D01*
X0022700Y0254506D02*
X0022350Y0254506D01*
X0022350Y0255704D02*
X0022700Y0255704D01*
X0022700Y0256903D02*
X0022350Y0256903D01*
X0022350Y0258101D02*
X0022700Y0258101D01*
X0023153Y0259300D02*
X0021897Y0259300D01*
X0018375Y0262895D02*
X0008700Y0262895D01*
X0008700Y0261697D02*
X0042750Y0261697D01*
X0041574Y0260498D02*
X0008700Y0260498D01*
X0008700Y0259300D02*
X0017503Y0259300D01*
X0017050Y0258101D02*
X0008700Y0258101D01*
X0008700Y0256903D02*
X0017050Y0256903D01*
X0017050Y0255704D02*
X0008700Y0255704D01*
X0008700Y0254506D02*
X0017050Y0254506D01*
X0018100Y0253307D02*
X0008700Y0253307D01*
X0008700Y0252109D02*
X0018100Y0252109D01*
X0018100Y0250910D02*
X0008700Y0250910D01*
X0008700Y0249712D02*
X0018100Y0249712D01*
X0018100Y0248513D02*
X0008700Y0248513D01*
X0008700Y0247315D02*
X0018100Y0247315D01*
X0018100Y0246116D02*
X0008700Y0246116D01*
X0008700Y0244918D02*
X0018100Y0244918D01*
X0018100Y0243719D02*
X0008700Y0243719D01*
X0008700Y0242521D02*
X0018100Y0242521D01*
X0018100Y0241322D02*
X0008700Y0241322D01*
X0008700Y0240124D02*
X0018100Y0240124D01*
X0018100Y0238925D02*
X0008700Y0238925D01*
X0008700Y0237727D02*
X0018100Y0237727D01*
X0018100Y0236528D02*
X0008700Y0236528D01*
X0008700Y0235330D02*
X0018100Y0235330D01*
X0018100Y0234131D02*
X0008700Y0234131D01*
X0008700Y0232933D02*
X0018100Y0232933D01*
X0018100Y0231734D02*
X0008700Y0231734D01*
X0008700Y0230536D02*
X0018100Y0230536D01*
X0018100Y0229337D02*
X0008700Y0229337D01*
X0008700Y0228139D02*
X0018100Y0228139D01*
X0018100Y0226940D02*
X0008700Y0226940D01*
X0008700Y0225741D02*
X0018100Y0225741D01*
X0018100Y0224543D02*
X0008700Y0224543D01*
X0008700Y0223344D02*
X0018100Y0223344D01*
X0018100Y0222146D02*
X0008700Y0222146D01*
X0008700Y0220947D02*
X0018100Y0220947D01*
X0018100Y0219749D02*
X0008700Y0219749D01*
X0008700Y0218550D02*
X0018100Y0218550D01*
X0018100Y0217352D02*
X0008700Y0217352D01*
X0008700Y0216153D02*
X0018100Y0216153D01*
X0018100Y0214955D02*
X0008700Y0214955D01*
X0008700Y0213756D02*
X0018100Y0213756D01*
X0018100Y0212558D02*
X0008700Y0212558D01*
X0008700Y0211359D02*
X0018100Y0211359D01*
X0018100Y0210161D02*
X0008700Y0210161D01*
X0008700Y0208962D02*
X0018100Y0208962D01*
X0018100Y0207764D02*
X0008700Y0207764D01*
X0008700Y0206565D02*
X0018100Y0206565D01*
X0018100Y0205367D02*
X0008700Y0205367D01*
X0008700Y0204168D02*
X0018100Y0204168D01*
X0018100Y0202970D02*
X0008700Y0202970D01*
X0008700Y0201771D02*
X0018100Y0201771D01*
X0018100Y0200573D02*
X0008700Y0200573D01*
X0008700Y0199374D02*
X0018100Y0199374D01*
X0018852Y0198176D02*
X0008700Y0198176D01*
X0008700Y0196977D02*
X0020050Y0196977D01*
X0021249Y0195779D02*
X0008700Y0195779D01*
X0008700Y0194580D02*
X0022448Y0194580D01*
X0022500Y0193382D02*
X0008700Y0193382D01*
X0008700Y0192183D02*
X0022500Y0192183D01*
X0022500Y0190985D02*
X0008700Y0190985D01*
X0008700Y0189786D02*
X0022500Y0189786D01*
X0022500Y0188588D02*
X0008700Y0188588D01*
X0008700Y0187389D02*
X0022500Y0187389D01*
X0022500Y0186191D02*
X0008700Y0186191D01*
X0008700Y0184992D02*
X0022500Y0184992D01*
X0022500Y0183794D02*
X0008700Y0183794D01*
X0008700Y0182595D02*
X0022500Y0182595D01*
X0022500Y0181397D02*
X0008700Y0181397D01*
X0008700Y0180198D02*
X0022500Y0180198D01*
X0022500Y0179000D02*
X0008700Y0179000D01*
X0008700Y0177801D02*
X0022500Y0177801D01*
X0022500Y0176603D02*
X0008700Y0176603D01*
X0008700Y0175404D02*
X0022500Y0175404D01*
X0022500Y0174205D02*
X0008700Y0174205D01*
X0008700Y0173007D02*
X0022500Y0173007D01*
X0022500Y0171808D02*
X0008700Y0171808D01*
X0008700Y0170610D02*
X0022500Y0170610D01*
X0022500Y0169411D02*
X0022201Y0169411D01*
X0019750Y0169411D02*
X0019650Y0169411D01*
X0019650Y0168213D02*
X0019750Y0168213D01*
X0019750Y0167014D02*
X0019650Y0167014D01*
X0019650Y0165816D02*
X0019750Y0165816D01*
X0019750Y0164617D02*
X0019650Y0164617D01*
X0019650Y0163419D02*
X0019750Y0163419D01*
X0021721Y0163419D02*
X0026408Y0163419D01*
X0026408Y0162220D02*
X0008700Y0162220D01*
X0008700Y0161022D02*
X0026408Y0161022D01*
X0026408Y0159823D02*
X0008700Y0159823D01*
X0008700Y0158625D02*
X0026408Y0158625D01*
X0026408Y0157426D02*
X0022019Y0157426D01*
X0022782Y0157110D02*
X0020393Y0158100D01*
X0017807Y0158100D01*
X0015418Y0157110D01*
X0013590Y0155282D01*
X0012600Y0152893D01*
X0012600Y0150307D01*
X0013590Y0147918D01*
X0015418Y0146090D01*
X0017807Y0145100D01*
X0020393Y0145100D01*
X0022782Y0146090D01*
X0024610Y0147918D01*
X0025600Y0150307D01*
X0025600Y0152893D01*
X0024610Y0155282D01*
X0022782Y0157110D01*
X0023665Y0156228D02*
X0026408Y0156228D01*
X0026408Y0155029D02*
X0024715Y0155029D01*
X0025212Y0153831D02*
X0026408Y0153831D01*
X0026408Y0152632D02*
X0025600Y0152632D01*
X0025600Y0151434D02*
X0026407Y0151434D01*
X0025998Y0150235D02*
X0025570Y0150235D01*
X0025074Y0149037D02*
X0026091Y0149037D01*
X0026398Y0147838D02*
X0024531Y0147838D01*
X0023332Y0146640D02*
X0026398Y0146640D01*
X0026398Y0145441D02*
X0021217Y0145441D01*
X0023440Y0141846D02*
X0008700Y0141846D01*
X0008700Y0143044D02*
X0024638Y0143044D01*
X0025837Y0144243D02*
X0008700Y0144243D01*
X0008700Y0145441D02*
X0016983Y0145441D01*
X0014868Y0146640D02*
X0008700Y0146640D01*
X0008700Y0147838D02*
X0013669Y0147838D01*
X0013126Y0149037D02*
X0008700Y0149037D01*
X0008700Y0150235D02*
X0012630Y0150235D01*
X0012600Y0151434D02*
X0008700Y0151434D01*
X0008700Y0152632D02*
X0012600Y0152632D01*
X0012988Y0153831D02*
X0008700Y0153831D01*
X0008700Y0155029D02*
X0013485Y0155029D01*
X0014535Y0156228D02*
X0008700Y0156228D01*
X0008700Y0157426D02*
X0016181Y0157426D01*
X0017679Y0163419D02*
X0008700Y0163419D01*
X0008700Y0164617D02*
X0016806Y0164617D01*
X0016800Y0165816D02*
X0008700Y0165816D01*
X0008700Y0167014D02*
X0016800Y0167014D01*
X0016800Y0168213D02*
X0008700Y0168213D01*
X0008700Y0169411D02*
X0017199Y0169411D01*
X0029936Y0169411D02*
X0031414Y0169411D01*
X0030850Y0168213D02*
X0030500Y0168213D01*
X0030500Y0167014D02*
X0030850Y0167014D01*
X0030850Y0165816D02*
X0030500Y0165816D01*
X0030500Y0164617D02*
X0030850Y0164617D01*
X0029808Y0163419D02*
X0031900Y0163419D01*
X0031900Y0162220D02*
X0029808Y0162220D01*
X0029808Y0161022D02*
X0031900Y0161022D01*
X0031900Y0159823D02*
X0029808Y0159823D01*
X0029808Y0158625D02*
X0031900Y0158625D01*
X0031900Y0157426D02*
X0029808Y0157426D01*
X0029808Y0156228D02*
X0031900Y0156228D01*
X0031900Y0155029D02*
X0029808Y0155029D01*
X0029808Y0153831D02*
X0031900Y0153831D01*
X0031900Y0152632D02*
X0029808Y0152632D01*
X0029808Y0151434D02*
X0031900Y0151434D01*
X0031900Y0150235D02*
X0030198Y0150235D01*
X0030105Y0149037D02*
X0031900Y0149037D01*
X0031900Y0147838D02*
X0029798Y0147838D01*
X0029798Y0146640D02*
X0031900Y0146640D01*
X0031684Y0145441D02*
X0029798Y0145441D01*
X0029798Y0144243D02*
X0030486Y0144243D01*
X0023300Y0140647D02*
X0008700Y0140647D01*
X0008700Y0139449D02*
X0017652Y0139449D01*
X0017050Y0138250D02*
X0008700Y0138250D01*
X0008700Y0137052D02*
X0017050Y0137052D01*
X0017050Y0135853D02*
X0008700Y0135853D01*
X0008700Y0134655D02*
X0017050Y0134655D01*
X0018100Y0133456D02*
X0008700Y0133456D01*
X0008700Y0132258D02*
X0018100Y0132258D01*
X0018100Y0131059D02*
X0008700Y0131059D01*
X0008700Y0129861D02*
X0018100Y0129861D01*
X0018100Y0128662D02*
X0008700Y0128662D01*
X0008700Y0127464D02*
X0018100Y0127464D01*
X0018100Y0126265D02*
X0008700Y0126265D01*
X0008700Y0125067D02*
X0018100Y0125067D01*
X0018100Y0123868D02*
X0008700Y0123868D01*
X0008700Y0122670D02*
X0018100Y0122670D01*
X0018100Y0121471D02*
X0008700Y0121471D01*
X0008700Y0120272D02*
X0018100Y0120272D01*
X0018100Y0119074D02*
X0008700Y0119074D01*
X0008700Y0117875D02*
X0018100Y0117875D01*
X0018100Y0116677D02*
X0008700Y0116677D01*
X0008700Y0115478D02*
X0018100Y0115478D01*
X0018100Y0114280D02*
X0008700Y0114280D01*
X0008700Y0113081D02*
X0018100Y0113081D01*
X0018100Y0111883D02*
X0008700Y0111883D01*
X0008700Y0110684D02*
X0018100Y0110684D01*
X0018100Y0109486D02*
X0008700Y0109486D01*
X0008700Y0108287D02*
X0018100Y0108287D01*
X0018100Y0107089D02*
X0008700Y0107089D01*
X0008700Y0105890D02*
X0018100Y0105890D01*
X0018100Y0104692D02*
X0008700Y0104692D01*
X0008700Y0103493D02*
X0018100Y0103493D01*
X0018100Y0102295D02*
X0008700Y0102295D01*
X0008700Y0101096D02*
X0018100Y0101096D01*
X0018100Y0099898D02*
X0008700Y0099898D01*
X0008700Y0098699D02*
X0018100Y0098699D01*
X0018100Y0097501D02*
X0008700Y0097501D01*
X0008700Y0096302D02*
X0018100Y0096302D01*
X0018100Y0095104D02*
X0008700Y0095104D01*
X0008700Y0093905D02*
X0018100Y0093905D01*
X0018100Y0092707D02*
X0008700Y0092707D01*
X0008700Y0091508D02*
X0018100Y0091508D01*
X0018100Y0090310D02*
X0008700Y0090310D01*
X0008700Y0089111D02*
X0018100Y0089111D01*
X0018100Y0087913D02*
X0008700Y0087913D01*
X0008700Y0086714D02*
X0018100Y0086714D01*
X0018100Y0085516D02*
X0008700Y0085516D01*
X0008700Y0084317D02*
X0018100Y0084317D01*
X0018100Y0083119D02*
X0008700Y0083119D01*
X0008700Y0081920D02*
X0018100Y0081920D01*
X0018100Y0080722D02*
X0008700Y0080722D01*
X0008700Y0079523D02*
X0018100Y0079523D01*
X0018703Y0078325D02*
X0008700Y0078325D01*
X0008700Y0077126D02*
X0019902Y0077126D01*
X0021100Y0075928D02*
X0008700Y0075928D01*
X0008700Y0074729D02*
X0022299Y0074729D01*
X0022500Y0073531D02*
X0008700Y0073531D01*
X0008700Y0072332D02*
X0022500Y0072332D01*
X0022500Y0071134D02*
X0008700Y0071134D01*
X0008700Y0069935D02*
X0022500Y0069935D01*
X0022500Y0068737D02*
X0008700Y0068737D01*
X0008700Y0067538D02*
X0022500Y0067538D01*
X0022500Y0066339D02*
X0008700Y0066339D01*
X0008700Y0065141D02*
X0022500Y0065141D01*
X0022500Y0063942D02*
X0008700Y0063942D01*
X0008700Y0062744D02*
X0022500Y0062744D01*
X0022500Y0061545D02*
X0008700Y0061545D01*
X0008700Y0060347D02*
X0022500Y0060347D01*
X0022500Y0059148D02*
X0008700Y0059148D01*
X0008700Y0057950D02*
X0022500Y0057950D01*
X0022500Y0056751D02*
X0008700Y0056751D01*
X0008700Y0055553D02*
X0022500Y0055553D01*
X0022500Y0054354D02*
X0008700Y0054354D01*
X0008700Y0053156D02*
X0022500Y0053156D01*
X0022500Y0051957D02*
X0008700Y0051957D01*
X0008700Y0050759D02*
X0022500Y0050759D01*
X0022500Y0049560D02*
X0022052Y0049560D01*
X0019750Y0049560D02*
X0019650Y0049560D01*
X0019650Y0048362D02*
X0019750Y0048362D01*
X0019750Y0047163D02*
X0019650Y0047163D01*
X0019650Y0045965D02*
X0019750Y0045965D01*
X0019750Y0044766D02*
X0019650Y0044766D01*
X0019650Y0043568D02*
X0019750Y0043568D01*
X0021979Y0043568D02*
X0026500Y0043568D01*
X0026500Y0042369D02*
X0008700Y0042369D01*
X0008700Y0041171D02*
X0025998Y0041171D01*
X0025998Y0039972D02*
X0008700Y0039972D01*
X0008700Y0038774D02*
X0026835Y0038774D01*
X0029121Y0037575D02*
X0008700Y0037575D01*
X0008700Y0036377D02*
X0030319Y0036377D01*
X0031518Y0035178D02*
X0008700Y0035178D01*
X0008700Y0033980D02*
X0032716Y0033980D01*
X0033915Y0032781D02*
X0008700Y0032781D01*
X0008700Y0031583D02*
X0035113Y0031583D01*
X0036312Y0030384D02*
X0008700Y0030384D01*
X0008700Y0029186D02*
X0037510Y0029186D01*
X0039066Y0027987D02*
X0008700Y0027987D01*
X0008700Y0026789D02*
X0038792Y0026789D01*
X0038650Y0025590D02*
X0008700Y0025590D01*
X0008700Y0024392D02*
X0038650Y0024392D01*
X0038650Y0023193D02*
X0008700Y0023193D01*
X0008700Y0043568D02*
X0017421Y0043568D01*
X0016800Y0044766D02*
X0008700Y0044766D01*
X0008700Y0045965D02*
X0016800Y0045965D01*
X0016800Y0047163D02*
X0008700Y0047163D01*
X0008700Y0048362D02*
X0016800Y0048362D01*
X0017348Y0049560D02*
X0008700Y0049560D01*
X0029900Y0050759D02*
X0030120Y0050759D01*
X0029900Y0051957D02*
X0038791Y0051957D01*
X0040167Y0051957D02*
X0043273Y0051957D01*
X0044471Y0050759D02*
X0041365Y0050759D01*
X0042564Y0049560D02*
X0045670Y0049560D01*
X0046868Y0048362D02*
X0042906Y0048362D01*
X0041916Y0047163D02*
X0041845Y0047163D01*
X0041970Y0045965D02*
X0042500Y0045965D01*
X0043169Y0044766D02*
X0043699Y0044766D01*
X0043744Y0044766D02*
X0044274Y0044766D01*
X0044367Y0043568D02*
X0044897Y0043568D01*
X0043075Y0043568D02*
X0042545Y0043568D01*
X0041877Y0042369D02*
X0041347Y0042369D01*
X0041341Y0042369D02*
X0035100Y0042369D01*
X0035100Y0041171D02*
X0039024Y0041171D01*
X0038250Y0039972D02*
X0035100Y0039972D01*
X0035689Y0038774D02*
X0038250Y0038774D01*
X0038250Y0037575D02*
X0036888Y0037575D01*
X0038086Y0036377D02*
X0038478Y0036377D01*
X0041550Y0038774D02*
X0041650Y0038774D01*
X0041650Y0039972D02*
X0041550Y0039972D01*
X0041550Y0041171D02*
X0041650Y0041171D01*
X0040173Y0043568D02*
X0035100Y0043568D01*
X0036150Y0044766D02*
X0039915Y0044766D01*
X0040646Y0045965D02*
X0040718Y0045965D01*
X0038311Y0045965D02*
X0036150Y0045965D01*
X0036150Y0047163D02*
X0037113Y0047163D01*
X0042074Y0053156D02*
X0029900Y0053156D01*
X0029900Y0054354D02*
X0040876Y0054354D01*
X0039677Y0055553D02*
X0029900Y0055553D01*
X0029900Y0056751D02*
X0039500Y0056751D01*
X0039500Y0057950D02*
X0029900Y0057950D01*
X0029900Y0059148D02*
X0039500Y0059148D01*
X0039500Y0060347D02*
X0029900Y0060347D01*
X0029900Y0061545D02*
X0039500Y0061545D01*
X0039500Y0062744D02*
X0029900Y0062744D01*
X0029900Y0063942D02*
X0039500Y0063942D01*
X0039500Y0065141D02*
X0029900Y0065141D01*
X0029900Y0066339D02*
X0039500Y0066339D01*
X0039500Y0067538D02*
X0029900Y0067538D01*
X0029900Y0068737D02*
X0039500Y0068737D01*
X0039500Y0069935D02*
X0029900Y0069935D01*
X0029900Y0071134D02*
X0039500Y0071134D01*
X0039500Y0072332D02*
X0029900Y0072332D01*
X0029986Y0073531D02*
X0039500Y0073531D01*
X0039500Y0074729D02*
X0031184Y0074729D01*
X0032383Y0075928D02*
X0039500Y0075928D01*
X0039500Y0077126D02*
X0033581Y0077126D01*
X0034700Y0078325D02*
X0039500Y0078325D01*
X0039500Y0079523D02*
X0034700Y0079523D01*
X0034700Y0080722D02*
X0039500Y0080722D01*
X0039500Y0081920D02*
X0034700Y0081920D01*
X0034700Y0083119D02*
X0039500Y0083119D01*
X0039500Y0084317D02*
X0034700Y0084317D01*
X0034700Y0085516D02*
X0039500Y0085516D01*
X0039500Y0086714D02*
X0034700Y0086714D01*
X0034700Y0087913D02*
X0039500Y0087913D01*
X0039500Y0089111D02*
X0034700Y0089111D01*
X0034700Y0090310D02*
X0039500Y0090310D01*
X0039500Y0091508D02*
X0034700Y0091508D01*
X0034700Y0092707D02*
X0039500Y0092707D01*
X0039500Y0093905D02*
X0034700Y0093905D01*
X0034700Y0095104D02*
X0039500Y0095104D01*
X0039500Y0096302D02*
X0034700Y0096302D01*
X0034700Y0097501D02*
X0039500Y0097501D01*
X0039500Y0098699D02*
X0034700Y0098699D01*
X0034700Y0099898D02*
X0039500Y0099898D01*
X0039500Y0101096D02*
X0034700Y0101096D01*
X0034700Y0102295D02*
X0039500Y0102295D01*
X0039500Y0103493D02*
X0034700Y0103493D01*
X0034700Y0104692D02*
X0039500Y0104692D01*
X0039500Y0105890D02*
X0034700Y0105890D01*
X0034700Y0107089D02*
X0039500Y0107089D01*
X0039500Y0108287D02*
X0034700Y0108287D01*
X0034700Y0109486D02*
X0039500Y0109486D01*
X0039500Y0110684D02*
X0034700Y0110684D01*
X0034700Y0111883D02*
X0039500Y0111883D01*
X0039500Y0113081D02*
X0034700Y0113081D01*
X0034700Y0114280D02*
X0039500Y0114280D01*
X0039500Y0115478D02*
X0034700Y0115478D01*
X0034700Y0116677D02*
X0039500Y0116677D01*
X0039500Y0117875D02*
X0034700Y0117875D01*
X0034700Y0119074D02*
X0039500Y0119074D01*
X0039500Y0120272D02*
X0034700Y0120272D01*
X0034700Y0121471D02*
X0039500Y0121471D01*
X0039500Y0122670D02*
X0034700Y0122670D01*
X0034700Y0123868D02*
X0039500Y0123868D01*
X0039500Y0125067D02*
X0034438Y0125067D01*
X0033239Y0126265D02*
X0039500Y0126265D01*
X0039500Y0127464D02*
X0032041Y0127464D01*
X0030842Y0128662D02*
X0040692Y0128662D01*
X0041891Y0129861D02*
X0029644Y0129861D01*
X0028445Y0131059D02*
X0043089Y0131059D01*
X0044550Y0143044D02*
X0128389Y0143044D01*
X0137679Y0163419D02*
X0040450Y0163419D01*
X0040450Y0164617D02*
X0050613Y0164617D01*
X0049414Y0165816D02*
X0040450Y0165816D01*
X0040450Y0167014D02*
X0048216Y0167014D01*
X0047017Y0168213D02*
X0040450Y0168213D01*
X0040450Y0169411D02*
X0045819Y0169411D01*
X0044620Y0170610D02*
X0040450Y0170610D01*
X0040450Y0171808D02*
X0043422Y0171808D01*
X0042223Y0173007D02*
X0040450Y0173007D01*
X0040450Y0174205D02*
X0041025Y0174205D01*
X0044085Y0147838D02*
X0046090Y0147838D01*
X0047906Y0147838D02*
X0068907Y0147838D01*
X0070105Y0146640D02*
X0044457Y0146640D01*
X0044550Y0145441D02*
X0071304Y0145441D01*
X0072502Y0144243D02*
X0044550Y0144243D01*
X0030828Y0123868D02*
X0021300Y0123868D01*
X0021300Y0122670D02*
X0031300Y0122670D01*
X0031300Y0121471D02*
X0021300Y0121471D01*
X0021300Y0120272D02*
X0031300Y0120272D01*
X0031300Y0119074D02*
X0021300Y0119074D01*
X0021300Y0117875D02*
X0031300Y0117875D01*
X0031300Y0116677D02*
X0021300Y0116677D01*
X0021300Y0115478D02*
X0031300Y0115478D01*
X0031300Y0114280D02*
X0021300Y0114280D01*
X0021300Y0113081D02*
X0031300Y0113081D01*
X0031300Y0111883D02*
X0021300Y0111883D01*
X0021300Y0110684D02*
X0031300Y0110684D01*
X0031300Y0109486D02*
X0021300Y0109486D01*
X0021300Y0108287D02*
X0031300Y0108287D01*
X0031300Y0107089D02*
X0030304Y0107089D01*
X0022896Y0107089D02*
X0021300Y0107089D01*
X0021300Y0105890D02*
X0021698Y0105890D01*
X0021300Y0125067D02*
X0029629Y0125067D01*
X0028431Y0126265D02*
X0021300Y0126265D01*
X0021300Y0127464D02*
X0027232Y0127464D01*
X0026034Y0128662D02*
X0021300Y0128662D01*
X0021300Y0129861D02*
X0024835Y0129861D01*
X0023637Y0131059D02*
X0021300Y0131059D01*
X0021300Y0132258D02*
X0023300Y0132258D01*
X0023300Y0133456D02*
X0021300Y0133456D01*
X0022350Y0134655D02*
X0022700Y0134655D01*
X0022700Y0135853D02*
X0022350Y0135853D01*
X0022350Y0137052D02*
X0022700Y0137052D01*
X0022700Y0138250D02*
X0022350Y0138250D01*
X0021748Y0139449D02*
X0023300Y0139449D01*
X0021549Y0225741D02*
X0021300Y0225741D01*
X0021300Y0226940D02*
X0022748Y0226940D01*
X0021300Y0228139D02*
X0031300Y0228139D01*
X0031300Y0229337D02*
X0021300Y0229337D01*
X0021300Y0230536D02*
X0031300Y0230536D01*
X0031300Y0231734D02*
X0021300Y0231734D01*
X0021300Y0232933D02*
X0031300Y0232933D01*
X0031300Y0234131D02*
X0021300Y0234131D01*
X0021300Y0235330D02*
X0031300Y0235330D01*
X0031300Y0236528D02*
X0021300Y0236528D01*
X0021300Y0237727D02*
X0031300Y0237727D01*
X0031300Y0238925D02*
X0021300Y0238925D01*
X0021300Y0240124D02*
X0031300Y0240124D01*
X0031300Y0241322D02*
X0021300Y0241322D01*
X0021300Y0242521D02*
X0031300Y0242521D01*
X0030977Y0243719D02*
X0021300Y0243719D01*
X0021300Y0244918D02*
X0029778Y0244918D01*
X0028580Y0246116D02*
X0021300Y0246116D01*
X0021300Y0247315D02*
X0027381Y0247315D01*
X0026183Y0248513D02*
X0021300Y0248513D01*
X0026847Y0259300D02*
X0027603Y0259300D01*
X0024825Y0262895D02*
X0038650Y0262895D01*
X0038650Y0264094D02*
X0025866Y0264094D01*
X0026362Y0265292D02*
X0028697Y0265292D01*
X0028697Y0266491D02*
X0026500Y0266491D01*
X0026452Y0267689D02*
X0028697Y0267689D01*
X0028697Y0268888D02*
X0026292Y0268888D01*
X0023881Y0271285D02*
X0023094Y0271285D01*
X0024413Y0272483D02*
X0025079Y0272483D01*
X0025612Y0273682D02*
X0028697Y0273682D01*
X0028697Y0274880D02*
X0026191Y0274880D01*
X0026127Y0278476D02*
X0028777Y0278476D01*
X0025455Y0279674D02*
X0038250Y0279674D01*
X0038660Y0280873D02*
X0024088Y0280873D01*
X0024384Y0282072D02*
X0148816Y0282072D01*
X0148822Y0282067D02*
X0149566Y0281688D01*
X0150359Y0281430D01*
X0150430Y0281419D01*
X0148824Y0280754D01*
X0147446Y0279376D01*
X0146700Y0277575D01*
X0146700Y0275625D01*
X0147446Y0273824D01*
X0148824Y0272446D01*
X0150625Y0271700D01*
X0152575Y0271700D01*
X0154376Y0272446D01*
X0155754Y0273824D01*
X0156500Y0275625D01*
X0156500Y0277575D01*
X0155754Y0279376D01*
X0154376Y0280754D01*
X0152770Y0281419D01*
X0152841Y0281430D01*
X0153634Y0281688D01*
X0154378Y0282067D01*
X0155053Y0282557D01*
X0155643Y0283147D01*
X0156133Y0283822D01*
X0156512Y0284566D01*
X0156769Y0285359D01*
X0156900Y0286183D01*
X0156900Y0286200D01*
X0152000Y0286200D01*
X0152000Y0287000D01*
X0156900Y0287000D01*
X0156900Y0287017D01*
X0156769Y0287841D01*
X0156512Y0288634D01*
X0156133Y0289378D01*
X0155643Y0290053D01*
X0155053Y0290643D01*
X0154378Y0291133D01*
X0153634Y0291512D01*
X0152841Y0291769D01*
X0152017Y0291900D01*
X0152000Y0291900D01*
X0152000Y0287000D01*
X0151200Y0287000D01*
X0151200Y0291900D01*
X0151183Y0291900D01*
X0150359Y0291769D01*
X0149566Y0291512D01*
X0148822Y0291133D01*
X0148147Y0290643D01*
X0147557Y0290053D01*
X0147067Y0289378D01*
X0146688Y0288634D01*
X0146430Y0287841D01*
X0146300Y0287017D01*
X0146300Y0287000D01*
X0151200Y0287000D01*
X0151200Y0286200D01*
X0146300Y0286200D01*
X0146300Y0286183D01*
X0146430Y0285359D01*
X0146688Y0284566D01*
X0147067Y0283822D01*
X0147557Y0283147D01*
X0148147Y0282557D01*
X0148822Y0282067D01*
X0149112Y0280873D02*
X0134224Y0280873D01*
X0134650Y0279674D02*
X0147745Y0279674D01*
X0147073Y0278476D02*
X0134650Y0278476D01*
X0134650Y0277277D02*
X0146700Y0277277D01*
X0146700Y0276079D02*
X0134176Y0276079D01*
X0134332Y0271285D02*
X0144511Y0271285D01*
X0145709Y0270086D02*
X0137876Y0270086D01*
X0139075Y0268888D02*
X0146908Y0268888D01*
X0146748Y0267689D02*
X0140273Y0267689D01*
X0141300Y0266491D02*
X0146700Y0266491D01*
X0146838Y0265292D02*
X0141300Y0265292D01*
X0141300Y0264094D02*
X0146690Y0264094D01*
X0145491Y0262895D02*
X0141300Y0262895D01*
X0141300Y0261697D02*
X0144293Y0261697D01*
X0143300Y0260498D02*
X0141300Y0260498D01*
X0141897Y0259300D02*
X0143153Y0259300D01*
X0142700Y0258101D02*
X0142350Y0258101D01*
X0142350Y0256903D02*
X0142700Y0256903D01*
X0142700Y0255704D02*
X0142350Y0255704D01*
X0142350Y0254506D02*
X0142700Y0254506D01*
X0143300Y0253307D02*
X0137040Y0253307D01*
X0135826Y0252109D02*
X0143300Y0252109D01*
X0143300Y0250910D02*
X0134598Y0250910D01*
X0132845Y0250910D02*
X0130260Y0250910D01*
X0131458Y0249712D02*
X0143300Y0249712D01*
X0143300Y0248513D02*
X0132657Y0248513D01*
X0133700Y0247315D02*
X0143300Y0247315D01*
X0143300Y0246116D02*
X0133700Y0246116D01*
X0133700Y0244918D02*
X0143300Y0244918D01*
X0143300Y0243719D02*
X0133700Y0243719D01*
X0133700Y0242521D02*
X0143300Y0242521D01*
X0143300Y0241322D02*
X0133700Y0241322D01*
X0133700Y0240124D02*
X0143300Y0240124D01*
X0143300Y0238925D02*
X0133700Y0238925D01*
X0133700Y0237727D02*
X0143300Y0237727D01*
X0143300Y0236528D02*
X0133700Y0236528D01*
X0133700Y0235330D02*
X0143300Y0235330D01*
X0143300Y0234131D02*
X0133700Y0234131D01*
X0133700Y0232933D02*
X0143300Y0232933D01*
X0143300Y0231734D02*
X0133700Y0231734D01*
X0133700Y0230536D02*
X0143300Y0230536D01*
X0142882Y0229337D02*
X0133700Y0229337D01*
X0133700Y0228139D02*
X0141683Y0228139D01*
X0140485Y0226940D02*
X0133700Y0226940D01*
X0133700Y0225741D02*
X0139286Y0225741D01*
X0138500Y0224543D02*
X0133700Y0224543D01*
X0133700Y0223344D02*
X0138500Y0223344D01*
X0138500Y0222146D02*
X0133700Y0222146D01*
X0133700Y0220947D02*
X0138500Y0220947D01*
X0138500Y0219749D02*
X0133700Y0219749D01*
X0133700Y0218550D02*
X0138500Y0218550D01*
X0138500Y0217352D02*
X0133700Y0217352D01*
X0133700Y0216153D02*
X0138500Y0216153D01*
X0138500Y0214955D02*
X0133700Y0214955D01*
X0133700Y0213756D02*
X0138500Y0213756D01*
X0138500Y0212558D02*
X0133700Y0212558D01*
X0133700Y0211359D02*
X0138500Y0211359D01*
X0138500Y0210161D02*
X0133700Y0210161D01*
X0133700Y0208962D02*
X0138500Y0208962D01*
X0138500Y0207764D02*
X0133700Y0207764D01*
X0133700Y0206565D02*
X0138500Y0206565D01*
X0138500Y0205367D02*
X0133700Y0205367D01*
X0133700Y0204168D02*
X0138500Y0204168D01*
X0138500Y0202970D02*
X0133700Y0202970D01*
X0133700Y0201771D02*
X0138500Y0201771D01*
X0138500Y0200573D02*
X0133700Y0200573D01*
X0133700Y0199374D02*
X0138500Y0199374D01*
X0138500Y0198176D02*
X0133700Y0198176D01*
X0133700Y0196977D02*
X0138500Y0196977D01*
X0138500Y0195779D02*
X0133700Y0195779D01*
X0133700Y0194580D02*
X0138500Y0194580D01*
X0138500Y0193382D02*
X0133700Y0193382D01*
X0133700Y0192183D02*
X0138500Y0192183D01*
X0138500Y0190985D02*
X0133700Y0190985D01*
X0133700Y0189786D02*
X0138500Y0189786D01*
X0138500Y0188588D02*
X0133700Y0188588D01*
X0133700Y0187389D02*
X0138500Y0187389D01*
X0138500Y0186191D02*
X0133700Y0186191D01*
X0133700Y0184992D02*
X0138500Y0184992D01*
X0138500Y0183794D02*
X0133700Y0183794D01*
X0133700Y0182595D02*
X0138500Y0182595D01*
X0138500Y0181397D02*
X0133700Y0181397D01*
X0133700Y0180198D02*
X0138500Y0180198D01*
X0138500Y0179000D02*
X0133700Y0179000D01*
X0133700Y0177801D02*
X0138500Y0177801D01*
X0139193Y0176603D02*
X0133700Y0176603D01*
X0133374Y0175404D02*
X0140392Y0175404D01*
X0141590Y0174205D02*
X0132175Y0174205D01*
X0130977Y0173007D02*
X0142789Y0173007D01*
X0143987Y0171808D02*
X0129778Y0171808D01*
X0128580Y0170610D02*
X0145186Y0170610D01*
X0145486Y0169411D02*
X0146384Y0169411D01*
X0148796Y0171808D02*
X0151300Y0171808D01*
X0151300Y0170610D02*
X0149900Y0170610D01*
X0149936Y0169411D02*
X0151300Y0169411D01*
X0150850Y0168213D02*
X0150500Y0168213D01*
X0150500Y0167014D02*
X0150850Y0167014D01*
X0150850Y0165816D02*
X0150500Y0165816D01*
X0150500Y0164617D02*
X0150850Y0164617D01*
X0147891Y0163419D02*
X0164500Y0163419D01*
X0164500Y0164617D02*
X0156150Y0164617D01*
X0156150Y0165816D02*
X0164500Y0165816D01*
X0164500Y0167014D02*
X0156150Y0167014D01*
X0156150Y0168213D02*
X0164500Y0168213D01*
X0164500Y0169411D02*
X0155586Y0169411D01*
X0154500Y0170610D02*
X0164500Y0170610D01*
X0164500Y0171808D02*
X0154500Y0171808D01*
X0154500Y0173007D02*
X0164500Y0173007D01*
X0164500Y0174205D02*
X0154500Y0174205D01*
X0154500Y0175404D02*
X0164500Y0175404D01*
X0164500Y0176603D02*
X0154500Y0176603D01*
X0154500Y0177801D02*
X0164500Y0177801D01*
X0164500Y0179000D02*
X0154500Y0179000D01*
X0154500Y0180198D02*
X0164500Y0180198D01*
X0164500Y0181397D02*
X0154500Y0181397D01*
X0154500Y0182595D02*
X0164500Y0182595D01*
X0164500Y0183794D02*
X0154500Y0183794D01*
X0154500Y0184992D02*
X0164500Y0184992D01*
X0164500Y0186191D02*
X0154500Y0186191D01*
X0154500Y0187389D02*
X0164500Y0187389D01*
X0164500Y0188588D02*
X0154500Y0188588D01*
X0154500Y0189786D02*
X0164500Y0189786D01*
X0164500Y0190985D02*
X0154500Y0190985D01*
X0154500Y0192183D02*
X0164500Y0192183D01*
X0164500Y0193382D02*
X0154500Y0193382D01*
X0154500Y0194580D02*
X0164500Y0194580D01*
X0164500Y0195779D02*
X0154500Y0195779D01*
X0154500Y0196977D02*
X0164500Y0196977D01*
X0164500Y0198176D02*
X0154500Y0198176D01*
X0154500Y0199374D02*
X0164500Y0199374D01*
X0164500Y0200573D02*
X0154500Y0200573D01*
X0154500Y0201771D02*
X0164500Y0201771D01*
X0164500Y0202970D02*
X0154500Y0202970D01*
X0154500Y0204168D02*
X0164500Y0204168D01*
X0164500Y0205367D02*
X0154500Y0205367D01*
X0154500Y0206565D02*
X0164500Y0206565D01*
X0164500Y0207764D02*
X0154500Y0207764D01*
X0154500Y0208962D02*
X0164500Y0208962D01*
X0164500Y0210161D02*
X0154500Y0210161D01*
X0154500Y0211359D02*
X0164500Y0211359D01*
X0164500Y0212558D02*
X0154500Y0212558D01*
X0154500Y0213756D02*
X0164500Y0213756D01*
X0164500Y0214955D02*
X0154500Y0214955D01*
X0154500Y0216153D02*
X0164500Y0216153D01*
X0164500Y0217352D02*
X0154500Y0217352D01*
X0154500Y0218550D02*
X0164500Y0218550D01*
X0164500Y0219749D02*
X0154500Y0219749D01*
X0154500Y0220947D02*
X0164500Y0220947D01*
X0164500Y0222146D02*
X0154500Y0222146D01*
X0154500Y0223344D02*
X0164500Y0223344D01*
X0164500Y0224543D02*
X0154500Y0224543D01*
X0153631Y0225741D02*
X0164500Y0225741D01*
X0164500Y0226940D02*
X0152432Y0226940D01*
X0151234Y0228139D02*
X0164500Y0228139D01*
X0164500Y0229337D02*
X0150700Y0229337D01*
X0150700Y0230536D02*
X0164500Y0230536D01*
X0164500Y0231734D02*
X0150700Y0231734D01*
X0150700Y0232933D02*
X0164500Y0232933D01*
X0164500Y0234131D02*
X0150700Y0234131D01*
X0150700Y0235330D02*
X0164500Y0235330D01*
X0164500Y0236528D02*
X0150700Y0236528D01*
X0150700Y0237727D02*
X0164500Y0237727D01*
X0164500Y0238925D02*
X0150700Y0238925D01*
X0150700Y0240124D02*
X0164500Y0240124D01*
X0164500Y0241322D02*
X0150700Y0241322D01*
X0150700Y0242521D02*
X0164500Y0242521D01*
X0164500Y0243719D02*
X0150700Y0243719D01*
X0150700Y0244918D02*
X0164500Y0244918D01*
X0164500Y0246116D02*
X0150700Y0246116D01*
X0150700Y0247315D02*
X0164500Y0247315D01*
X0164500Y0248513D02*
X0150700Y0248513D01*
X0150700Y0249712D02*
X0164500Y0249712D01*
X0164500Y0250910D02*
X0150700Y0250910D01*
X0150700Y0252109D02*
X0164500Y0252109D01*
X0164500Y0253307D02*
X0155224Y0253307D01*
X0156364Y0254506D02*
X0164500Y0254506D01*
X0164500Y0255704D02*
X0156400Y0255704D01*
X0156400Y0256903D02*
X0164500Y0256903D01*
X0164500Y0258101D02*
X0156400Y0258101D01*
X0156099Y0259300D02*
X0164500Y0259300D01*
X0164500Y0260498D02*
X0147902Y0260498D01*
X0147603Y0259300D02*
X0146847Y0259300D01*
X0149101Y0261697D02*
X0164500Y0261697D01*
X0164500Y0262895D02*
X0154825Y0262895D01*
X0155866Y0264094D02*
X0164500Y0264094D01*
X0164500Y0265292D02*
X0156362Y0265292D01*
X0156500Y0266491D02*
X0164500Y0266491D01*
X0164500Y0267689D02*
X0156452Y0267689D01*
X0155956Y0268888D02*
X0164500Y0268888D01*
X0164500Y0270086D02*
X0155043Y0270086D01*
X0153094Y0271285D02*
X0164500Y0271285D01*
X0164500Y0272483D02*
X0154413Y0272483D01*
X0155612Y0273682D02*
X0164500Y0273682D01*
X0164500Y0274880D02*
X0156191Y0274880D01*
X0156500Y0276079D02*
X0164500Y0276079D01*
X0164500Y0277277D02*
X0156500Y0277277D01*
X0156127Y0278476D02*
X0164500Y0278476D01*
X0164500Y0279674D02*
X0155455Y0279674D01*
X0154088Y0280873D02*
X0164500Y0280873D01*
X0164500Y0282072D02*
X0154384Y0282072D01*
X0155732Y0283270D02*
X0164460Y0283270D01*
X0163262Y0284469D02*
X0156462Y0284469D01*
X0156818Y0285667D02*
X0162063Y0285667D01*
X0160865Y0286866D02*
X0152000Y0286866D01*
X0151200Y0286866D02*
X0022000Y0286866D01*
X0021200Y0286866D02*
X0012335Y0286866D01*
X0013534Y0288064D02*
X0016503Y0288064D01*
X0017008Y0289263D02*
X0014732Y0289263D01*
X0015931Y0290461D02*
X0017966Y0290461D01*
X0017129Y0291660D02*
X0020021Y0291660D01*
X0021200Y0291660D02*
X0022000Y0291660D01*
X0023179Y0291660D02*
X0150021Y0291660D01*
X0151200Y0291660D02*
X0152000Y0291660D01*
X0153179Y0291660D02*
X0156071Y0291660D01*
X0155234Y0290461D02*
X0157269Y0290461D01*
X0156192Y0289263D02*
X0158468Y0289263D01*
X0159666Y0288064D02*
X0156697Y0288064D01*
X0152000Y0288064D02*
X0151200Y0288064D01*
X0151200Y0289263D02*
X0152000Y0289263D01*
X0152000Y0290461D02*
X0151200Y0290461D01*
X0147966Y0290461D02*
X0025234Y0290461D01*
X0026192Y0289263D02*
X0147008Y0289263D01*
X0146503Y0288064D02*
X0026697Y0288064D01*
X0026818Y0285667D02*
X0146382Y0285667D01*
X0146738Y0284469D02*
X0026462Y0284469D01*
X0025732Y0283270D02*
X0147468Y0283270D01*
X0147009Y0274880D02*
X0145724Y0274880D01*
X0146922Y0273682D02*
X0147588Y0273682D01*
X0148121Y0272483D02*
X0148787Y0272483D01*
X0149319Y0271285D02*
X0150106Y0271285D01*
X0150597Y0259300D02*
X0150901Y0259300D01*
X0153450Y0259300D02*
X0153550Y0259300D01*
X0153550Y0258101D02*
X0153450Y0258101D01*
X0153450Y0256903D02*
X0153550Y0256903D01*
X0153550Y0255704D02*
X0153450Y0255704D01*
X0153450Y0254506D02*
X0153550Y0254506D01*
X0153550Y0253307D02*
X0153450Y0253307D01*
X0151776Y0253307D02*
X0150700Y0253307D01*
X0138100Y0260498D02*
X0131626Y0260498D01*
X0132824Y0259300D02*
X0137503Y0259300D01*
X0137050Y0258101D02*
X0134504Y0258101D01*
X0134339Y0258197D02*
X0133932Y0258306D01*
X0133511Y0258306D01*
X0133104Y0258197D01*
X0132739Y0257986D01*
X0131609Y0256856D01*
X0133721Y0254744D01*
X0135834Y0256856D01*
X0134704Y0257986D01*
X0134339Y0258197D01*
X0132938Y0258101D02*
X0132783Y0258101D01*
X0131656Y0256903D02*
X0131584Y0256903D01*
X0132231Y0255704D02*
X0132761Y0255704D01*
X0133429Y0254506D02*
X0133483Y0254506D01*
X0133959Y0254506D02*
X0134013Y0254506D01*
X0134628Y0253307D02*
X0135158Y0253307D01*
X0132815Y0253307D02*
X0132285Y0253307D01*
X0131616Y0252109D02*
X0129061Y0252109D01*
X0127863Y0253307D02*
X0130403Y0253307D01*
X0129894Y0254506D02*
X0126664Y0254506D01*
X0125466Y0255704D02*
X0128572Y0255704D01*
X0127373Y0256903D02*
X0124267Y0256903D01*
X0123069Y0258101D02*
X0126175Y0258101D01*
X0126133Y0259300D02*
X0047067Y0259300D01*
X0047025Y0258101D02*
X0050131Y0258101D01*
X0048933Y0256903D02*
X0045827Y0256903D01*
X0044628Y0255704D02*
X0047734Y0255704D01*
X0046536Y0254506D02*
X0043306Y0254506D01*
X0042814Y0255704D02*
X0042743Y0255704D01*
X0041616Y0256903D02*
X0041544Y0256903D01*
X0040969Y0255704D02*
X0040439Y0255704D01*
X0039771Y0254506D02*
X0039717Y0254506D01*
X0039241Y0254506D02*
X0039187Y0254506D01*
X0038572Y0253307D02*
X0038042Y0253307D01*
X0037374Y0252109D02*
X0033375Y0252109D01*
X0033450Y0253307D02*
X0033550Y0253307D01*
X0033550Y0254506D02*
X0033450Y0254506D01*
X0033450Y0255704D02*
X0033550Y0255704D01*
X0033550Y0256903D02*
X0033450Y0256903D01*
X0033450Y0258101D02*
X0033550Y0258101D01*
X0033550Y0259300D02*
X0033450Y0259300D01*
X0030901Y0259300D02*
X0030597Y0259300D01*
X0036099Y0259300D02*
X0040376Y0259300D01*
X0040417Y0258101D02*
X0040262Y0258101D01*
X0038696Y0258101D02*
X0036400Y0258101D01*
X0036400Y0256903D02*
X0037413Y0256903D01*
X0037988Y0255704D02*
X0038518Y0255704D01*
X0040385Y0253307D02*
X0040915Y0253307D01*
X0041584Y0252109D02*
X0044139Y0252109D01*
X0045337Y0253307D02*
X0042797Y0253307D01*
X0042940Y0250910D02*
X0040355Y0250910D01*
X0038602Y0250910D02*
X0034574Y0250910D01*
X0035772Y0249712D02*
X0041742Y0249712D01*
X0040543Y0248513D02*
X0036971Y0248513D01*
X0038169Y0247315D02*
X0039500Y0247315D01*
X0039500Y0246116D02*
X0039368Y0246116D01*
X0036160Y0253307D02*
X0035224Y0253307D01*
X0037003Y0265292D02*
X0038650Y0265292D01*
X0039020Y0272483D02*
X0037698Y0272483D01*
X0037003Y0273682D02*
X0038650Y0273682D01*
X0038650Y0274880D02*
X0037003Y0274880D01*
X0037003Y0276079D02*
X0038708Y0276079D01*
X0038250Y0277277D02*
X0037003Y0277277D01*
X0036923Y0278476D02*
X0041550Y0278476D01*
X0041650Y0278476D02*
X0072304Y0278476D01*
X0071105Y0277277D02*
X0044950Y0277277D01*
X0044492Y0276079D02*
X0069907Y0276079D01*
X0069055Y0267689D02*
X0046150Y0267689D01*
X0046150Y0266491D02*
X0070254Y0266491D01*
X0071452Y0265292D02*
X0046150Y0265292D01*
X0046150Y0264094D02*
X0072651Y0264094D01*
X0046150Y0262895D02*
X0123123Y0262895D01*
X0124322Y0261697D02*
X0046150Y0261697D01*
X0046150Y0260498D02*
X0125520Y0260498D01*
X0128830Y0261997D02*
X0125653Y0265174D01*
X0128750Y0268089D01*
X0128750Y0267853D01*
X0129193Y0267410D01*
X0128968Y0267280D01*
X0128670Y0266982D01*
X0128459Y0266618D01*
X0128350Y0266211D01*
X0128350Y0264750D01*
X0131650Y0264750D01*
X0131650Y0264650D01*
X0128350Y0264650D01*
X0128350Y0263189D01*
X0128459Y0262782D01*
X0128670Y0262418D01*
X0128960Y0262127D01*
X0128830Y0261997D01*
X0128429Y0262895D02*
X0127932Y0262895D01*
X0128350Y0264094D02*
X0126733Y0264094D01*
X0125779Y0265292D02*
X0128350Y0265292D01*
X0128425Y0266491D02*
X0127052Y0266491D01*
X0128325Y0267689D02*
X0128914Y0267689D01*
X0125911Y0270086D02*
X0103009Y0270086D01*
X0103100Y0271285D02*
X0127185Y0271285D01*
X0128458Y0272483D02*
X0103100Y0272483D01*
X0102773Y0273682D02*
X0128750Y0273682D01*
X0128833Y0274880D02*
X0102277Y0274880D01*
X0101313Y0276079D02*
X0129224Y0276079D01*
X0128750Y0279674D02*
X0044950Y0279674D01*
X0044540Y0280873D02*
X0129176Y0280873D01*
X0124638Y0268888D02*
X0102512Y0268888D01*
X0101882Y0267689D02*
X0123365Y0267689D01*
X0131650Y0264094D02*
X0131750Y0264094D01*
X0131750Y0262895D02*
X0131650Y0262895D01*
X0130427Y0261697D02*
X0138100Y0261697D01*
X0138100Y0262895D02*
X0134971Y0262895D01*
X0135050Y0264094D02*
X0138100Y0264094D01*
X0138100Y0265292D02*
X0135050Y0265292D01*
X0134975Y0266491D02*
X0136946Y0266491D01*
X0137050Y0256903D02*
X0135787Y0256903D01*
X0135212Y0255704D02*
X0134682Y0255704D01*
X0136986Y0255704D02*
X0137050Y0255704D01*
X0130457Y0255704D02*
X0130386Y0255704D01*
X0141900Y0196977D02*
X0142030Y0196977D01*
X0141900Y0195779D02*
X0143669Y0195779D01*
X0141900Y0194580D02*
X0151300Y0194580D01*
X0151300Y0193382D02*
X0141900Y0193382D01*
X0141900Y0192183D02*
X0151300Y0192183D01*
X0151300Y0190985D02*
X0141900Y0190985D01*
X0141900Y0189786D02*
X0151300Y0189786D01*
X0151300Y0188588D02*
X0141900Y0188588D01*
X0141900Y0187389D02*
X0151300Y0187389D01*
X0151300Y0186191D02*
X0141900Y0186191D01*
X0141900Y0184992D02*
X0151300Y0184992D01*
X0151300Y0183794D02*
X0141900Y0183794D01*
X0141900Y0182595D02*
X0151300Y0182595D01*
X0151300Y0181397D02*
X0141900Y0181397D01*
X0141900Y0180198D02*
X0151300Y0180198D01*
X0151300Y0179000D02*
X0141900Y0179000D01*
X0142803Y0177801D02*
X0151300Y0177801D01*
X0151300Y0176603D02*
X0144002Y0176603D01*
X0145200Y0175404D02*
X0151300Y0175404D01*
X0151300Y0174205D02*
X0146399Y0174205D01*
X0147597Y0173007D02*
X0151300Y0173007D01*
X0147891Y0162220D02*
X0164500Y0162220D01*
X0164500Y0161022D02*
X0149146Y0161022D01*
X0150198Y0159823D02*
X0164500Y0159823D01*
X0164500Y0158625D02*
X0150198Y0158625D01*
X0142500Y0163419D02*
X0141721Y0163419D01*
X0139750Y0163419D02*
X0139650Y0163419D01*
X0139650Y0164617D02*
X0139750Y0164617D01*
X0139750Y0165816D02*
X0139650Y0165816D01*
X0139650Y0167014D02*
X0139750Y0167014D01*
X0139750Y0168213D02*
X0139650Y0168213D01*
X0139650Y0169411D02*
X0139750Y0169411D01*
X0137199Y0169411D02*
X0127381Y0169411D01*
X0126183Y0168213D02*
X0136800Y0168213D01*
X0136800Y0167014D02*
X0124984Y0167014D01*
X0123786Y0165816D02*
X0136800Y0165816D01*
X0136806Y0164617D02*
X0122587Y0164617D01*
X0142201Y0169411D02*
X0142714Y0169411D01*
X0149531Y0195779D02*
X0151300Y0195779D01*
X0151300Y0196977D02*
X0151170Y0196977D01*
X0049265Y0045965D02*
X0046725Y0045965D01*
X0045472Y0045965D02*
X0044942Y0045965D01*
X0045527Y0047163D02*
X0048067Y0047163D01*
X0031300Y0226940D02*
X0030452Y0226940D01*
X0017334Y0264094D02*
X0008700Y0264094D01*
X0008700Y0265292D02*
X0016838Y0265292D01*
X0016700Y0266491D02*
X0008700Y0266491D01*
X0008700Y0267689D02*
X0016748Y0267689D01*
X0017244Y0268888D02*
X0008700Y0268888D01*
X0008700Y0270086D02*
X0018157Y0270086D01*
X0020106Y0271285D02*
X0008700Y0271285D01*
X0008700Y0272483D02*
X0018787Y0272483D01*
X0017588Y0273682D02*
X0008700Y0273682D01*
X0008700Y0274880D02*
X0017009Y0274880D01*
X0016700Y0276079D02*
X0008700Y0276079D01*
X0008700Y0277277D02*
X0016700Y0277277D01*
X0017073Y0278476D02*
X0008700Y0278476D01*
X0008700Y0279674D02*
X0017745Y0279674D01*
X0019112Y0280873D02*
X0008700Y0280873D01*
X0008700Y0282072D02*
X0018816Y0282072D01*
X0017468Y0283270D02*
X0008740Y0283270D01*
X0009938Y0284469D02*
X0016738Y0284469D01*
X0016382Y0285667D02*
X0011137Y0285667D01*
X0021200Y0288064D02*
X0022000Y0288064D01*
X0022000Y0289263D02*
X0021200Y0289263D01*
X0021200Y0290461D02*
X0022000Y0290461D01*
X0041550Y0280873D02*
X0041650Y0280873D01*
X0041650Y0279674D02*
X0041550Y0279674D01*
D24*
X0041600Y0270000D02*
X0037777Y0270000D01*
X0036258Y0271519D01*
X0026519Y0271519D01*
X0021600Y0266600D01*
X0025000Y0256600D02*
X0025000Y0252100D01*
X0033000Y0244100D01*
X0033000Y0198949D01*
X0028200Y0194149D01*
X0028200Y0166600D01*
X0028108Y0167008D01*
X0028108Y0151606D01*
X0028098Y0150000D01*
X0028098Y0144100D01*
X0025000Y0141002D01*
X0025000Y0136600D01*
X0025000Y0132100D01*
X0033000Y0124100D01*
X0033000Y0078949D01*
X0028200Y0074149D01*
X0028200Y0046600D01*
X0028865Y0047100D01*
X0031244Y0049480D01*
X0038720Y0049480D01*
X0039479Y0048721D01*
X0028619Y0040481D02*
X0039100Y0030000D01*
X0041600Y0030000D01*
X0050100Y0038000D01*
X0099251Y0038000D01*
X0104051Y0033200D01*
X0131700Y0033200D01*
X0136400Y0033200D01*
X0145300Y0042100D01*
X0148100Y0042100D01*
X0148100Y0047000D01*
X0148200Y0046600D01*
X0140200Y0055100D01*
X0140200Y0055077D01*
X0133844Y0048721D01*
X0133721Y0048721D01*
X0140200Y0055100D02*
X0140200Y0104251D01*
X0145000Y0109051D01*
X0145000Y0136600D01*
X0145000Y0140379D01*
X0146191Y0141569D01*
X0146191Y0164591D01*
X0148200Y0166600D01*
X0148200Y0170000D01*
X0140200Y0178000D01*
X0140200Y0224251D01*
X0145000Y0229051D01*
X0145000Y0256600D01*
X0145000Y0260000D01*
X0151600Y0266600D01*
X0145000Y0273200D01*
X0131700Y0273200D01*
X0123200Y0265200D01*
X0123223Y0265200D01*
X0129479Y0258944D01*
X0129479Y0258721D01*
X0123200Y0265200D02*
X0073949Y0265200D01*
X0069149Y0270000D01*
X0041600Y0270000D01*
X0044450Y0267150D01*
X0044450Y0259415D01*
X0043756Y0258721D01*
X0043721Y0258721D01*
X0041600Y0149900D02*
X0046998Y0149900D01*
X0069249Y0149900D01*
X0073949Y0145200D01*
X0121600Y0145200D01*
X0129600Y0153200D01*
X0131700Y0153200D01*
X0138200Y0153200D01*
X0138400Y0153000D01*
X0148100Y0042100D02*
X0152242Y0042100D01*
X0156600Y0037742D01*
X0156600Y0025655D01*
X0160045Y0022210D01*
X0055300Y0029800D02*
X0042402Y0029800D01*
X0041600Y0030000D01*
X0028619Y0040481D02*
X0028098Y0040481D01*
X0028200Y0040583D01*
X0028200Y0046600D01*
D25*
X0028098Y0040481D03*
X0055300Y0029800D03*
X0046998Y0149900D03*
X0028098Y0150000D03*
X0138400Y0153000D03*
X0138700Y0146600D03*
X0148098Y0159100D03*
X0148100Y0042100D03*
D26*
X0144100Y0044100D02*
X0144100Y0046600D01*
X0144100Y0044100D02*
X0138500Y0038500D01*
X0131700Y0038500D01*
X0131700Y0029100D02*
X0104100Y0029100D01*
X0099700Y0024700D01*
X0041600Y0024700D01*
X0041600Y0034100D02*
X0038100Y0034100D01*
X0033500Y0038700D01*
X0033500Y0046600D01*
X0024100Y0046600D02*
X0024100Y0075190D01*
X0019700Y0079590D01*
X0019700Y0136600D01*
X0029100Y0136600D02*
X0029100Y0140594D01*
X0033500Y0144994D01*
X0033500Y0166600D01*
X0041600Y0154000D02*
X0070090Y0154000D01*
X0073990Y0157900D01*
X0074100Y0157900D01*
X0074700Y0158500D01*
X0131700Y0158500D01*
X0131700Y0149100D02*
X0136200Y0149100D01*
X0138700Y0146600D01*
X0144100Y0141600D02*
X0140350Y0137850D01*
X0139700Y0136600D01*
X0144100Y0141600D02*
X0144100Y0166600D01*
X0152900Y0167150D02*
X0152900Y0224210D01*
X0149100Y0228010D01*
X0149100Y0256600D01*
X0139700Y0256600D02*
X0139700Y0266000D01*
X0136600Y0269100D01*
X0131700Y0269100D01*
X0131150Y0277900D02*
X0073990Y0277900D01*
X0070190Y0274100D01*
X0041600Y0274100D01*
X0038440Y0267860D02*
X0041600Y0264700D01*
X0038440Y0267860D02*
X0032850Y0267860D01*
X0032850Y0275340D02*
X0031590Y0276600D01*
X0021600Y0276600D01*
X0019700Y0256600D02*
X0019700Y0199700D01*
X0020300Y0199100D01*
X0020300Y0198990D01*
X0024100Y0195190D01*
X0024100Y0166600D01*
X0038850Y0147350D02*
X0038850Y0244371D01*
X0029100Y0254121D01*
X0029100Y0256600D01*
X0038850Y0147350D02*
X0041600Y0144600D01*
X0131150Y0277900D02*
X0131700Y0278500D01*
X0152900Y0167150D02*
X0153500Y0166600D01*
X0149100Y0136600D02*
X0149100Y0108010D01*
X0153500Y0103610D01*
X0153500Y0046600D01*
X0159100Y0046600D02*
X0160045Y0045655D01*
X0160045Y0035990D01*
X0153155Y0022210D02*
X0141630Y0022210D01*
X0140670Y0023170D01*
M02*
