%
M48
M72
T01C0.01000
T02C0.01378
T03C0.04000
T04C0.10000
%
T01
X28098Y40481
X55300Y29800
X46998Y149900
X28098Y150000
X138400Y153000
X138700Y146600
X148098Y159100
X148100Y42100
T02
X21600Y11600
X44100Y49100
X49100Y19100
X41600Y136600
X36550Y156650
X41600Y166600
X14100Y161600
X44100Y254100
X129100Y254100
X131600Y166600
X131600Y136600
X129100Y49100
X143800Y26800
X140670Y23170
X151600Y11600
X159100Y46600
T03
X151600Y266600
X151600Y276600
X151600Y286600
X21600Y286600
X21600Y276600
X21600Y266600
T04
X26600Y221600
X26600Y201600
X19100Y151600
X26600Y101600
X26600Y81600
X76600Y31600
X96600Y31600
X146600Y81600
X146600Y101600
X154100Y151600
X146600Y201600
X146600Y221600
X96600Y271600
X76600Y271600
X76600Y151600
X96600Y151600
M30
